<svg width="21" height="30" viewBox="0 0 21 30" fill="none" xmlns="http://www.w3.org/2000/svg">
<path d="M6 22H10C10.5523 22 11 21.5523 11 21V18" stroke="#455A64" stroke-linecap="round"/>
<path fill-rule="evenodd" clip-rule="evenodd" d="M0 12C0 10.8955 0.895386 10 2 10H19C20.1046 10 21 10.8955 21 12V28C21 29.1045 20.1046 30 19 30H2C0.895386 30 0 29.1045 0 28V12ZM4 13C4 12.4478 4.44775 12 5 12H16C16.5522 12 17 12.4478 17 13C17 13.5522 16.5522 14 16 14H5C4.44775 14 4 13.5522 4 13ZM11 28C14.3137 28 17 25.3135 17 22C17 18.6865 14.3137 16 11 16C7.68628 16 5 18.6865 5 22C5 25.3135 7.68628 28 11 28Z" fill="#455A64"/>
<path d="M7.6845 2.13651L6.14796 13.8702C6.06955 14.4689 6.53564 15 7.13949 15H14.6621C15.1538 15 15.5725 14.6426 15.6497 14.1571L16.9373 6.06113C16.9775 5.80788 16.919 5.54884 16.7737 5.33753L15.3742 3.30185C15.2402 3.10695 15.0415 2.96585 14.8133 2.90362L8.93916 1.30159C8.35432 1.14209 7.76322 1.53545 7.6845 2.13651Z" fill="#C8C8C8" stroke="#455A64"/>
<path d="M9 3.5L13.5 5" stroke="#455A64"/>
<path d="M9 6L15 8" stroke="#455A64"/>
<path d="M9 9L15 11" stroke="#455A64"/>
</svg>
