<svg width="19" height="19" viewBox="0 0 19 19" fill="none" xmlns="http://www.w3.org/2000/svg">
<path d="M17.0208 3.06592H15.3056V4.08787H16.8889V15.3293H2.11111V4.08787H3.69444V3.06592H1.97917C1.85579 3.06791 1.73403 3.09342 1.62084 3.14098C1.50765 3.18855 1.40525 3.25723 1.31948 3.34312C1.23371 3.429 1.16626 3.5304 1.12097 3.64153C1.07569 3.75266 1.05346 3.87134 1.05556 3.99078V15.4264C1.05346 15.5458 1.07569 15.6645 1.12097 15.7756C1.16626 15.8868 1.23371 15.9882 1.31948 16.0741C1.40525 16.1599 1.50765 16.2286 1.62084 16.2762C1.73403 16.3238 1.85579 16.3493 1.97917 16.3513H17.0208C17.1442 16.3493 17.266 16.3238 17.3792 16.2762C17.4923 16.2286 17.5948 16.1599 17.6805 16.0741C17.7663 15.9882 17.8337 15.8868 17.879 15.7756C17.9243 15.6645 17.9465 15.5458 17.9444 15.4264V3.99078C17.9465 3.87134 17.9243 3.75266 17.879 3.64153C17.8337 3.5304 17.7663 3.429 17.6805 3.34312C17.5948 3.25723 17.4923 3.18855 17.3792 3.14098C17.266 3.09342 17.1442 3.06791 17.0208 3.06592Z" fill="#455A64"/>
<path d="M4.22229 7.15381H5.27785V8.17576H4.22229V7.15381Z" fill="#455A64"/>
<path d="M7.38892 7.15381H8.44447V8.17576H7.38892V7.15381Z" fill="#455A64"/>
<path d="M10.5557 7.15381H11.6112V8.17576H10.5557V7.15381Z" fill="#455A64"/>
<path d="M13.7223 7.15381H14.7778V8.17576H13.7223V7.15381Z" fill="#455A64"/>
<path d="M4.22229 9.70801H5.27785V10.73H4.22229V9.70801Z" fill="#455A64"/>
<path d="M7.38892 9.70801H8.44447V10.73H7.38892V9.70801Z" fill="#455A64"/>
<path d="M10.5557 9.70801H11.6112V10.73H10.5557V9.70801Z" fill="#455A64"/>
<path d="M13.7223 9.70801H14.7778V10.73H13.7223V9.70801Z" fill="#455A64"/>
<path d="M4.22229 12.2632H5.27785V13.2851H4.22229V12.2632Z" fill="#455A64"/>
<path d="M7.38892 12.2632H8.44447V13.2851H7.38892V12.2632Z" fill="#455A64"/>
<path d="M10.5557 12.2632H11.6112V13.2851H10.5557V12.2632Z" fill="#455A64"/>
<path d="M13.7223 12.2632H14.7778V13.2851H13.7223V12.2632Z" fill="#455A64"/>
<path d="M5.27778 5.11026C5.41775 5.11026 5.552 5.05642 5.65097 4.9606C5.74995 4.86477 5.80556 4.7348 5.80556 4.59928V1.53344C5.80556 1.39792 5.74995 1.26795 5.65097 1.17212C5.552 1.0763 5.41775 1.02246 5.27778 1.02246C5.1378 1.02246 5.00356 1.0763 4.90458 1.17212C4.80561 1.26795 4.75 1.39792 4.75 1.53344V4.59928C4.75 4.7348 4.80561 4.86477 4.90458 4.9606C5.00356 5.05642 5.1378 5.11026 5.27778 5.11026Z" fill="#455A64"/>
<path d="M13.7221 5.11026C13.8621 5.11026 13.9963 5.05642 14.0953 4.9606C14.1943 4.86477 14.2499 4.7348 14.2499 4.59928V1.53344C14.2499 1.39792 14.1943 1.26795 14.0953 1.17212C13.9963 1.0763 13.8621 1.02246 13.7221 1.02246C13.5821 1.02246 13.4479 1.0763 13.3489 1.17212C13.2499 1.26795 13.1943 1.39792 13.1943 1.53344V4.59928C13.1943 4.7348 13.2499 4.86477 13.3489 4.9606C13.4479 5.05642 13.5821 5.11026 13.7221 5.11026Z" fill="#455A64"/>
<path d="M6.86108 3.06592H12.1389V4.08787H6.86108V3.06592Z" fill="#455A64"/>
</svg>
