<svg width="19" height="17" viewBox="0 0 19 17" fill="none" xmlns="http://www.w3.org/2000/svg">
<mask id="path-1-inside-1_440_166" fill="white">
<path d="M0.791733 9.91749C0.581752 9.91749 0.380372 9.99213 0.231893 10.125C0.0834146 10.2578 0 10.438 0 10.6259V16.2916C0 16.4795 0.0834146 16.6597 0.231893 16.7925C0.380372 16.9254 0.581752 17 0.791733 17H7.12559C7.33557 17 7.53695 16.9254 7.68543 16.7925C7.83391 16.6597 7.91733 16.4795 7.91733 16.2916V10.6259C7.91733 10.438 7.83391 10.2578 7.68543 10.125C7.53695 9.99213 7.33557 9.91749 7.12559 9.91749H0.791733ZM11.876 9.91749C11.666 9.91749 11.4646 9.99213 11.3161 10.125C11.1677 10.2578 11.0843 10.438 11.0843 10.6259V16.2916C11.0843 16.4795 11.1677 16.6597 11.3161 16.7925C11.4646 16.9254 11.666 17 11.876 17H18.2083C18.4182 17 18.6196 16.9254 18.7681 16.7925C18.9166 16.6597 19 16.4795 19 16.2916V10.6259C19 10.438 18.9166 10.2578 18.7681 10.125C18.6196 9.99213 18.4182 9.91749 18.2083 9.91749H11.876ZM0.791733 0C0.581752 0 0.380372 0.0746346 0.231893 0.207483C0.0834146 0.340332 0 0.520515 0 0.708393V6.37553C0 6.56341 0.0834146 6.74359 0.231893 6.87644C0.380372 7.00929 0.581752 7.08392 0.791733 7.08392H7.12559C7.33557 7.08392 7.53695 7.00929 7.68543 6.87644C7.83391 6.74359 7.91733 6.56341 7.91733 6.37553V0.708393C7.91733 0.520515 7.83391 0.340332 7.68543 0.207483C7.53695 0.0746346 7.33557 0 7.12559 0H0.791733ZM11.876 0C11.666 0 11.4646 0.0746346 11.3161 0.207483C11.1677 0.340332 11.0843 0.520515 11.0843 0.708393V6.37553C11.0843 6.56341 11.1677 6.74359 11.3161 6.87644C11.4646 7.00929 11.666 7.08392 11.876 7.08392H18.2083C18.4182 7.08392 18.6196 7.00929 18.7681 6.87644C18.9166 6.74359 19 6.56341 19 6.37553V0.708393C19 0.520515 18.9166 0.340332 18.7681 0.207483C18.6196 0.0746346 18.4182 0 18.2083 0H11.876Z"/>
</mask>
<path d="M0.791733 11.4175C0.929049 11.4175 1.08973 11.3702 1.23209 11.2428L-0.768299 9.00711C-0.32899 8.61405 0.234455 8.41749 0.791733 8.41749V11.4175ZM1.23209 11.2428C1.37991 11.1106 1.5 10.8931 1.5 10.6259H-1.5C-1.5 9.98294 -1.21308 9.40508 -0.768299 9.00711L1.23209 11.2428ZM1.5 10.6259V16.2916H-1.5V10.6259H1.5ZM1.5 16.2916C1.5 16.0244 1.37991 15.8069 1.23209 15.6747L-0.768299 17.9104C-1.21308 17.5124 -1.5 16.9346 -1.5 16.2916H1.5ZM1.23209 15.6747C1.08973 15.5473 0.929049 15.5 0.791733 15.5V18.5C0.234455 18.5 -0.32899 18.3034 -0.768299 17.9104L1.23209 15.6747ZM0.791733 15.5H7.12559V18.5H0.791733V15.5ZM7.12559 15.5C6.98828 15.5 6.82759 15.5473 6.68524 15.6747L8.68563 17.9104C8.24632 18.3034 7.68287 18.5 7.12559 18.5V15.5ZM6.68524 15.6747C6.53742 15.8069 6.41733 16.0244 6.41733 16.2916H9.41733C9.41733 16.9346 9.13041 17.5124 8.68563 17.9104L6.68524 15.6747ZM6.41733 16.2916V10.6259H9.41733V16.2916H6.41733ZM6.41733 10.6259C6.41733 10.8931 6.53742 11.1106 6.68524 11.2428L8.68563 9.00711C9.13041 9.40508 9.41733 9.98294 9.41733 10.6259H6.41733ZM6.68524 11.2428C6.82759 11.3702 6.98828 11.4175 7.12559 11.4175V8.41749C7.68287 8.41749 8.24632 8.61405 8.68563 9.00711L6.68524 11.2428ZM7.12559 11.4175H0.791733V8.41749H7.12559V11.4175ZM11.876 11.4175C12.0133 11.4175 12.174 11.3702 12.3163 11.2428L10.316 9.00711C10.7553 8.61405 11.3187 8.41749 11.876 8.41749V11.4175ZM12.3163 11.2428C12.4642 11.1106 12.5843 10.8931 12.5843 10.6259H9.58426C9.58426 9.98294 9.87117 9.40508 10.316 9.00711L12.3163 11.2428ZM12.5843 10.6259V16.2916H9.58426V10.6259H12.5843ZM12.5843 16.2916C12.5843 16.0244 12.4642 15.8069 12.3163 15.6747L10.316 17.9104C9.87117 17.5124 9.58426 16.9346 9.58426 16.2916H12.5843ZM12.3163 15.6747C12.174 15.5473 12.0133 15.5 11.876 15.5V18.5C11.3187 18.5 10.7553 18.3034 10.316 17.9104L12.3163 15.6747ZM11.876 15.5H18.2083V18.5H11.876V15.5ZM18.2083 15.5C18.071 15.5 17.9103 15.5473 17.7679 15.6747L19.7683 17.9104C19.329 18.3034 18.7655 18.5 18.2083 18.5V15.5ZM17.7679 15.6747C17.6201 15.8069 17.5 16.0244 17.5 16.2916H20.5C20.5 16.9346 20.2131 17.5124 19.7683 17.9104L17.7679 15.6747ZM17.5 16.2916V10.6259H20.5V16.2916H17.5ZM17.5 10.6259C17.5 10.8931 17.6201 11.1106 17.7679 11.2428L19.7683 9.00711C20.2131 9.40508 20.5 9.98294 20.5 10.6259H17.5ZM17.7679 11.2428C17.9103 11.3702 18.071 11.4175 18.2083 11.4175V8.41749C18.7655 8.41749 19.329 8.61405 19.7683 9.00711L17.7679 11.2428ZM18.2083 11.4175H11.876V8.41749H18.2083V11.4175ZM0.791733 1.5C0.929045 1.5 1.08973 1.45271 1.23209 1.32535L-0.768299 -0.910379C-0.328988 -1.30345 0.234459 -1.5 0.791733 -1.5V1.5ZM1.23209 1.32535C1.37991 1.19308 1.5 0.975586 1.5 0.708393H-1.5C-1.5 0.0654449 -1.21308 -0.512415 -0.768299 -0.910379L1.23209 1.32535ZM1.5 0.708393V6.37553H-1.5V0.708393H1.5ZM1.5 6.37553C1.5 6.10834 1.37991 5.89084 1.23209 5.75858L-0.768299 7.9943C-1.21308 7.59634 -1.5 7.01848 -1.5 6.37553H1.5ZM1.23209 5.75858C1.08973 5.63121 0.929045 5.58392 0.791733 5.58392V8.58392C0.234459 8.58392 -0.328988 8.38737 -0.768299 7.9943L1.23209 5.75858ZM0.791733 5.58392H7.12559V8.58392H0.791733V5.58392ZM7.12559 5.58392C6.98828 5.58392 6.82759 5.63121 6.68524 5.75858L8.68563 7.9943C8.24631 8.38737 7.68287 8.58392 7.12559 8.58392V5.58392ZM6.68524 5.75858C6.53742 5.89084 6.41733 6.10834 6.41733 6.37553H9.41733C9.41733 7.01848 9.13041 7.59634 8.68563 7.9943L6.68524 5.75858ZM6.41733 6.37553V0.708393H9.41733V6.37553H6.41733ZM6.41733 0.708393C6.41733 0.975586 6.53742 1.19308 6.68524 1.32535L8.68563 -0.910379C9.13041 -0.512415 9.41733 0.0654449 9.41733 0.708393H6.41733ZM6.68524 1.32535C6.82759 1.45271 6.98828 1.5 7.12559 1.5V-1.5C7.68287 -1.5 8.24631 -1.30345 8.68563 -0.910379L6.68524 1.32535ZM7.12559 1.5H0.791733V-1.5H7.12559V1.5ZM11.876 1.5C12.0133 1.5 12.174 1.45271 12.3163 1.32535L10.316 -0.910379C10.7553 -1.30345 11.3187 -1.5 11.876 -1.5V1.5ZM12.3163 1.32535C12.4642 1.19308 12.5843 0.97558 12.5843 0.708393H9.58426C9.58426 0.0654488 9.87117 -0.512413 10.316 -0.910379L12.3163 1.32535ZM12.5843 0.708393V6.37553H9.58426V0.708393H12.5843ZM12.5843 6.37553C12.5843 6.10834 12.4642 5.89085 12.3163 5.75858L10.316 7.9943C9.87117 7.59634 9.58426 7.01848 9.58426 6.37553H12.5843ZM12.3163 5.75858C12.174 5.63121 12.0133 5.58392 11.876 5.58392V8.58392C11.3187 8.58392 10.7553 8.38737 10.316 7.9943L12.3163 5.75858ZM11.876 5.58392H18.2083V8.58392H11.876V5.58392ZM18.2083 5.58392C18.071 5.58392 17.9103 5.63121 17.7679 5.75858L19.7683 7.9943C19.329 8.38737 18.7655 8.58392 18.2083 8.58392V5.58392ZM17.7679 5.75858C17.6201 5.89085 17.5 6.10834 17.5 6.37553H20.5C20.5 7.01848 20.2131 7.59634 19.7683 7.9943L17.7679 5.75858ZM17.5 6.37553V0.708393H20.5V6.37553H17.5ZM17.5 0.708393C17.5 0.97558 17.6201 1.19308 17.7679 1.32535L19.7683 -0.910379C20.2131 -0.512413 20.5 0.0654488 20.5 0.708393H17.5ZM17.7679 1.32535C17.9103 1.45271 18.071 1.5 18.2083 1.5V-1.5C18.7655 -1.5 19.329 -1.30345 19.7683 -0.910379L17.7679 1.32535ZM18.2083 1.5H11.876V-1.5H18.2083V1.5Z" fill="#455B65" mask="url(#path-1-inside-1_440_166)"/>
</svg>
