<svg width="18" height="20" viewBox="0 0 18 20" fill="none" xmlns="http://www.w3.org/2000/svg">
<path d="M17.25 3.6H14.25V1.6C14.25 0.7175 13.5773 0 12.75 0H5.25C4.42266 0 3.75 0.7175 3.75 1.6V3.6H0.75C0.335156 3.6 0 3.9575 0 4.4V5.2C0 5.31 0.084375 5.4 0.1875 5.4H1.60312L2.18203 18.475C2.21953 19.3275 2.88047 20 3.67969 20H14.3203C15.1219 20 15.7805 19.33 15.818 18.475L16.3969 5.4H17.8125C17.9156 5.4 18 5.31 18 5.2V4.4C18 3.9575 17.6648 3.6 17.25 3.6ZM12.5625 3.6H5.4375V1.8H12.5625V3.6Z" fill="#455B65"/>
</svg>
