<svg width="26" height="27" viewBox="0 0 26 27" fill="none" xmlns="http://www.w3.org/2000/svg">
<path d="M16.3968 24.201H2.35137C1.99296 24.201 1.64924 24.0587 1.39581 23.8052C1.14238 23.5518 1 23.2081 1 22.8497V4.18389C1 3.82548 1.14238 3.48176 1.39581 3.22833C1.64924 2.9749 1.99296 2.83252 2.35137 2.83252H4.34802M7.92103 2.83252H15.786M18.855 2.83252H21.0178C21.3762 2.83252 21.72 2.9749 21.9734 3.22833C22.2268 3.48176 22.3692 3.82548 22.3692 4.18389V16.7638" stroke="black" stroke-width="1.5"/>
<path d="M9.54741 10.3184H13.8204V14.5914H9.54741V10.3184ZM16.0522 10.3184H20.3252V14.5914H16.0522V10.3184ZM3.04395 10.3184H7.31697V14.5914H3.04395V10.3184ZM9.54741 16.9657H13.8204V21.2388H9.54741V16.9657ZM3.04395 16.9657H7.31697V21.2388H3.04395V16.9657ZM5.22573 1H6.8494C7.0286 1 7.20046 1.07119 7.32718 1.1979C7.4539 1.32462 7.52508 1.49648 7.52508 1.67568V5.08316C7.52508 5.26236 7.4539 5.43423 7.32718 5.56094C7.20046 5.68766 7.0286 5.75884 6.8494 5.75884H5.22573C5.04653 5.75884 4.87466 5.68766 4.74795 5.56094C4.62123 5.43423 4.55005 5.26236 4.55005 5.08316V1.67568C4.55005 1.49648 4.62123 1.32462 4.74795 1.1979C4.87466 1.07119 5.04653 1 5.22573 1V1ZM16.5191 1H18.1421C18.3213 1 18.4932 1.07119 18.6199 1.1979C18.7466 1.32462 18.8178 1.49648 18.8178 1.67568V5.08316C18.8178 5.26236 18.7466 5.43423 18.6199 5.56094C18.4932 5.68766 18.3213 5.75884 18.1421 5.75884H16.5191C16.3399 5.75884 16.1681 5.68766 16.0413 5.56094C15.9146 5.43423 15.8434 5.26236 15.8434 5.08316V1.67568C15.8434 1.49648 15.9146 1.32462 16.0413 1.1979C16.1681 1.07119 16.3399 1 16.5191 1V1Z" stroke="black" stroke-width="1.5"/>
<path d="M20.3246 26C22.9547 26 25.0868 23.8679 25.0868 21.2378C25.0868 18.6077 22.9547 16.4756 20.3246 16.4756C17.6945 16.4756 15.5624 18.6077 15.5624 21.2378C15.5624 23.8679 17.6945 26 20.3246 26Z" stroke="black" stroke-width="1.5"/>
<path d="M22.3746 24.2954L20.2658 22.8075L18.0502 24.1318L18.8138 21.6656L16.8691 19.9683L19.4503 19.9325L20.4638 17.5581L21.2949 20.0021L23.8665 20.2318L21.7989 21.7791L22.3746 24.2954Z" stroke="black" stroke-width="1.5"/>
<path d="M1.15405 8.25684H22.3739" stroke="black" stroke-width="1.5" stroke-miterlimit="5.571"/>
</svg>
