<svg width="38" height="38" viewBox="0 0 38 38" fill="none" xmlns="http://www.w3.org/2000/svg">
<path d="M19 35.625C14.5908 35.625 10.3621 33.8734 7.24435 30.7556C4.12656 27.6379 2.375 23.4092 2.375 19C2.375 14.5908 4.12656 10.3621 7.24435 7.24435C10.3621 4.12656 14.5908 2.375 19 2.375C23.4092 2.375 27.6379 4.12656 30.7556 7.24435C33.8734 10.3621 35.625 14.5908 35.625 19C35.625 23.4092 33.8734 27.6379 30.7556 30.7556C27.6379 33.8734 23.4092 35.625 19 35.625ZM19 38C24.0391 38 28.8718 35.9982 32.435 32.435C35.9982 28.8718 38 24.0391 38 19C38 13.9609 35.9982 9.12816 32.435 5.56497C28.8718 2.00178 24.0391 0 19 0C13.9609 0 9.12816 2.00178 5.56497 5.56497C2.00178 9.12816 0 13.9609 0 19C0 24.0391 2.00178 28.8718 5.56497 32.435C9.12816 35.9982 13.9609 38 19 38Z" fill="white"/>
<path d="M16.625 27.3125C16.625 26.9976 16.7501 26.6955 16.9728 26.4728C17.1955 26.2501 17.4976 26.125 17.8125 26.125H20.1875C20.5024 26.125 20.8045 26.2501 21.0272 26.4728C21.2499 26.6955 21.375 26.9976 21.375 27.3125C21.375 27.6274 21.2499 27.9295 21.0272 28.1522C20.8045 28.3749 20.5024 28.5 20.1875 28.5H17.8125C17.4976 28.5 17.1955 28.3749 16.9728 28.1522C16.7501 27.9295 16.625 27.6274 16.625 27.3125ZM11.875 20.1875C11.875 19.8726 12.0001 19.5705 12.2228 19.3478C12.4455 19.1251 12.7476 19 13.0625 19H24.9375C25.2524 19 25.5545 19.1251 25.7772 19.3478C25.9999 19.5705 26.125 19.8726 26.125 20.1875C26.125 20.5024 25.9999 20.8045 25.7772 21.0272C25.5545 21.2499 25.2524 21.375 24.9375 21.375H13.0625C12.7476 21.375 12.4455 21.2499 12.2228 21.0272C12.0001 20.8045 11.875 20.5024 11.875 20.1875ZM7.125 13.0625C7.125 12.7476 7.25011 12.4455 7.47281 12.2228C7.69551 12.0001 7.99756 11.875 8.3125 11.875H29.6875C30.0024 11.875 30.3045 12.0001 30.5272 12.2228C30.7499 12.4455 30.875 12.7476 30.875 13.0625C30.875 13.3774 30.7499 13.6795 30.5272 13.9022C30.3045 14.1249 30.0024 14.25 29.6875 14.25H8.3125C7.99756 14.25 7.69551 14.1249 7.47281 13.9022C7.25011 13.6795 7.125 13.3774 7.125 13.0625Z" fill="white"/>
</svg>
