<svg width="20" height="19" viewBox="0 0 20 19" fill="none" xmlns="http://www.w3.org/2000/svg">
<path fill-rule="evenodd" clip-rule="evenodd" d="M6 1H12V3H6V1ZM5 1V2.29297L6.70703 4H12H17V14.293L18 15.293V4C18 3.44775 17.5522 3 17 3H13V1C13 0.447754 12.5522 0 12 0H6C5.44775 0 5 0.447754 5 1ZM3.29289 3L2 1.70711L2.70711 1L19.7071 18L19 18.7071L17.2591 16.9662C17.1764 16.9882 17.0896 17 17 17H1C0.765625 17 0.549805 16.9189 0.378906 16.7837C0.147949 16.6006 0 16.3179 0 16V4C0 3.62402 0.20752 3.29639 0.51416 3.12598C0.658203 3.0459 0.82373 3 1 3H3.29289ZM16.2929 16H1V4H4.29289L16.2929 16Z" fill="black"/>
</svg>
