<svg width="197" height="197" viewBox="0 0 197 197" fill="none" xmlns="http://www.w3.org/2000/svg">
<path d="M177.261 157.005H164.211V157.103H177.261V157.005Z" fill="#EBEBEB"/>
<path d="M130.501 158.077H127.077V158.175H130.501V158.077Z" fill="#EBEBEB"/>
<path d="M163.817 153.349H156.256V153.447H163.817V153.349Z" fill="#EBEBEB"/>
<path d="M37.6861 154.011H20.6692V154.109H37.6861V154.011Z" fill="#EBEBEB"/>
<path d="M43.6907 154.011H41.1966V154.109H43.6907V154.011Z" fill="#EBEBEB"/>
<path d="M88.7091 155.673H51.7992V155.772H88.7091V155.673Z" fill="#EBEBEB"/>
<path d="M93.378 133.093H17.3045C16.7078 133.093 16.1356 132.856 15.7137 132.434C15.2918 132.012 15.0547 131.44 15.0547 130.843V23.9C15.0599 23.3067 15.2993 22.7395 15.7206 22.3219C16.1419 21.9042 16.7112 21.6699 17.3045 21.6699H93.378C93.9747 21.6699 94.5469 21.9069 94.9688 22.3289C95.3907 22.7508 95.6277 23.323 95.6277 23.9197V130.843C95.6277 131.44 95.3907 132.012 94.9688 132.434C94.5469 132.856 93.9747 133.093 93.378 133.093ZM17.3045 21.7487C16.7343 21.7498 16.1877 21.9767 15.7845 22.38C15.3813 22.7832 15.1543 23.3297 15.1532 23.9V130.843C15.1543 131.414 15.3813 131.96 15.7845 132.363C16.1877 132.767 16.7343 132.994 17.3045 132.995H93.378C93.9482 132.994 94.4948 132.767 94.898 132.363C95.3012 131.96 95.5282 131.414 95.5292 130.843V23.9C95.5282 23.3297 95.3012 22.7832 94.898 22.38C94.4948 21.9767 93.9482 21.7498 93.378 21.7487H17.3045Z" fill="#EBEBEB"/>
<path d="M178.604 133.093H102.523C101.926 133.092 101.355 132.855 100.933 132.433C100.511 132.011 100.274 131.44 100.273 130.843V23.9C100.279 23.307 100.519 22.7405 100.94 22.323C101.361 21.9056 101.93 21.6709 102.523 21.6699H178.604C179.196 21.672 179.763 21.9072 180.183 22.3246C180.603 22.7421 180.841 23.3081 180.846 23.9V130.843C180.846 131.439 180.61 132.01 180.19 132.431C179.77 132.853 179.199 133.091 178.604 133.093ZM102.523 21.7487C101.953 21.7498 101.406 21.9767 101.003 22.38C100.6 22.7832 100.373 23.3297 100.372 23.9V130.843C100.373 131.414 100.6 131.96 101.003 132.363C101.406 132.767 101.953 132.994 102.523 132.995H178.604C179.174 132.994 179.721 132.767 180.124 132.363C180.527 131.96 180.754 131.414 180.755 130.843V23.9C180.754 23.3297 180.527 22.7832 180.124 22.38C179.721 21.9767 179.174 21.7498 178.604 21.7487H102.523Z" fill="#EBEBEB"/>
<path d="M197 150.666H0V150.764H197V150.666Z" fill="#EBEBEB"/>
<path d="M69.5765 82.6018H78.4375L71.3061 42.1538H62.4451L69.5765 82.6018Z" fill="#FAFAFA"/>
<path d="M64.419 82.6018H66.8066L59.6752 42.1538H57.2876L64.419 82.6018Z" fill="#FAFAFA"/>
<path d="M38.4899 83.3033H40.9445L33.6161 41.7363H31.1615L38.4899 83.3033Z" fill="#FAFAFA"/>
<path d="M43.3833 83.3033H48.0089L40.6805 41.7363H36.051L43.3833 83.3033Z" fill="#FAFAFA"/>
<path d="M55.7746 41.5273H84.7297V83.2913H55.7746V41.5273ZM82.4406 43.8165H58.0638V81.018H82.4406V43.8165Z" fill="#E6E6E6"/>
<path d="M25.673 40.3809H85.892V84.4537H25.673V40.3809ZM83.591 42.6739H27.974V82.1606H83.5871L83.591 42.6739Z" fill="#F5F5F5"/>
<path d="M149.515 54.6715V38.2378H128.164V54.6715H149.515Z" fill="#F5F5F5"/>
<path d="M147.872 53.4067V39.4985H129.803V53.4067H147.872Z" fill="#EBEBEB"/>
<path d="M146.741 52.5359V40.3691H130.934V52.5359H146.741Z" fill="#FAFAFA"/>
<path d="M141.71 48.3871C143.518 48.3871 144.984 46.9213 144.984 45.113C144.984 43.3047 143.518 41.8389 141.71 41.8389C139.902 41.8389 138.436 43.3047 138.436 45.113C138.436 46.9213 139.902 48.3871 141.71 48.3871Z" fill="#F0F0F0"/>
<path d="M136.816 50.412C138.625 50.412 140.091 48.9462 140.091 47.1379C140.091 45.3297 138.625 43.8638 136.816 43.8638C135.008 43.8638 133.542 45.3297 133.542 47.1379C133.542 48.9462 135.008 50.412 136.816 50.412Z" fill="#F5F5F5"/>
<path d="M161.654 43.4307H151.875V56.1332H161.654V43.4307Z" fill="#E0E0E0"/>
<path d="M160.898 44.4077H152.624V55.156H160.898V44.4077Z" fill="#F0F0F0"/>
<path d="M159.432 46.3105H154.089V53.2528H159.432V46.3105Z" fill="#FAFAFA"/>
<path d="M120.718 53.7533C123.294 53.7533 125.383 50.6945 125.383 46.9213C125.383 43.1481 123.294 40.0894 120.718 40.0894C118.141 40.0894 116.053 43.1481 116.053 46.9213C116.053 50.6945 118.141 53.7533 120.718 53.7533Z" fill="#F5F5F5"/>
<path d="M120.718 51.858C122.578 51.858 124.086 49.6477 124.086 46.9212C124.086 44.1947 122.578 41.9844 120.718 41.9844C118.857 41.9844 117.349 44.1947 117.349 46.9212C117.349 49.6477 118.857 51.858 120.718 51.858Z" fill="#EBEBEB"/>
<path d="M120.718 50.4123C122.034 50.4123 123.101 48.8494 123.101 46.9215C123.101 44.9936 122.034 43.4307 120.718 43.4307C119.401 43.4307 118.334 44.9936 118.334 46.9215C118.334 48.8494 119.401 50.4123 120.718 50.4123Z" fill="#FAFAFA"/>
<path d="M96.6009 166.942C138.791 166.942 172.994 164.945 172.994 162.482C172.994 160.018 138.791 158.021 96.6009 158.021C54.4104 158.021 20.2083 160.018 20.2083 162.482C20.2083 164.945 54.4104 166.942 96.6009 166.942Z" fill="#F5F5F5"/>
<path d="M156.855 162.229H95.482L94.7255 160.161H156.855V162.229Z" fill="#263238"/>
<path opacity="0.2" d="M156.855 162.229H95.482L94.7255 160.161H156.855V162.229Z" fill="white"/>
<path d="M169.684 162.229H156.855V160.161H170.437L169.684 162.229Z" fill="#263238"/>
<path d="M173.986 132.207H162.103V160.33H173.986V132.207Z" fill="#455A64"/>
<path opacity="0.5" d="M173.986 132.207H162.103V160.33H173.986V132.207Z" fill="white"/>
<path d="M162.907 132.207H91.8493V160.33H162.907V132.207Z" fill="#455A64"/>
<path opacity="0.7" d="M162.907 132.207H91.8493V160.33H162.907V132.207Z" fill="white"/>
<path opacity="0.8" d="M114.26 134.476L114.173 135.106C114.126 135.433 113.693 135.682 113.173 135.682H107.207C106.687 135.682 106.254 135.433 106.211 135.106L106.12 134.476H94.4063V141.891H125.97V134.476H114.26Z" fill="white"/>
<path opacity="0.8" d="M114.26 142.699L114.173 143.333C114.126 143.656 113.693 143.908 113.173 143.908H107.207C106.687 143.908 106.254 143.656 106.211 143.333L106.12 142.699H94.4063V150.114H125.97V142.699H114.26Z" fill="white"/>
<path opacity="0.8" d="M114.26 150.925L114.173 151.556C114.126 151.883 113.693 152.135 113.173 152.135H107.207C106.687 152.135 106.254 151.883 106.211 151.556L106.12 150.925H94.4063V158.34H125.97V150.925H114.26Z" fill="white"/>
<path opacity="0.8" d="M148.183 134.476L148.097 135.106C148.049 135.433 147.616 135.682 147.096 135.682H141.139C140.619 135.682 140.185 135.433 140.142 135.106L140.051 134.476H128.338V141.891H159.901V134.476H148.183Z" fill="white"/>
<path opacity="0.8" d="M148.183 142.699L148.097 143.333C148.049 143.656 147.616 143.908 147.096 143.908H141.139C140.619 143.908 140.185 143.656 140.142 143.333L140.051 142.699H128.338V150.114H159.901V142.699H148.183Z" fill="white"/>
<path opacity="0.8" d="M148.183 150.925L148.097 151.556C148.049 151.883 147.616 152.135 147.096 152.135H141.139C140.619 152.135 140.185 151.883 140.142 151.556L140.051 150.925H128.338V158.34H159.901V150.925H148.183Z" fill="white"/>
<path d="M167.32 128.125H107.432C107.042 128.131 106.654 128.054 106.296 127.899C105.937 127.744 105.616 127.515 105.353 127.227C105.089 126.939 104.89 126.598 104.768 126.227C104.647 125.856 104.605 125.463 104.646 125.075L108.389 82.3458C108.473 81.5192 108.857 80.7519 109.468 80.1892C110.08 79.6265 110.876 79.3074 111.707 79.2923H171.595C171.986 79.2862 172.373 79.3631 172.732 79.5181C173.091 79.6731 173.413 79.9025 173.676 80.1912C173.939 80.48 174.138 80.8213 174.26 81.1928C174.381 81.5643 174.422 81.9573 174.38 82.3458L170.641 125.079C170.556 125.905 170.171 126.671 169.559 127.232C168.947 127.793 168.15 128.111 167.32 128.125Z" fill="#263238"/>
<path opacity="0.4" d="M167.32 128.125H107.432C107.042 128.131 106.654 128.054 106.296 127.899C105.937 127.744 105.616 127.515 105.353 127.227C105.089 126.939 104.89 126.598 104.768 126.227C104.647 125.856 104.605 125.463 104.646 125.075L108.389 82.3458C108.473 81.5192 108.857 80.7519 109.468 80.1892C110.08 79.6265 110.876 79.3074 111.707 79.2923H171.595C171.986 79.2862 172.373 79.3631 172.732 79.5181C173.091 79.6731 173.413 79.9025 173.676 80.1912C173.939 80.48 174.138 80.8213 174.26 81.1928C174.381 81.5643 174.422 81.9573 174.38 82.3458L170.641 125.079C170.556 125.905 170.171 126.671 169.559 127.232C168.947 127.793 168.15 128.111 167.32 128.125Z" fill="white"/>
<path d="M166.233 128.125H106.345C105.954 128.131 105.567 128.054 105.208 127.899C104.85 127.744 104.528 127.515 104.265 127.227C104.002 126.939 103.803 126.598 103.681 126.227C103.559 125.856 103.518 125.463 103.559 125.075L107.302 82.3458C107.386 81.5192 107.77 80.7519 108.381 80.1892C108.992 79.6265 109.789 79.3074 110.619 79.2923H170.507C170.898 79.2862 171.286 79.3631 171.645 79.5181C172.003 79.6731 172.325 79.9025 172.588 80.1912C172.852 80.48 173.051 80.8213 173.172 81.1928C173.294 81.5643 173.335 81.9573 173.293 82.3458L169.554 125.079C169.468 125.905 169.083 126.671 168.471 127.232C167.859 127.793 167.063 128.111 166.233 128.125Z" fill="#263238"/>
<path opacity="0.7" d="M166.233 128.125H106.345C105.954 128.131 105.567 128.054 105.208 127.899C104.85 127.744 104.528 127.515 104.265 127.227C104.002 126.939 103.803 126.598 103.681 126.227C103.559 125.856 103.518 125.463 103.559 125.075L107.302 82.3458C107.386 81.5192 107.77 80.7519 108.381 80.1892C108.992 79.6265 109.789 79.3074 110.619 79.2923H170.507C170.898 79.2862 171.286 79.3631 171.645 79.5181C172.003 79.6731 172.325 79.9025 172.588 80.1912C172.852 80.48 173.051 80.8213 173.172 81.1928C173.294 81.5643 173.335 81.9573 173.293 82.3458L169.554 125.079C169.468 125.905 169.083 126.671 168.471 127.232C167.859 127.793 167.063 128.111 166.233 128.125Z" fill="white"/>
<path d="M167.139 125.071H105.978L109.713 82.3418H170.874L167.139 125.071Z" fill="#455A64"/>
<path opacity="0.5" d="M167.139 125.071H105.978L109.713 82.3418H170.874L167.139 125.071Z" fill="white"/>
<path d="M99.7884 127.309H170.708V128.077C170.708 129.174 170.273 130.225 169.498 131C168.723 131.775 167.671 132.21 166.575 132.21H103.921C102.825 132.21 101.774 131.775 100.999 131C100.224 130.225 99.7884 129.174 99.7884 128.077V127.309Z" fill="#263238"/>
<path opacity="0.2" d="M99.7884 127.309H170.708V128.077C170.708 129.174 170.273 130.225 169.498 131C168.723 131.775 167.671 132.21 166.575 132.21H103.921C102.825 132.21 101.774 131.775 100.999 131C100.224 130.225 99.7884 129.174 99.7884 128.077V127.309Z" fill="white"/>
<path d="M94.8397 127.309H165.76V128.077C165.76 128.62 165.653 129.158 165.445 129.659C165.237 130.16 164.933 130.616 164.549 131C164.165 131.384 163.71 131.688 163.208 131.896C162.707 132.104 162.169 132.21 161.627 132.21H98.9767C97.8806 132.21 96.8293 131.775 96.0542 131C95.2791 130.225 94.8437 129.174 94.8437 128.077V127.309H94.8397Z" fill="#263238"/>
<path opacity="0.5" d="M94.8397 127.309H165.76V128.077C165.76 128.62 165.653 129.158 165.445 129.659C165.237 130.16 164.933 130.616 164.549 131C164.165 131.384 163.71 131.688 163.208 131.896C162.707 132.104 162.169 132.21 161.627 132.21H98.9767C97.8806 132.21 96.8293 131.775 96.0542 131C95.2791 130.225 94.8437 129.174 94.8437 128.077V127.309H94.8397Z" fill="white"/>
<path opacity="0.3" d="M123.952 127.309C124.202 127.743 124.562 128.103 124.996 128.354C125.43 128.604 125.922 128.736 126.423 128.735H134.196C134.697 128.735 135.189 128.604 135.623 128.353C136.056 128.103 136.416 127.743 136.667 127.309H123.952Z" fill="black"/>
<path d="M163.758 117.018H98.894C98.6499 117.022 98.4077 116.974 98.1836 116.878C97.9594 116.781 97.7585 116.638 97.594 116.457C97.4296 116.277 97.3056 116.064 97.2301 115.831C97.1547 115.599 97.1295 115.354 97.1565 115.111L101.014 70.92C101.066 70.4045 101.305 69.9261 101.686 69.5753C102.068 69.2246 102.564 69.0259 103.082 69.0169H167.954C168.198 69.0121 168.44 69.0593 168.664 69.1556C168.889 69.2518 169.09 69.3947 169.254 69.5749C169.419 69.755 169.543 69.9682 169.618 70.2002C169.694 70.4321 169.719 70.6775 169.692 70.92L165.827 115.095C165.778 115.614 165.541 116.097 165.159 116.451C164.778 116.806 164.279 117.008 163.758 117.018Z" fill="#455A64"/>
<path opacity="0.8" d="M163.758 117.018H98.894C98.6499 117.022 98.4077 116.974 98.1836 116.878C97.9594 116.781 97.7585 116.638 97.594 116.457C97.4296 116.277 97.3056 116.064 97.2301 115.831C97.1547 115.599 97.1295 115.354 97.1565 115.111L101.014 70.92C101.066 70.4045 101.305 69.9261 101.686 69.5753C102.068 69.2246 102.564 69.0259 103.082 69.0169H167.954C168.198 69.0121 168.44 69.0593 168.664 69.1556C168.889 69.2518 169.09 69.3947 169.254 69.5749C169.419 69.755 169.543 69.9682 169.618 70.2002C169.694 70.4321 169.719 70.6775 169.692 70.92L165.827 115.095C165.778 115.614 165.541 116.097 165.159 116.451C164.778 116.806 164.279 117.008 163.758 117.018Z" fill="white"/>
<path d="M167.954 69.0326H103.082C102.564 69.0415 102.068 69.2402 101.686 69.591C101.305 69.9417 101.066 70.4201 101.014 70.9356L100.817 73.1538H169.499L169.692 70.9356C169.719 70.6931 169.694 70.4477 169.618 70.2158C169.543 69.9838 169.419 69.7706 169.254 69.5905C169.09 69.4104 168.889 69.2674 168.664 69.1712C168.44 69.075 168.198 69.0277 167.954 69.0326Z" fill="#455A64"/>
<path opacity="0.3" d="M167.954 69.0326H103.082C102.564 69.0415 102.068 69.2402 101.686 69.591C101.305 69.9417 101.066 70.4201 101.014 70.9356L100.817 73.1538H169.499L169.692 70.9356C169.719 70.6931 169.694 70.4477 169.618 70.2158C169.543 69.9838 169.419 69.7706 169.254 69.5905C169.09 69.4104 168.889 69.2674 168.664 69.1712C168.44 69.075 168.198 69.0277 167.954 69.0326Z" fill="white"/>
<path d="M104.902 71.0933C104.876 71.3079 104.773 71.5058 104.612 71.6505C104.452 71.7953 104.244 71.8772 104.028 71.8813C103.927 71.8822 103.827 71.862 103.734 71.8219C103.641 71.7818 103.558 71.7228 103.489 71.6486C103.42 71.5744 103.368 71.4867 103.335 71.391C103.302 71.2954 103.29 71.194 103.299 71.0933C103.324 70.8786 103.426 70.6803 103.586 70.5354C103.746 70.3904 103.954 70.3086 104.17 70.3053C104.271 70.3038 104.372 70.3236 104.465 70.3634C104.558 70.4032 104.642 70.4622 104.711 70.5364C104.78 70.6107 104.833 70.6986 104.866 70.7945C104.899 70.8905 104.911 70.9922 104.902 71.0933Z" fill="#455A64"/>
<path d="M107.688 71.0933C107.662 71.3076 107.56 71.5054 107.4 71.6503C107.24 71.7951 107.033 71.8772 106.817 71.8813C106.716 71.8828 106.615 71.863 106.522 71.8232C106.429 71.7834 106.345 71.7244 106.276 71.6502C106.207 71.5759 106.154 71.488 106.121 71.392C106.088 71.2961 106.076 71.1944 106.085 71.0933C106.11 70.879 106.212 70.6812 106.372 70.5364C106.532 70.3916 106.739 70.3095 106.955 70.3053C107.057 70.3032 107.158 70.3226 107.251 70.3622C107.345 70.4018 107.429 70.4608 107.498 70.5352C107.567 70.6096 107.62 70.6978 107.653 70.794C107.686 70.8901 107.698 70.9922 107.688 71.0933Z" fill="#455A64"/>
<path d="M110.478 71.0933C110.451 71.3079 110.348 71.5058 110.187 71.6505C110.027 71.7953 109.819 71.8772 109.603 71.8813C109.502 71.8822 109.402 71.862 109.309 71.8219C109.216 71.7818 109.133 71.7228 109.064 71.6486C108.995 71.5744 108.943 71.4867 108.91 71.391C108.878 71.2954 108.865 71.194 108.874 71.0933C108.898 70.8783 109 70.6795 109.16 70.5344C109.321 70.3893 109.528 70.3078 109.745 70.3053C109.846 70.3038 109.947 70.3236 110.04 70.3634C110.133 70.4032 110.217 70.4622 110.286 70.5364C110.355 70.6107 110.408 70.6986 110.441 70.7945C110.474 70.8905 110.486 70.9922 110.478 71.0933Z" fill="#455A64"/>
<path d="M126.19 104.245H140.035C140.477 104.245 140.536 103.559 140.095 103.559H126.249C125.808 103.559 125.749 104.245 126.19 104.245Z" fill="#263238"/>
<path d="M125.942 107.077H137.762C138.203 107.077 138.266 106.392 137.821 106.392H126.001C125.556 106.392 125.497 107.077 125.938 107.077H125.942Z" fill="#263238"/>
<path d="M125.686 109.926H138.952C139.393 109.926 139.452 109.24 139.011 109.24H125.757C125.312 109.24 125.253 109.926 125.694 109.926H125.686Z" fill="#263238"/>
<path d="M125.446 112.743H137.841C138.282 112.743 138.345 112.054 137.9 112.054H125.509C125.063 112.054 125.004 112.743 125.446 112.743Z" fill="#263238"/>
<path d="M106.597 104.245H120.229C120.67 104.245 120.733 103.559 120.288 103.559H106.66C106.215 103.559 106.155 104.245 106.597 104.245Z" fill="#263238"/>
<path d="M106.348 107.077H119.981C120.426 107.077 120.485 106.392 120.044 106.392H106.412C105.966 106.392 105.907 107.077 106.348 107.077Z" fill="#263238"/>
<path d="M106.104 109.926H121.47C121.911 109.926 121.971 109.24 121.529 109.24H106.163C105.722 109.24 105.659 109.926 106.104 109.926Z" fill="#263238"/>
<path d="M105.856 112.743H118.346C118.791 112.743 118.85 112.054 118.409 112.054H105.915C105.474 112.054 105.411 112.743 105.856 112.743Z" fill="#263238"/>
<path d="M107.093 98.5786H120.726C121.167 98.5786 121.23 97.8931 120.785 97.8931H107.168C106.727 97.8931 106.668 98.5786 107.109 98.5786H107.093Z" fill="#263238"/>
<path d="M106.845 101.412H121.636C122.077 101.412 122.14 100.726 121.699 100.726H106.908C106.463 100.726 106.404 101.412 106.845 101.412Z" fill="#263238"/>
<path d="M144.255 104.245H158.388C158.833 104.245 158.892 103.559 158.451 103.559H144.318C143.873 103.559 143.814 104.245 144.255 104.245Z" fill="#263238"/>
<path d="M144.007 107.077H156.694C157.135 107.077 157.194 106.392 156.753 106.392H144.07C143.625 106.392 143.566 107.077 144.007 107.077Z" fill="#263238"/>
<path d="M143.763 109.926H157.312C157.758 109.926 157.817 109.24 157.375 109.24H143.81C143.369 109.24 143.306 109.926 143.751 109.926H143.763Z" fill="#263238"/>
<path d="M143.515 112.743H156.485C156.93 112.743 156.989 112.054 156.548 112.054H143.574C143.132 112.054 143.069 112.743 143.515 112.743Z" fill="#263238"/>
<path d="M108.464 82.9214H123.83C124.421 82.9214 124.5 82.0034 123.909 82.0034H108.543C107.956 82.0034 107.873 82.9214 108.464 82.9214Z" fill="#263238"/>
<path d="M108.216 85.754H122.14C122.731 85.754 122.814 84.8359 122.223 84.8359H108.295C107.708 84.8359 107.625 85.754 108.216 85.754Z" fill="#263238"/>
<path d="M107.956 88.587H122.179C122.77 88.587 122.849 87.6689 122.258 87.6689H108.047C107.46 87.6689 107.377 88.587 107.968 88.587H107.956Z" fill="#263238"/>
<path d="M107.72 91.4078H119.614C120.205 91.4078 120.284 90.4897 119.693 90.4897H107.802C107.211 90.4897 107.129 91.4078 107.72 91.4078Z" fill="#263238"/>
<g opacity="0.2">
<path d="M108.464 82.9214H123.83C124.421 82.9214 124.5 82.0034 123.909 82.0034H108.543C107.956 82.0034 107.873 82.9214 108.464 82.9214Z" fill="white"/>
<path d="M108.216 85.7544H122.14C122.731 85.7544 122.814 84.8364 122.223 84.8364H108.295C107.708 84.8364 107.625 85.7544 108.216 85.7544Z" fill="white"/>
<path d="M107.956 88.587H122.179C122.77 88.587 122.849 87.6689 122.258 87.6689H108.047C107.46 87.6689 107.377 88.587 107.968 88.587H107.956Z" fill="white"/>
<path d="M107.72 91.4083H119.614C120.205 91.4083 120.284 90.4902 119.693 90.4902H107.802C107.211 90.4902 107.129 91.4083 107.72 91.4083Z" fill="white"/>
</g>
<g opacity="0.2">
<path d="M126.19 104.245H140.035C140.477 104.245 140.536 103.559 140.095 103.559H126.249C125.808 103.559 125.749 104.245 126.19 104.245Z" fill="white"/>
</g>
<g opacity="0.2">
<path d="M125.942 107.077H137.762C138.203 107.077 138.266 106.392 137.821 106.392H126.001C125.556 106.392 125.497 107.077 125.938 107.077H125.942Z" fill="white"/>
</g>
<g opacity="0.2">
<path d="M125.686 109.926H138.952C139.393 109.926 139.452 109.24 139.011 109.24H125.757C125.312 109.24 125.253 109.926 125.694 109.926H125.686Z" fill="white"/>
</g>
<g opacity="0.2">
<path d="M125.446 112.743H137.841C138.282 112.743 138.345 112.054 137.9 112.054H125.509C125.063 112.054 125.004 112.743 125.446 112.743Z" fill="white"/>
</g>
<g opacity="0.2">
<path d="M106.597 104.245H120.229C120.67 104.245 120.733 103.559 120.288 103.559H106.66C106.215 103.559 106.155 104.245 106.597 104.245Z" fill="white"/>
</g>
<g opacity="0.2">
<path d="M106.348 107.077H119.981C120.426 107.077 120.485 106.392 120.044 106.392H106.412C105.966 106.392 105.907 107.077 106.348 107.077Z" fill="white"/>
</g>
<g opacity="0.2">
<path d="M106.104 109.926H121.47C121.911 109.926 121.971 109.24 121.529 109.24H106.163C105.722 109.24 105.659 109.926 106.104 109.926Z" fill="white"/>
</g>
<g opacity="0.2">
<path d="M105.856 112.743H118.346C118.791 112.743 118.85 112.054 118.409 112.054H105.915C105.474 112.054 105.411 112.743 105.856 112.743Z" fill="white"/>
</g>
<g opacity="0.2">
<path d="M107.093 98.5786H120.726C121.167 98.5786 121.23 97.8931 120.785 97.8931H107.168C106.727 97.8931 106.668 98.5786 107.109 98.5786H107.093Z" fill="white"/>
</g>
<g opacity="0.2">
<path d="M106.845 101.412H121.636C122.077 101.412 122.14 100.726 121.699 100.726H106.908C106.463 100.726 106.404 101.412 106.845 101.412Z" fill="white"/>
</g>
<g opacity="0.2">
<path d="M144.255 104.245H158.388C158.833 104.245 158.892 103.559 158.451 103.559H144.318C143.873 103.559 143.814 104.245 144.255 104.245Z" fill="white"/>
</g>
<g opacity="0.2">
<path d="M144.007 107.077H156.694C157.135 107.077 157.194 106.392 156.753 106.392H144.07C143.625 106.392 143.566 107.077 144.007 107.077Z" fill="white"/>
</g>
<g opacity="0.2">
<path d="M143.763 109.926H157.312C157.758 109.926 157.817 109.24 157.375 109.24H143.81C143.369 109.24 143.306 109.926 143.751 109.926H143.763Z" fill="white"/>
</g>
<g opacity="0.2">
<path d="M143.515 112.743H156.485C156.93 112.743 156.989 112.054 156.548 112.054H143.574C143.132 112.054 143.069 112.743 143.515 112.743Z" fill="white"/>
</g>
<path opacity="0.5" d="M126.163 101.069H158.668L160.401 81.2388H127.9L126.163 101.069Z" fill="white"/>
<path d="M137.372 87.6689L127.963 101.069H144.436L137.372 87.6689Z" fill="#455A64"/>
<path opacity="0.2" d="M137.372 87.6689L127.963 101.069H144.436L137.372 87.6689Z" fill="white"/>
<path d="M148.613 84.3633L136.883 101.069H157.419L148.613 84.3633Z" fill="#455A64"/>
<path opacity="0.6" d="M148.613 84.3633L136.883 101.069H157.419L148.613 84.3633Z" fill="white"/>
<path d="M144.633 85.2933C144.579 85.8356 144.328 86.3391 143.927 86.7081C143.526 87.0771 143.003 87.2859 142.459 87.2948C142.202 87.2992 141.948 87.2489 141.713 87.1474C141.478 87.0459 141.267 86.8955 141.094 86.7061C140.922 86.5168 140.792 86.2929 140.712 86.0493C140.633 85.8057 140.606 85.548 140.634 85.2933C140.69 84.7521 140.942 84.25 141.343 83.882C141.744 83.5139 142.265 83.3054 142.809 83.2957C143.065 83.2908 143.319 83.3406 143.554 83.4416C143.79 83.5427 144.001 83.6927 144.173 83.8818C144.346 84.0708 144.476 84.2945 144.556 84.5379C144.635 84.7813 144.662 85.0388 144.633 85.2933Z" fill="#455A64"/>
<path opacity="0.2" d="M144.633 85.2933C144.579 85.8356 144.328 86.3391 143.927 86.7081C143.526 87.0771 143.003 87.2859 142.459 87.2948C142.202 87.2992 141.948 87.2489 141.713 87.1474C141.478 87.0459 141.267 86.8955 141.094 86.7061C140.922 86.5168 140.792 86.2929 140.712 86.0493C140.633 85.8057 140.606 85.548 140.634 85.2933C140.69 84.7521 140.942 84.25 141.343 83.882C141.744 83.5139 142.265 83.3054 142.809 83.2957C143.065 83.2908 143.319 83.3406 143.554 83.4416C143.79 83.5427 144.001 83.6927 144.173 83.8818C144.346 84.0708 144.476 84.2945 144.556 84.5379C144.635 84.7813 144.662 85.0388 144.633 85.2933Z" fill="white"/>
<path d="M144.346 121.253H117.554C117.302 121.258 117.053 121.209 116.822 121.109C116.591 121.009 116.384 120.86 116.215 120.674C116.046 120.487 115.92 120.266 115.843 120.026C115.767 119.787 115.743 119.533 115.773 119.283L115.962 117.097C116.012 116.565 116.257 116.07 116.648 115.707C117.04 115.343 117.552 115.137 118.086 115.127H144.878C145.129 115.122 145.379 115.172 145.61 115.272C145.841 115.372 146.048 115.52 146.216 115.707C146.385 115.893 146.512 116.114 146.588 116.354C146.664 116.594 146.689 116.847 146.659 117.097L146.466 119.283C146.415 119.815 146.172 120.309 145.781 120.672C145.39 121.035 144.879 121.242 144.346 121.253Z" fill="#455A64"/>
<path d="M32.6587 130.56H47.54L44.459 109.583C43.6828 104.288 39.006 100.076 33.9313 100.076H30.074C24.9954 100.076 21.3587 104.3 21.8828 109.595L23.0648 121.415L32.6587 130.56Z" fill="#455A64"/>
<path opacity="0.1" d="M32.6587 130.56H47.54L44.459 109.583C43.6828 104.288 39.006 100.076 33.9313 100.076H30.074C24.9954 100.076 21.3587 104.3 21.8828 109.595L23.0648 121.415L32.6587 130.56Z" fill="white"/>
<path d="M51.9253 130.56H28.3404L26.268 109.583C25.7479 104.288 29.3806 100.076 34.4632 100.076H38.3165C43.3991 100.076 48.0719 104.3 48.8481 109.595L51.9253 130.56Z" fill="#455A64"/>
<path opacity="0.3" d="M51.9253 130.56H28.3404L26.268 109.583C25.7479 104.288 29.3806 100.076 34.4632 100.076H38.3165C43.3991 100.076 48.0719 104.3 48.8481 109.595L51.9253 130.56Z" fill="white"/>
<path d="M48.2138 137.766C53.5013 137.731 58.7966 135.402 62.1653 131.277C64.9282 127.954 66.4591 123.779 66.4993 119.457C66.4993 117.782 65.0179 116.179 63.3 116.258H53.3673C52.5235 116.273 51.7186 116.615 51.1218 117.212C50.5251 117.808 50.1832 118.613 50.168 119.457C50.168 119.815 50.168 120.174 50.1286 120.537C50.1286 120.737 49.9868 121.522 50.0577 121.175C49.9303 121.889 49.7593 122.594 49.5455 123.287C49.4628 123.539 49.3682 123.791 49.2736 124.039C49.3288 123.882 49.0648 124.496 48.986 124.654C48.6562 125.292 48.2864 125.91 47.8789 126.502C47.8789 126.529 47.8198 126.588 47.7804 126.647C47.741 126.707 47.6425 126.825 47.611 126.86C47.3943 127.116 47.1736 127.368 46.9412 127.613C46.7087 127.857 46.4093 128.153 46.1295 128.401L45.7355 128.732L45.4164 128.984C45.2391 129.106 44.9278 129.323 44.8608 129.378C44.5772 129.563 44.2895 129.74 43.994 129.906C43.6985 130.071 43.4858 130.174 43.2297 130.3C42.7017 130.024 42.1698 129.768 41.6537 129.445C41.3661 129.264 41.0981 129.051 40.8184 128.87C41.4133 129.264 40.645 128.724 40.4796 128.578C39.9164 128.078 39.3897 127.538 38.9036 126.963L38.7735 126.797C38.8523 126.892 38.5332 126.474 38.4859 126.403C38.2692 126.092 38.0643 125.769 37.8752 125.438C37.6861 125.107 37.4812 124.772 37.3354 124.429C37.2606 124.276 37.1936 124.118 37.1227 123.964C37.4536 124.654 37.1227 123.893 37.0596 123.779C36.7941 123.046 36.5846 122.294 36.4332 121.529C36.4017 121.356 36.382 121.179 36.3426 121.009C36.508 121.77 36.3426 120.95 36.3426 120.804C36.3032 120.359 36.2874 119.91 36.2835 119.461C36.2835 117.786 34.8217 116.183 33.0842 116.262H23.1278C22.2834 116.275 21.4773 116.616 20.8802 117.213C20.283 117.81 19.9417 118.617 19.9285 119.461C19.9663 123.234 21.1518 126.906 23.3273 129.988C25.5027 133.071 28.5651 135.418 32.1071 136.718C34.1416 137.472 36.3009 137.833 38.4702 137.782L48.2138 137.766Z" fill="#455A64"/>
<path opacity="0.4" d="M48.2138 137.766C53.5013 137.731 58.7966 135.402 62.1653 131.277C64.9282 127.954 66.4591 123.779 66.4993 119.457C66.4993 117.782 65.0179 116.179 63.3 116.258H53.3673C52.5235 116.273 51.7186 116.615 51.1218 117.212C50.5251 117.808 50.1832 118.613 50.168 119.457C50.168 119.815 50.168 120.174 50.1286 120.537C50.1286 120.737 49.9868 121.522 50.0577 121.175C49.9303 121.889 49.7593 122.594 49.5455 123.287C49.4628 123.539 49.3682 123.791 49.2736 124.039C49.3288 123.882 49.0648 124.496 48.986 124.654C48.6562 125.292 48.2864 125.91 47.8789 126.502C47.8789 126.529 47.8198 126.588 47.7804 126.647C47.741 126.707 47.6425 126.825 47.611 126.86C47.3943 127.116 47.1736 127.368 46.9412 127.613C46.7087 127.857 46.4093 128.153 46.1295 128.401L45.7355 128.732L45.4164 128.984C45.2391 129.106 44.9278 129.323 44.8608 129.378C44.5772 129.563 44.2895 129.74 43.994 129.906C43.6985 130.071 43.4858 130.174 43.2297 130.3C42.7017 130.024 42.1698 129.768 41.6537 129.445C41.3661 129.264 41.0981 129.051 40.8184 128.87C41.4133 129.264 40.645 128.724 40.4796 128.578C39.9164 128.078 39.3897 127.538 38.9036 126.963L38.7735 126.797C38.8523 126.892 38.5332 126.474 38.4859 126.403C38.2692 126.092 38.0643 125.769 37.8752 125.438C37.6861 125.107 37.4812 124.772 37.3354 124.429C37.2606 124.276 37.1936 124.118 37.1227 123.964C37.4536 124.654 37.1227 123.893 37.0596 123.779C36.7941 123.046 36.5846 122.294 36.4332 121.529C36.4017 121.356 36.382 121.179 36.3426 121.009C36.508 121.77 36.3426 120.95 36.3426 120.804C36.3032 120.359 36.2874 119.91 36.2835 119.461C36.2835 117.786 34.8217 116.183 33.0842 116.262H23.1278C22.2834 116.275 21.4773 116.616 20.8802 117.213C20.283 117.81 19.9417 118.617 19.9285 119.461C19.9663 123.234 21.1518 126.906 23.3273 129.988C25.5027 133.071 28.5651 135.418 32.1071 136.718C34.1416 137.472 36.3009 137.833 38.4702 137.782L48.2138 137.766Z" fill="white"/>
<path d="M60.1165 119.449C60.1165 119.808 60.1165 120.166 60.0811 120.529C60.0811 120.753 59.9038 121.711 60.0417 120.997C59.9086 121.769 59.7256 122.531 59.494 123.279C59.3876 123.606 59.2694 123.925 59.1433 124.244C59.3994 123.59 59.033 124.457 58.9385 124.638C58.6087 125.277 58.2376 125.895 57.8274 126.486C57.7722 126.569 57.457 127.01 57.7052 126.675C57.9535 126.34 57.6264 126.766 57.5634 126.844C57.3428 127.1 57.1221 127.353 56.8897 127.597C56.6572 127.841 56.3578 128.137 56.078 128.385L55.684 128.716C55.617 128.775 55.0536 129.204 55.4161 128.94C55.7116 128.724 54.9157 129.279 54.8093 129.334C54.5257 129.52 54.238 129.697 53.9425 129.862C53.647 130.028 53.3397 130.178 53.0363 130.327C52.9457 130.375 52.4414 130.595 52.8315 130.426C53.2215 130.256 52.5832 130.52 52.5005 130.548C51.8499 130.785 51.1838 130.977 50.5069 131.123C50.2902 131.167 49.3249 131.312 50.0577 131.226C49.6164 131.281 49.1712 131.316 48.722 131.332C48.0041 131.352 47.2856 131.327 46.5708 131.257C46.4014 131.257 45.9798 131.127 46.6299 131.257C46.4605 131.222 46.2832 131.198 46.1138 131.167C45.7198 131.092 45.3494 131.001 44.9712 130.895C44.5929 130.788 44.3092 130.698 43.9862 130.583C43.8246 130.528 43.667 130.457 43.5015 130.406C43.0603 130.268 43.9625 130.65 43.5606 130.426C42.9263 130.079 42.2723 129.788 41.6616 129.397C41.3739 129.216 41.106 129.003 40.8263 128.822C41.4212 129.216 40.6529 128.676 40.4874 128.531C39.9243 128.03 39.3976 127.491 38.9114 126.915L38.5923 126.521C39.073 127.12 38.5568 126.446 38.4938 126.356C38.2771 126.045 38.0722 125.721 37.8831 125.39C37.694 125.06 37.4891 124.725 37.3433 124.382C37.2685 124.228 37.2015 124.071 37.1306 123.917C37.4615 124.606 37.1306 123.846 37.0675 123.732C36.8019 122.999 36.5925 122.247 36.4411 121.482C36.4095 121.309 36.3898 121.131 36.3504 120.962C36.5159 121.722 36.3504 120.903 36.3504 120.757C36.311 120.312 36.2953 119.863 36.2913 119.413C36.2913 117.739 34.8296 116.135 33.0921 116.214C32.248 116.227 31.4424 116.569 30.8459 117.166C30.2494 117.763 29.9089 118.569 29.8967 119.413C29.9227 123.193 31.101 126.874 33.2742 129.966C35.4475 133.058 38.5123 135.414 42.0595 136.718C49.0136 139.318 57.461 137.045 62.1535 131.297C64.9164 127.973 66.4473 123.798 66.4875 119.477C66.4875 117.802 65.0061 116.198 63.2882 116.277C62.4445 116.292 61.6395 116.634 61.0428 117.231C60.446 117.828 60.1041 118.633 60.0889 119.477L60.1165 119.449Z" fill="#455A64"/>
<g opacity="0.6">
<path d="M60.1165 119.449C60.1165 119.808 60.1165 120.166 60.0811 120.529C60.0811 120.753 59.9038 121.711 60.0417 120.997C59.9086 121.769 59.7256 122.531 59.494 123.279C59.3876 123.606 59.2694 123.925 59.1433 124.244C59.3994 123.59 59.033 124.457 58.9385 124.638C58.6087 125.277 58.2376 125.895 57.8274 126.486C57.7722 126.569 57.457 127.01 57.7052 126.675C57.9535 126.34 57.6264 126.766 57.5634 126.844C57.3428 127.1 57.1221 127.353 56.8897 127.597C56.6572 127.841 56.3578 128.137 56.078 128.385L55.684 128.716C55.617 128.775 55.0536 129.204 55.4161 128.94C55.7116 128.724 54.9157 129.279 54.8093 129.334C54.5257 129.52 54.238 129.697 53.9425 129.862C53.647 130.028 53.3397 130.178 53.0363 130.327C52.9457 130.375 52.4414 130.595 52.8315 130.426C53.2215 130.256 52.5832 130.52 52.5005 130.548C51.8499 130.785 51.1838 130.977 50.5069 131.123C50.2902 131.167 49.3249 131.312 50.0577 131.226C49.6164 131.281 49.1712 131.316 48.722 131.332C48.0041 131.352 47.2856 131.327 46.5708 131.257C46.4014 131.257 45.9798 131.127 46.6299 131.257C46.4605 131.222 46.2832 131.198 46.1138 131.167C45.7198 131.092 45.3494 131.001 44.9712 130.895C44.5929 130.788 44.3092 130.698 43.9862 130.583C43.8246 130.528 43.667 130.457 43.5015 130.406C43.0603 130.268 43.9625 130.65 43.5606 130.426C42.9263 130.079 42.2723 129.788 41.6616 129.397C41.3739 129.216 41.106 129.003 40.8263 128.822C41.4212 129.216 40.6529 128.676 40.4874 128.531C39.9243 128.03 39.3976 127.491 38.9114 126.915L38.5923 126.521C39.073 127.12 38.5568 126.446 38.4938 126.356C38.2771 126.045 38.0722 125.721 37.8831 125.39C37.694 125.06 37.4891 124.725 37.3433 124.382C37.2685 124.228 37.2015 124.071 37.1306 123.917C37.4615 124.606 37.1306 123.846 37.0675 123.732C36.8019 122.999 36.5925 122.247 36.4411 121.482C36.4095 121.309 36.3898 121.131 36.3504 120.962C36.5159 121.722 36.3504 120.903 36.3504 120.757C36.311 120.312 36.2953 119.863 36.2913 119.413C36.2913 117.739 34.8296 116.135 33.0921 116.214C32.248 116.227 31.4424 116.569 30.8459 117.166C30.2494 117.763 29.9089 118.569 29.8967 119.413C29.9227 123.193 31.101 126.874 33.2742 129.966C35.4475 133.058 38.5123 135.414 42.0595 136.718C49.0136 139.318 57.461 137.045 62.1535 131.297C64.9164 127.973 66.4473 123.798 66.4875 119.477C66.4875 117.802 65.0061 116.198 63.2882 116.277C62.4445 116.292 61.6395 116.634 61.0428 117.231C60.446 117.828 60.1041 118.633 60.0889 119.477L60.1165 119.449Z" fill="white"/>
</g>
<path d="M44.1713 157.864L43.8049 157.647V137.766C43.8039 137.538 43.7125 137.32 43.5508 137.159C43.3891 136.998 43.1702 136.907 42.9421 136.907H40.515C40.2872 136.907 40.0688 136.998 39.9077 137.159C39.7466 137.32 39.6561 137.538 39.6561 137.766V157.647L39.2857 157.864C36.9072 159.243 34.2061 159.967 31.457 159.964C30.8913 159.964 30.3487 160.189 29.9483 160.588C29.548 160.988 29.3225 161.53 29.3215 162.096H54.1435C54.1435 161.815 54.0882 161.538 53.9809 161.279C53.8735 161.02 53.7161 160.785 53.5178 160.587C53.3194 160.389 53.084 160.232 52.8249 160.125C52.5659 160.018 52.2882 159.964 52.008 159.964C49.2562 159.969 46.5522 159.244 44.1713 157.864Z" fill="#455A64"/>
<path opacity="0.2" d="M43.8049 139.894V137.766C43.8039 137.538 43.7125 137.32 43.5508 137.159C43.3891 136.998 43.1702 136.907 42.9421 136.907H40.515C40.2872 136.907 40.0687 136.998 39.9077 137.159C39.7466 137.32 39.6561 137.538 39.6561 137.766V139.894H43.8049Z" fill="black"/>
<path d="M46.098 81.952C46.098 81.952 41.4764 86.877 44.2226 90.5924L44.1556 89.3316C44.1556 89.3316 44.5496 91.5931 50.4596 92.0147C56.3696 92.4363 54.8448 88.5948 54.8448 88.5948C54.8448 88.5948 55.2388 89.7216 56.1214 89.8477C56.1214 89.8477 55.0103 88.6106 55.424 86.2741C55.8377 83.9377 57.5398 82.7281 54.8448 80.7581C54.8448 80.7581 55.0654 78.6305 50.3138 79.1821C45.5622 79.7337 46.098 81.952 46.098 81.952Z" fill="#2E353A"/>
<path d="M57.7446 94.6662C56.9054 94.5638 56.3696 93.366 56.4838 92.444C56.5981 91.5221 57.4137 90.474 58.2529 90.5962C58.3385 90.6037 58.4216 90.6289 58.4969 90.6703C58.5722 90.7117 58.638 90.7683 58.6902 90.8365C58.9345 91.1517 58.8597 91.6679 58.769 92.3258C58.769 92.4519 58.7336 92.5859 58.7139 92.7198C58.6942 92.8538 58.6824 92.9917 58.6705 93.1138C58.5996 93.7718 58.5405 94.2958 58.2293 94.5362C58.162 94.5905 58.0842 94.6301 58.0007 94.6525C57.9173 94.6749 57.83 94.6796 57.7446 94.6662ZM58.182 91.1635C57.851 91.1241 57.1615 91.6521 57.0551 92.515C56.9488 93.3778 57.4846 94.0555 57.8156 94.091C57.8589 94.091 57.8668 94.091 57.8747 94.091C57.9968 93.9925 58.052 93.4724 58.0992 93.0547C58.0992 92.9247 58.1268 92.7908 58.1465 92.6607C58.1662 92.5307 58.182 92.3849 58.2017 92.2667C58.2568 91.853 58.3317 91.333 58.2371 91.2108C58.2332 91.1793 58.2253 91.1714 58.182 91.1635Z" fill="#455A64"/>
<g opacity="0.5">
<path d="M57.7446 94.6662C56.9054 94.5638 56.3696 93.366 56.4838 92.444C56.5981 91.5221 57.4137 90.474 58.2529 90.5962C58.3385 90.6037 58.4216 90.6289 58.4969 90.6703C58.5722 90.7117 58.638 90.7683 58.6902 90.8365C58.9345 91.1517 58.8597 91.6679 58.769 92.3258C58.769 92.4519 58.7336 92.5859 58.7139 92.7198C58.6942 92.8538 58.6824 92.9917 58.6705 93.1138C58.5996 93.7718 58.5405 94.2958 58.2293 94.5362C58.162 94.5905 58.0842 94.6301 58.0007 94.6525C57.9173 94.6749 57.83 94.6796 57.7446 94.6662ZM58.182 91.1635C57.851 91.1241 57.1615 91.6521 57.0551 92.515C56.9488 93.3778 57.4846 94.0555 57.8156 94.091C57.8589 94.091 57.8668 94.091 57.8747 94.091C57.9968 93.9925 58.052 93.4724 58.0992 93.0547C58.0992 92.9247 58.1268 92.7908 58.1465 92.6607C58.1662 92.5307 58.182 92.3849 58.2017 92.2667C58.2568 91.853 58.3317 91.333 58.2371 91.2108C58.2332 91.1793 58.2253 91.1714 58.182 91.1635Z" fill="black"/>
</g>
<path d="M64.4111 100.49C64.4111 100.49 53.7495 91.9318 52.8472 95.0799C51.6455 99.2878 63.828 102.877 63.828 102.877C63.828 102.877 64.947 103.07 64.4111 100.49Z" fill="#455A64"/>
<path opacity="0.2" d="M63.2252 101.971C64.285 102.562 64.1314 101.337 63.698 99.93C63.0045 99.3942 61.8698 98.5471 60.5893 97.6685C60.873 98.8071 61.6255 101.084 63.2252 101.971Z" fill="black"/>
<path opacity="0.2" d="M54.9748 95.2729L54.3562 96.2579V98.3422C55.435 99.219 56.6165 99.9612 57.8747 100.553C55.6761 99.3312 55.1167 95.5172 55.1167 95.5172L54.9748 95.2729Z" fill="black"/>
<path d="M42.2092 94.0125C42.0497 94.0092 41.8911 94.0383 41.7431 94.098C41.5951 94.1577 41.4607 94.2467 41.3481 94.3598C41.2354 94.4728 41.1468 94.6075 41.0876 94.7557C41.0284 94.9038 40.9998 95.0625 41.0036 95.222C41.0981 98.6144 41.307 108.051 40.8302 111.75C40.4638 114.619 38.2259 123.015 38.2259 123.015L54.0765 115.946C54.0765 115.946 53.848 110.675 54.0765 108.937C54.2853 107.33 55.6131 104.292 55.7431 102.68C55.8495 101.349 55.2427 98.701 55.2033 97.3654C55.2033 96.8847 55.2427 95.88 55.2821 95.2063C55.2874 95.1184 55.2752 95.0303 55.246 94.9472C55.2168 94.8641 55.1714 94.7876 55.1123 94.7223C55.0532 94.657 54.9817 94.6041 54.902 94.5668C54.8222 94.5295 54.7358 94.5085 54.6478 94.505L42.2092 94.0125Z" fill="#455A64"/>
<path d="M77.6416 146.233L78.7212 150.89L76.4596 151.41L75.1043 147.076L77.6416 146.233Z" fill="#B97964"/>
<path d="M79.4225 150.874C79.4094 150.874 79.3966 150.87 79.3854 150.864C79.3743 150.857 79.3653 150.847 79.3595 150.835C79.3528 150.824 79.3493 150.812 79.3493 150.799C79.3493 150.787 79.3528 150.775 79.3595 150.764C79.3949 150.732 80.179 150.015 80.636 150.035C80.7204 150.039 80.8003 150.074 80.8606 150.134C80.8975 150.165 80.9234 150.208 80.9347 150.255C80.946 150.303 80.9421 150.352 80.9237 150.398C80.8488 150.559 80.5297 150.693 80.2105 150.768C79.9514 150.826 79.6878 150.861 79.4225 150.874ZM79.5998 150.748C80.0923 150.697 80.7424 150.543 80.8252 150.354C80.8252 150.331 80.8449 150.287 80.7818 150.224C80.7647 150.205 80.7435 150.189 80.7196 150.179C80.6957 150.169 80.6699 150.164 80.6439 150.165C80.6036 150.157 80.5621 150.157 80.5218 150.165C80.1759 150.298 79.8589 150.496 79.588 150.748H79.5998Z" fill="#455A64"/>
<path d="M79.3871 150.878C79.3767 150.874 79.3677 150.866 79.3608 150.858C79.3539 150.849 79.3494 150.838 79.3477 150.827C79.2894 150.455 79.3501 150.075 79.521 149.739C79.5594 149.689 79.6075 149.648 79.6623 149.617C79.7171 149.585 79.7776 149.566 79.8402 149.558C80.0096 149.535 80.0805 149.609 80.1041 149.676C80.2263 149.956 79.7338 150.653 79.454 150.858H79.4304C79.4251 150.865 79.4185 150.87 79.411 150.873C79.4035 150.877 79.3953 150.878 79.3871 150.878ZM79.8244 149.696C79.747 149.711 79.6782 149.755 79.6313 149.818C79.4891 150.085 79.4314 150.389 79.4659 150.689C79.7456 150.425 80.0529 149.901 79.9938 149.724C79.9938 149.724 79.9702 149.668 79.8599 149.684H79.8244V149.696Z" fill="#455A64"/>
<path d="M79.0758 150.571L76.2587 151.213C76.2076 151.225 76.1619 151.253 76.129 151.294C76.0961 151.335 76.0779 151.386 76.0775 151.438V153.845C76.0775 153.95 76.119 154.05 76.1929 154.124C76.2667 154.198 76.367 154.239 76.4715 154.239H76.5542C77.5628 153.991 78.4533 153.731 79.7062 153.451C81.1995 153.112 80.8606 153.376 82.6179 153.002C83.6777 152.778 83.5989 151.532 83.1379 151.576C81.03 151.781 80.6754 151.213 79.718 150.658C79.5213 150.553 79.2933 150.522 79.0758 150.571Z" fill="#263238"/>
<path opacity="0.1" d="M78.4178 149.582L77.6416 146.233L75.1043 147.076L76.1326 150.37L78.4178 149.582Z" fill="black"/>
<path d="M38.4347 126.868C37.036 123.507 38.0171 118.074 48.9663 116.025C57.9535 114.339 63.7965 115.008 66.8736 115.726C67.6955 115.917 68.4592 116.303 69.1004 116.852C69.7416 117.4 70.2413 118.095 70.5575 118.878C72.102 122.664 74.5842 129.047 78.2681 147.844L75.4865 149.026C75.4865 149.026 72.4448 139.941 70.8294 136.233C69.3716 132.892 66.2393 127.613 65.2661 122.747C65.2661 122.747 60.9636 124.256 55.7431 126.742C49.1988 129.843 41.2085 133.542 38.4347 126.868Z" fill="#263238"/>
<path d="M74.9309 148.302L75.6086 149.944L78.7212 148.786L78.3981 147.076L74.9309 148.302Z" fill="#263238"/>
<path opacity="0.2" d="M74.9309 148.302L75.6086 149.944L78.7212 148.786L78.3981 147.076L74.9309 148.302Z" fill="white"/>
<path opacity="0.1" d="M65.1794 122.767L65.2661 122.735C65.8054 125.115 66.6103 127.426 67.6656 129.626C68.2526 127.081 68.9539 123.48 68.4339 122.782C67.6065 121.679 65.1794 122.782 65.1794 122.782V122.767Z" fill="black"/>
<path d="M57.5752 154.767L56.866 159.44H59.1079L60.3569 154.956L57.5752 154.767Z" fill="#B97964"/>
<path d="M59.6871 159.534C59.6743 159.532 59.6623 159.527 59.6525 159.519C59.6427 159.51 59.6356 159.499 59.6319 159.487C59.63 159.474 59.632 159.461 59.6376 159.449C59.6432 159.437 59.6522 159.427 59.6634 159.42C59.7028 159.396 60.609 158.845 61.0542 158.951C61.1373 158.97 61.2095 159.021 61.2552 159.093C61.2837 159.133 61.2991 159.18 61.2991 159.229C61.2991 159.278 61.2837 159.325 61.2552 159.365C61.0309 159.538 60.7489 159.618 60.4672 159.589C60.2061 159.593 59.9451 159.575 59.6871 159.534ZM59.888 159.448C60.3805 159.495 61.0464 159.471 61.1646 159.298C61.1646 159.274 61.1961 159.235 61.1646 159.16C61.1519 159.137 61.1337 159.117 61.1118 159.103C61.0898 159.089 61.0646 159.08 61.0385 159.077C60.9993 159.071 60.9595 159.071 60.9203 159.077C60.5554 159.133 60.2049 159.258 59.888 159.448Z" fill="#455A64"/>
<path d="M59.6516 159.535C59.642 159.529 59.6343 159.521 59.6294 159.511C59.6245 159.501 59.6226 159.49 59.624 159.479C59.6407 159.101 59.7788 158.737 60.018 158.443C60.1137 158.36 60.2382 158.318 60.3647 158.325C60.5381 158.325 60.5933 158.424 60.6011 158.498C60.6642 158.794 60.0456 159.385 59.7343 159.531C59.73 159.533 59.7253 159.533 59.7205 159.533C59.7158 159.533 59.7111 159.533 59.7068 159.531L59.6516 159.535ZM60.3135 158.447C60.2338 158.448 60.1571 158.478 60.0968 158.53C59.9074 158.765 59.7935 159.052 59.7698 159.353C60.0929 159.149 60.4948 158.688 60.4751 158.51C60.4751 158.51 60.4751 158.451 60.349 158.443L60.3135 158.447Z" fill="#455A64"/>
<path d="M59.4073 159.176L56.5193 159.255C56.4665 159.257 56.4159 159.276 56.3758 159.311C56.3357 159.345 56.3085 159.392 56.2987 159.444L55.8377 161.808C55.8201 161.908 55.8418 162.011 55.8983 162.095C55.9549 162.18 56.0418 162.239 56.1411 162.261C56.1685 162.265 56.1964 162.265 56.2238 162.261C57.264 162.214 58.1938 162.131 59.4822 162.1C61.0109 162.06 60.6287 162.253 62.4254 162.23C63.5089 162.23 63.6743 160.977 63.2134 160.929C61.1055 160.721 60.8691 160.094 60.0377 159.353C59.8557 159.22 59.6319 159.157 59.4073 159.176Z" fill="#263238"/>
<path opacity="0.1" d="M59.4546 158.195L60.3569 154.956L57.5752 154.767L57.0551 158.195H59.4546Z" fill="black"/>
<path d="M67.4922 124.264C67.26 123.843 66.9273 123.486 66.5238 123.225C66.1203 122.964 65.6585 122.806 65.1794 122.767C64.5569 122.991 60.5381 124.445 55.7234 126.73C52.4611 128.283 48.8363 129.981 45.6804 130.465L61.2867 129.547C59.754 134 59.3837 140.95 58.9227 144.772C58.4735 148.479 57.1142 156.383 57.1142 156.383H60.1047C60.1047 156.383 68.8121 126.699 67.4922 124.264Z" fill="#263238"/>
<path opacity="0.4" d="M67.4922 124.264C67.26 123.843 66.9273 123.486 66.5238 123.225C66.1203 122.964 65.6585 122.806 65.1794 122.767C64.5569 122.991 60.5381 124.445 55.7234 126.73C52.4611 128.283 48.8363 129.981 45.6804 130.465L61.2867 129.547C59.754 134 59.3837 140.95 58.9227 144.772C58.4735 148.479 57.1142 156.383 57.1142 156.383H60.1047C60.1047 156.383 68.8121 126.699 67.4922 124.264Z" fill="black"/>
<path d="M56.87 155.906L56.6414 157.683L60.1677 157.628L60.5381 155.925L56.87 155.906Z" fill="#263238"/>
<path opacity="0.2" d="M56.87 155.906L56.6414 157.683L60.1677 157.628L60.5381 155.925L56.87 155.906Z" fill="white"/>
<path d="M62.4923 94.0436L61.858 92.8419L59.3994 90.7734C59.2771 90.6718 59.1231 90.6162 58.9641 90.6162C58.8051 90.6162 58.6511 90.6718 58.5287 90.7734L57.2876 91.8017C57.1925 91.8797 57.1205 91.9823 57.0795 92.0983C57.0386 92.2142 57.0301 92.3392 57.0551 92.4597L57.3191 93.7599C57.3504 93.8995 57.4253 94.0255 57.5329 94.1198C57.6406 94.214 57.7755 94.2715 57.918 94.2839C58.706 94.343 60.1796 94.3903 60.5302 93.9569L60.8966 95.0325L62.4923 94.0436Z" fill="#B97964"/>
<path d="M55.3925 89.7964H56.9685C57.2078 89.7964 57.4372 89.8915 57.6065 90.0607C57.7757 90.2299 57.8707 90.4594 57.8707 90.6987V93.8507C57.8707 94.2519 57.7113 94.6367 57.4276 94.9205C57.1439 95.2042 56.759 95.3636 56.3578 95.3636H55.9992C55.598 95.3636 55.2131 95.2042 54.9294 94.9205C54.6457 94.6367 54.4863 94.2519 54.4863 93.8507V90.6987C54.4863 90.5798 54.5097 90.4622 54.5553 90.3525C54.6009 90.2427 54.6677 90.1431 54.7519 90.0593C54.8361 89.9754 54.936 89.9091 55.046 89.8639C55.1559 89.8188 55.2736 89.7959 55.3925 89.7964Z" fill="#455A64"/>
<path opacity="0.4" d="M55.3925 89.7964H56.9685C57.2078 89.7964 57.4372 89.8915 57.6065 90.0607C57.7757 90.2299 57.8707 90.4594 57.8707 90.6987V93.8507C57.8707 94.2519 57.7113 94.6367 57.4276 94.9205C57.1439 95.2042 56.759 95.3636 56.3578 95.3636H55.9992C55.598 95.3636 55.2131 95.2042 54.9294 94.9205C54.6457 94.6367 54.4863 94.2519 54.4863 93.8507V90.6987C54.4863 90.5798 54.5097 90.4622 54.5553 90.3525C54.6009 90.2427 54.6677 90.1431 54.7519 90.0593C54.8361 89.9754 54.936 89.9091 55.046 89.8639C55.1559 89.8188 55.2736 89.7959 55.3925 89.7964Z" fill="black"/>
<path d="M47.6464 88.5947C47.8277 90.2771 47.8907 93.3227 46.6378 94.3353C47.8548 95.4643 49.2137 96.4298 50.6802 97.2076C52.6502 95.8483 51.7755 94.3905 51.7755 94.3905C50.1995 93.9492 50.1365 92.4205 50.5502 91.1715L47.6464 88.5947Z" fill="#B97964"/>
<path opacity="0.1" d="M50.5502 91.1713L48.5802 89.4141L48.1389 89.6308C48.1389 89.6308 48.6393 91.8529 50.3532 92.5897C50.331 92.1088 50.3978 91.628 50.5502 91.1713Z" fill="black"/>
<path d="M46.7048 84.5877C46.7875 87.3654 46.7599 88.5277 48.1113 90.0091C50.1444 92.2155 53.5328 91.5103 54.2893 88.768C54.963 86.3016 54.7227 82.1804 52.0474 80.9865C51.459 80.7218 50.8128 80.6117 50.1699 80.6666C49.527 80.7214 48.9088 80.9395 48.3738 81.3001C47.8388 81.6608 47.4047 82.152 47.1126 82.7273C46.8205 83.3026 46.6801 83.943 46.7048 84.5877Z" fill="#B97964"/>
<path d="M49.1554 79.6195C48.5014 80.3129 49.3249 82.0741 51.811 82.4957C53.6825 82.8188 55.5461 85.3404 55.8534 83.1497C56.145 81.164 51.7164 79.1506 49.1554 79.6195Z" fill="#2E353A"/>
<path d="M50.3611 80.5178C51.4131 81.7943 50.1483 83.3861 49.3485 84.0638C48.5487 84.7415 47.4218 85.2458 47.8789 86.6208C48.3359 87.9959 48.0877 91.3725 45.8734 90.2575C43.6591 89.1424 44.6717 85.2497 45.771 83.6028C46.8702 81.9559 49.1042 79.0009 50.3611 80.5178Z" fill="#2E353A"/>
<path d="M52.7369 85.9473C52.9205 86.4695 53.175 86.964 53.4934 87.4169C53.3759 87.4952 53.2429 87.5471 53.1034 87.5688C52.9639 87.5906 52.8214 87.5818 52.6857 87.543L52.7369 85.9473Z" fill="#A24E3F"/>
<path d="M49.8843 84.3473C49.8659 84.3438 49.8492 84.3341 49.8371 84.3198C49.8267 84.3098 49.8184 84.2979 49.8128 84.2847C49.8072 84.2715 49.8043 84.2573 49.8043 84.2429C49.8043 84.2286 49.8072 84.2144 49.8128 84.2012C49.8184 84.188 49.8267 84.176 49.8371 84.1661C49.9786 84.0158 50.154 83.9017 50.3487 83.8331C50.5433 83.7646 50.7516 83.7437 50.956 83.7721C50.984 83.7787 51.0084 83.796 51.0239 83.8203C51.0393 83.8446 51.0447 83.8739 51.0388 83.9021C51.033 83.9301 51.0167 83.9547 50.9932 83.9709C50.9697 83.987 50.9408 83.9935 50.9127 83.9888C50.7434 83.9692 50.572 83.99 50.4124 84.0496C50.2528 84.1092 50.1096 84.2058 49.9947 84.3316C49.9795 84.3442 49.9612 84.3523 49.9417 84.3551C49.9222 84.3578 49.9024 84.3552 49.8843 84.3473Z" fill="#2E353A"/>
<path d="M54.6636 84.5444C54.6465 84.5376 54.6306 84.5283 54.6163 84.5168C54.4934 84.3989 54.3444 84.3118 54.1814 84.2625C54.0185 84.2132 53.8462 84.2031 53.6786 84.2331C53.6649 84.2373 53.6504 84.2387 53.6362 84.2372C53.6219 84.2356 53.6081 84.2312 53.5956 84.2243C53.5831 84.2173 53.5721 84.2078 53.5634 84.1965C53.5546 84.1851 53.5482 84.1722 53.5446 84.1583C53.5374 84.1301 53.5416 84.1002 53.5564 84.0751C53.5712 84.05 53.5952 84.0317 53.6234 84.0243C53.8268 83.9848 54.0366 83.9946 54.2354 84.0528C54.4342 84.1111 54.6162 84.2162 54.766 84.3592C54.7764 84.3692 54.7846 84.3811 54.7903 84.3943C54.7959 84.4075 54.7988 84.4217 54.7988 84.436C54.7988 84.4504 54.7959 84.4646 54.7903 84.4778C54.7846 84.491 54.7764 84.503 54.766 84.5129C54.7524 84.5292 54.7344 84.5412 54.7141 84.5474C54.6938 84.5537 54.6722 84.554 54.6517 84.5483L54.6636 84.5444Z" fill="#2E353A"/>
<path d="M51.157 85.5254C51.157 85.746 51.2633 85.9194 51.4131 85.9391C51.5628 85.9588 51.6849 85.7697 51.6889 85.5451C51.6928 85.3205 51.5825 85.1511 51.4367 85.1275C51.2909 85.1038 51.1648 85.2969 51.157 85.5254Z" fill="#2E353A"/>
<path d="M53.7061 85.6082C53.7061 85.8327 53.8125 86.0022 53.9583 86.0258C54.1041 86.0494 54.2302 85.8524 54.238 85.6318C54.2459 85.4112 54.1317 85.2378 53.9859 85.2378C53.8401 85.2378 53.714 85.3796 53.7061 85.6082Z" fill="#2E353A"/>
<path d="M53.9228 85.218L54.4705 85.0801C54.4705 85.0801 54.175 85.4977 53.9228 85.218Z" fill="#2E353A"/>
<path d="M51.3737 85.1355L51.9174 84.9976C51.9174 84.9976 51.614 85.4113 51.3737 85.1355Z" fill="#2E353A"/>
<path d="M45.8143 94.1188C45.6279 93.9955 45.4094 93.9297 45.1859 93.9297C44.9624 93.9297 44.7438 93.9955 44.5575 94.1188C44.5575 94.1188 43.9822 93.7642 43.7182 94.0715C43.7182 94.0715 47.4731 101.238 46.9293 106.132C46.61 108.785 46.4442 111.454 46.4329 114.126C46.4329 114.126 47.7883 113.5 48.4659 113.732C48.9312 113.862 49.4285 113.81 49.8568 113.586C49.8568 113.586 49.5022 108.165 49.5573 105.631C49.6873 99.8121 46.4408 94.3276 46.4408 94.3276L45.8143 94.1188Z" fill="#455A64"/>
<path opacity="0.3" d="M45.8143 94.1188C45.6279 93.9955 45.4094 93.9297 45.1859 93.9297C44.9624 93.9297 44.7438 93.9955 44.5575 94.1188C44.5575 94.1188 43.9822 93.7642 43.7182 94.0715C43.7182 94.0715 47.4731 101.238 46.9293 106.132C46.61 108.785 46.4442 111.454 46.4329 114.126C46.4329 114.126 47.7883 113.5 48.4659 113.732C48.9312 113.862 49.4285 113.81 49.8568 113.586C49.8568 113.586 49.5022 108.165 49.5573 105.631C49.6873 99.8121 46.4408 94.3276 46.4408 94.3276L45.8143 94.1188Z" fill="black"/>
<path d="M51.5076 88.5237C51.6689 88.6642 51.8563 88.7713 52.0592 88.8389C52.2621 88.9066 52.4763 88.9333 52.6896 88.9177C52.7037 88.916 52.7167 88.9097 52.7268 88.8997C52.7368 88.8897 52.7431 88.8766 52.7448 88.8626C52.7453 88.8555 52.7444 88.8484 52.7421 88.8418C52.7397 88.8351 52.7361 88.829 52.7312 88.8238C52.7264 88.8186 52.7206 88.8145 52.7141 88.8116C52.7076 88.8088 52.7006 88.8074 52.6936 88.8074C52.4594 88.8224 52.225 88.7832 52.0084 88.6931C51.7918 88.6029 51.5989 88.464 51.4446 88.2873C51.4346 88.279 51.4221 88.2744 51.4091 88.2744C51.3961 88.2744 51.3836 88.279 51.3737 88.2873C51.364 88.2982 51.3586 88.3122 51.3586 88.3267C51.3586 88.3413 51.364 88.3553 51.3737 88.3661C51.4091 88.4292 51.4564 88.4764 51.5076 88.5237Z" fill="#2E353A"/>
<path d="M60.5814 94.3315C60.5814 94.3315 62.1574 104.217 64.4072 102.751C66.3575 101.487 63.3355 95.3322 62.4372 93.5317C62.4158 93.4899 62.384 93.4544 62.3448 93.4286C62.3056 93.4028 62.2604 93.3876 62.2136 93.3844C62.1668 93.3812 62.12 93.3902 62.0777 93.4105C62.0354 93.4308 61.9991 93.4617 61.9723 93.5001C61.807 93.7239 61.599 93.9126 61.3603 94.0553C61.1215 94.1981 60.8568 94.2919 60.5814 94.3315Z" fill="#455A64"/>
<path d="M47.1421 93.2402C47.1421 93.2402 49.1948 96.1677 51.0388 95.6042C52.4414 95.1827 50.9363 93.9376 50.9363 93.9376C51.0795 93.904 51.2283 93.9017 51.3725 93.9309C51.5167 93.9602 51.6528 94.0203 51.7716 94.107C51.7716 94.107 52.0553 93.9691 52.4414 94.4459C52.4414 94.4459 53.9307 97.8422 51.6179 98.3189C48.1744 99.0281 45.8143 94.107 45.8143 94.107C45.8143 94.107 46.2438 93.5791 46.6378 93.713C46.6378 93.7406 46.4644 93.2915 47.1421 93.2402Z" fill="#455A64"/>
<path opacity="0.3" d="M47.1421 93.2402C47.1421 93.2402 49.1948 96.1677 51.0388 95.6042C52.4414 95.1827 50.9363 93.9376 50.9363 93.9376C51.0795 93.904 51.2283 93.9017 51.3725 93.9309C51.5167 93.9602 51.6528 94.0203 51.7716 94.107C51.7716 94.107 52.0553 93.9691 52.4414 94.4459C52.4414 94.4459 53.9307 97.8422 51.6179 98.3189C48.1744 99.0281 45.8143 94.107 45.8143 94.107C45.8143 94.107 46.2438 93.5791 46.6378 93.713C46.6378 93.7406 46.4644 93.2915 47.1421 93.2402Z" fill="black"/>
<path opacity="0.2" d="M54.372 108.432L49.0727 108.184L41.8822 94.4849C41.8536 94.4996 41.827 94.5181 41.8034 94.54C41.349 94.9254 41.0657 95.475 41.0154 96.0687C41.0154 96.4076 41.0154 96.774 41.039 97.1759C41.3385 99.3586 43.009 103.046 47.1342 109.638C47.3635 110.005 47.6858 110.305 48.0685 110.507C48.4512 110.709 48.8806 110.806 49.313 110.789L54.3444 110.422C54.3444 109.8 54.3444 109.138 54.372 108.432Z" fill="black"/>
<path opacity="0.2" d="M47.3509 94.7056C47.3509 94.7056 50.1995 97.105 51.4722 96.5849C52.2956 96.2461 51.9686 95.1784 51.9686 95.1784C51.9686 95.1784 53.0718 97.2075 51.5194 97.4833C49.774 97.7906 47.3509 94.7056 47.3509 94.7056Z" fill="black"/>
<path opacity="0.2" d="M46.0428 94.5601L47.4218 96.5025C47.0614 96.3024 46.7505 96.024 46.5118 95.6878C46.2732 95.3517 46.1129 94.9663 46.0428 94.5601Z" fill="black"/>
<path d="M52.1262 94.4063C52.34 94.3069 52.5744 94.2597 52.8101 94.2686C53.0457 94.2775 53.2758 94.3423 53.4816 94.4575C53.4816 94.4575 53.9898 97.0461 54.3287 98.7403C54.6675 100.434 54.8054 102.57 54.4744 105.986C54.32 108.334 54.3121 110.689 54.4508 113.039C54.2425 112.914 54.0042 112.847 53.7613 112.847C53.5184 112.847 53.2801 112.914 53.0718 113.039C52.8782 113.166 52.642 113.212 52.4147 113.166C52.1874 113.121 51.9874 112.987 51.8583 112.794C51.8583 112.794 52.0592 109.299 52.6463 105.962C53.1231 102.82 53.0978 99.6213 52.5714 96.4866L52.1262 94.4063Z" fill="#455A64"/>
<path opacity="0.3" d="M52.1262 94.4063C52.34 94.3069 52.5744 94.2597 52.8101 94.2686C53.0457 94.2775 53.2758 94.3423 53.4816 94.4575C53.4816 94.4575 53.9898 97.0461 54.3287 98.7403C54.6675 100.434 54.8054 102.57 54.4744 105.986C54.32 108.334 54.3121 110.689 54.4508 113.039C54.2425 112.914 54.0042 112.847 53.7613 112.847C53.5184 112.847 53.2801 112.914 53.0718 113.039C52.8782 113.166 52.642 113.212 52.4147 113.166C52.1874 113.121 51.9874 112.987 51.8583 112.794C51.8583 112.794 52.0592 109.299 52.6463 105.962C53.1231 102.82 53.0978 99.6213 52.5714 96.4866L52.1262 94.4063Z" fill="black"/>
<path opacity="0.2" d="M52.5635 95.0327C52.5635 95.0327 53.1033 95.6946 52.8354 97.2076C52.8354 97.2076 53.8165 96.3526 52.5635 95.0327Z" fill="black"/>
<path d="M46.1413 87.6729C46.3888 88.1469 46.8137 88.5038 47.3233 88.6658C48.005 88.8706 48.3596 88.2718 48.1823 87.6138C48.0247 87.0307 47.477 86.2151 46.7875 86.2939C46.667 86.3093 46.5508 86.3487 46.4456 86.4096C46.3405 86.4705 46.2485 86.5517 46.1752 86.6486C46.1018 86.7454 46.0485 86.8559 46.0183 86.9736C45.9881 87.0913 45.9818 87.2138 45.9995 87.334C46.0217 87.4559 46.0701 87.5715 46.1413 87.6729Z" fill="#B97964"/>
<path d="M61.3773 107.117H62.3978L65.4789 106.538C65.6467 106.508 65.8195 106.522 65.9804 106.579C66.1412 106.635 66.2847 106.732 66.3969 106.861L68.7215 109.445L67.374 109.489L66.1211 109.055C66.1211 109.055 64.3008 109.989 61.5901 108.764L61.3773 107.117Z" fill="#B97964"/>
<path d="M49.9434 106.23C49.9434 106.23 43.6749 92.4403 41.5355 94.5325C40.054 95.9824 40.5229 98.9965 47.6504 109.036C47.8975 109.382 48.2315 109.657 48.6189 109.834C49.0062 110.01 49.4331 110.081 49.8568 110.04L61.8619 109.252C61.7094 108.449 61.7094 107.624 61.8619 106.821L49.9434 106.23Z" fill="#455A64"/>
<path d="M82.5982 157.864L82.2317 157.647V115.58C82.2307 115.353 82.1399 115.135 81.979 114.974C81.8182 114.813 81.6003 114.722 81.3728 114.721H78.9418C78.714 114.721 78.4956 114.812 78.3345 114.973C78.1734 115.134 78.0829 115.352 78.0829 115.58V157.647L77.7126 157.864C75.3342 159.243 72.633 159.968 69.8838 159.964C69.3181 159.964 68.7755 160.189 68.3752 160.588C67.9748 160.988 67.7493 161.53 67.7483 162.096H92.5703C92.5703 161.816 92.5152 161.539 92.408 161.28C92.3009 161.021 92.1439 160.786 91.946 160.589C91.7481 160.391 91.5131 160.234 91.2545 160.126C90.9959 160.019 90.7187 159.964 90.4388 159.964C87.6856 159.969 84.9804 159.244 82.5982 157.864Z" fill="#455A64"/>
<path opacity="0.2" d="M82.2317 117.708V115.58C82.2307 115.353 82.1399 115.135 81.979 114.974C81.8182 114.813 81.6003 114.722 81.3728 114.721H78.9418C78.714 114.721 78.4956 114.812 78.3345 114.973C78.1734 115.134 78.0829 115.352 78.0829 115.58V117.708H82.2317Z" fill="black"/>
<path d="M60.3726 113.318H99.9381V114.473C99.9381 114.835 99.7941 115.183 99.5377 115.44C99.2813 115.696 98.9335 115.84 98.5709 115.84H61.7398C61.3772 115.84 61.0295 115.696 60.7731 115.44C60.5167 115.183 60.3726 114.835 60.3726 114.473V113.318Z" fill="#455A64"/>
<path opacity="0.3" d="M60.3726 113.318H99.9381V114.473C99.9381 114.835 99.7941 115.183 99.5377 115.44C99.2813 115.696 98.9335 115.84 98.5709 115.84H61.7398C61.3772 115.84 61.0295 115.696 60.7731 115.44C60.5167 115.183 60.3726 114.835 60.3726 114.473V113.318Z" fill="white"/>
<path d="M101.353 110.801H58.9582C58.2618 110.801 57.6974 111.365 57.6974 112.062C57.6974 112.758 58.2618 113.322 58.9582 113.322H101.353C102.049 113.322 102.613 112.758 102.613 112.062C102.613 111.365 102.049 110.801 101.353 110.801Z" fill="#455A64"/>
<path opacity="0.4" d="M101.353 110.801H58.9582C58.2618 110.801 57.6974 111.365 57.6974 112.062C57.6974 112.758 58.2618 113.322 58.9582 113.322H101.353C102.049 113.322 102.613 112.758 102.613 112.062C102.613 111.365 102.049 110.801 101.353 110.801Z" fill="white"/>
<path opacity="0.2" d="M80.5612 115.166V113.318H60.3726V115.166C60.3594 115.33 60.4111 115.492 60.5165 115.618C60.6219 115.744 60.7725 115.824 60.936 115.84H79.982C80.0644 115.834 80.1447 115.812 80.2185 115.775C80.2922 115.737 80.3579 115.686 80.4117 115.624C80.4655 115.561 80.5064 115.488 80.5321 115.41C80.5577 115.331 80.5676 115.249 80.5612 115.166Z" fill="black"/>
<path opacity="0.2" d="M83.2368 112.424V111.699C83.2544 111.481 83.1859 111.265 83.0459 111.097C82.9059 110.929 82.7057 110.823 82.4882 110.801H58.4542C58.236 110.822 58.0347 110.928 57.894 111.096C57.7532 111.264 57.6841 111.481 57.7017 111.699V112.424C57.6841 112.642 57.7533 112.858 57.8942 113.026C58.0351 113.193 58.2363 113.298 58.4542 113.318H82.4882C82.7054 113.297 82.9056 113.192 83.0457 113.025C83.1857 112.857 83.2544 112.642 83.2368 112.424Z" fill="black"/>
<path d="M85.7186 110.773H72.5393C72.1987 110.773 71.872 110.638 71.6311 110.397C71.3902 110.156 71.2549 109.829 71.2549 109.489H87.0149C87.0149 109.658 86.9813 109.826 86.916 109.983C86.8507 110.14 86.7551 110.282 86.6345 110.401C86.514 110.521 86.371 110.615 86.2138 110.679C86.0566 110.743 85.8883 110.775 85.7186 110.773Z" fill="#263238"/>
<path opacity="0.2" d="M85.7186 110.773H72.5393C72.1987 110.773 71.872 110.638 71.6311 110.397C71.3902 110.156 71.2549 109.829 71.2549 109.489H87.0149C87.0149 109.658 86.9813 109.826 86.916 109.983C86.8507 110.14 86.7551 110.282 86.6345 110.401C86.514 110.521 86.371 110.615 86.2138 110.679C86.0566 110.743 85.8883 110.775 85.7186 110.773Z" fill="white"/>
<path d="M76.5109 110.773H63.3316C62.9909 110.773 62.6642 110.638 62.4233 110.397C62.1824 110.156 62.0471 109.829 62.0471 109.489H77.8071C77.8071 109.658 77.7735 109.826 77.7082 109.983C77.6429 110.14 77.5473 110.282 77.4267 110.401C77.3062 110.521 77.1632 110.615 77.006 110.679C76.8488 110.743 76.6805 110.775 76.5109 110.773Z" fill="#263238"/>
<path opacity="0.5" d="M76.5109 110.773H63.3316C62.9909 110.773 62.6642 110.638 62.4233 110.397C62.1824 110.156 62.0471 109.829 62.0471 109.489H77.8071C77.8071 109.658 77.7735 109.826 77.7082 109.983C77.6429 110.14 77.5473 110.282 77.4267 110.401C77.3062 110.521 77.1632 110.615 77.006 110.679C76.8488 110.743 76.6805 110.775 76.5109 110.773Z" fill="white"/>
<path d="M85.825 110.383H77.7874C77.7403 110.382 77.6941 110.37 77.6524 110.349C77.6106 110.327 77.5746 110.295 77.547 110.257C77.5195 110.219 77.5013 110.175 77.4938 110.128C77.4862 110.082 77.4897 110.034 77.5037 109.989L81.9087 97.401C81.9681 97.232 82.0784 97.0856 82.2245 96.9818C82.3705 96.8781 82.5451 96.8222 82.7242 96.8218H90.7579C90.8053 96.8221 90.852 96.8335 90.8943 96.8551C90.9365 96.8767 90.9731 96.908 91.001 96.9463C91.029 96.9846 91.0476 97.0289 91.0553 97.0757C91.063 97.1225 91.0597 97.1705 91.0455 97.2158L86.6406 109.804C86.5812 109.973 86.4708 110.119 86.3248 110.223C86.1787 110.327 86.0041 110.383 85.825 110.383Z" fill="#263238"/>
<path opacity="0.5" d="M85.825 110.383H77.7874C77.7403 110.382 77.6941 110.37 77.6524 110.349C77.6106 110.327 77.5746 110.295 77.547 110.257C77.5195 110.219 77.5013 110.175 77.4938 110.128C77.4862 110.082 77.4897 110.034 77.5037 109.989L81.9087 97.401C81.9681 97.232 82.0784 97.0856 82.2245 96.9818C82.3705 96.8781 82.5451 96.8222 82.7242 96.8218H90.7579C90.8053 96.8221 90.852 96.8335 90.8943 96.8551C90.9365 96.8767 90.9731 96.908 91.001 96.9463C91.029 96.9846 91.0476 97.0289 91.0553 97.0757C91.063 97.1225 91.0597 97.1705 91.0455 97.2158L86.6406 109.804C86.5812 109.973 86.4708 110.119 86.3248 110.223C86.1787 110.327 86.0041 110.383 85.825 110.383Z" fill="white"/>
<path d="M86.2111 110.383H78.1775C78.13 110.383 78.0833 110.372 78.0411 110.35C77.9989 110.328 77.9623 110.297 77.9344 110.259C77.9064 110.22 77.8878 110.176 77.8801 110.129C77.8723 110.082 77.8757 110.035 77.8899 109.989L82.2948 97.401C82.3542 97.232 82.4645 97.0856 82.6106 96.9818C82.7566 96.8781 82.9312 96.8222 83.1104 96.8218H91.148C91.1951 96.8229 91.2414 96.8348 91.2832 96.8567C91.325 96.8785 91.3612 96.9097 91.389 96.9478C91.4168 96.9859 91.4355 97.0299 91.4435 97.0764C91.4516 97.1228 91.4489 97.1705 91.4356 97.2158L87.0267 109.804C86.9673 109.973 86.857 110.119 86.7109 110.223C86.5649 110.327 86.3903 110.383 86.2111 110.383Z" fill="#263238"/>
<path opacity="0.7" d="M86.2111 110.383H78.1775C78.13 110.383 78.0833 110.372 78.0411 110.35C77.9989 110.328 77.9623 110.297 77.9344 110.259C77.9064 110.22 77.8878 110.176 77.8801 110.129C77.8723 110.082 77.8757 110.035 77.8899 109.989L82.2948 97.401C82.3542 97.232 82.4645 97.0856 82.6106 96.9818C82.7566 96.8781 82.9312 96.8222 83.1104 96.8218H91.148C91.1951 96.8229 91.2414 96.8348 91.2832 96.8567C91.325 96.8785 91.3612 96.9097 91.389 96.9478C91.4168 96.9859 91.4355 97.0299 91.4435 97.0764C91.4516 97.1228 91.4489 97.1705 91.4356 97.2158L87.0267 109.804C86.9673 109.973 86.857 110.119 86.7109 110.223C86.5649 110.327 86.3903 110.383 86.2111 110.383Z" fill="white"/>
<path d="M85.3128 103.599C85.2104 104.079 84.8755 104.47 84.5682 104.47C84.2608 104.47 84.0914 104.076 84.1939 103.599C84.2963 103.122 84.6312 102.724 84.9385 102.724C85.2458 102.724 85.4153 103.114 85.3128 103.599Z" fill="white"/>
</svg>
