<svg width="384" height="384" viewBox="0 0 384 384" fill="none" xmlns="http://www.w3.org/2000/svg">
<path d="M384 293.684H0V293.876H384V293.684Z" fill="#E6E6E6"/>
<path d="M95.8618 305.303H70.4256V305.495H95.8618V305.303Z" fill="#E6E6E6"/>
<path d="M62.377 305.303H47.639V305.495H62.377V305.303Z" fill="#E6E6E6"/>
<path d="M161.702 308.129H146.964V308.321H161.702V308.129Z" fill="#E6E6E6"/>
<path d="M238.548 312.415H205.379V312.607H238.548V312.415Z" fill="#E6E6E6"/>
<path d="M198.543 312.415H193.682V312.607H198.543V312.415Z" fill="#E6E6E6"/>
<path d="M348.173 308.129H276.227V308.321H348.173V308.129Z" fill="#E6E6E6"/>
<path d="M182.016 259.431H33.7229C32.5612 259.429 31.4477 258.966 30.627 258.143C29.8062 257.321 29.3453 256.207 29.3453 255.045V46.5871C29.3554 45.4321 29.8208 44.3276 30.6405 43.5137C31.4601 42.6999 32.5678 42.2422 33.7229 42.2402H182.016C183.179 42.2402 184.294 42.7023 185.117 43.5247C185.939 44.3471 186.401 45.4625 186.401 46.6255V255.045C186.401 256.208 185.939 257.324 185.117 258.146C184.294 258.969 183.179 259.431 182.016 259.431ZM33.7229 42.3938C32.6121 42.3959 31.5475 42.8386 30.7627 43.6247C29.978 44.4109 29.5373 45.4763 29.5373 46.5871V255.045C29.5373 256.156 29.978 257.222 30.7627 258.008C31.5475 258.794 32.6121 259.237 33.7229 259.239H182.016C183.128 259.237 184.193 258.794 184.979 258.008C185.765 257.222 186.207 256.157 186.209 255.045V46.5871C186.207 45.4756 185.765 44.4102 184.979 43.6243C184.193 42.8383 183.128 42.3959 182.016 42.3938H33.7229Z" fill="#E6E6E6"/>
<path d="M348.142 259.431H199.841C198.679 259.429 197.565 258.966 196.743 258.144C195.921 257.322 195.458 256.208 195.456 255.045V46.5871C195.468 45.4314 195.935 44.3269 196.756 43.5133C197.577 42.6996 198.685 42.2422 199.841 42.2402H348.142C349.296 42.2442 350.402 42.7028 351.22 43.5164C352.038 44.3301 352.502 45.4334 352.512 46.5871V255.045C352.512 256.206 352.052 257.319 351.233 258.141C350.414 258.963 349.302 259.427 348.142 259.431ZM199.841 42.3938C198.73 42.3959 197.664 42.8383 196.878 43.6243C196.092 44.4102 195.65 45.4756 195.648 46.5871V255.045C195.65 256.157 196.092 257.222 196.878 258.008C197.664 258.794 198.73 259.237 199.841 259.239H348.142C349.254 259.237 350.319 258.794 351.105 258.008C351.891 257.222 352.333 256.157 352.335 255.045V46.5871C352.333 45.4756 351.891 44.4102 351.105 43.6243C350.319 42.8383 349.254 42.3959 348.142 42.3938H199.841Z" fill="#E6E6E6"/>
<path d="M205.363 228.081H188.475V295.074H205.363V228.081Z" fill="#E0E0E0"/>
<path d="M202.153 295.074H205.363V285.95H198.789L202.153 295.074Z" fill="#FAFAFA"/>
<path d="M131.359 228.081H114.47V295.074H131.359V228.081Z" fill="#E0E0E0"/>
<path d="M205.363 228.081H128.563V289.475H205.363V228.081Z" fill="#FAFAFA"/>
<path d="M202.575 231.099V247.343H131.328V231.099H202.552M202.852 230.8H131.052V247.634H202.875V230.8H202.852Z" fill="#E0E0E0"/>
<path d="M131.766 295.074H128.563V285.95H135.13L131.766 295.074Z" fill="#FAFAFA"/>
<path d="M165.266 239.217C165.266 239.553 165.365 239.881 165.552 240.16C165.738 240.439 166.004 240.656 166.314 240.785C166.624 240.913 166.965 240.947 167.294 240.881C167.624 240.816 167.926 240.654 168.163 240.417C168.401 240.18 168.562 239.877 168.628 239.548C168.693 239.219 168.66 238.877 168.531 238.567C168.403 238.257 168.185 237.992 167.906 237.806C167.627 237.619 167.299 237.52 166.963 237.52C166.513 237.52 166.081 237.698 165.763 238.017C165.445 238.335 165.266 238.767 165.266 239.217Z" fill="#E6E6E6"/>
<path d="M202.575 250.652V266.895H131.328V250.652H202.552M202.852 250.36H131.052V267.195H202.875V250.368L202.852 250.36Z" fill="#E0E0E0"/>
<path d="M165.266 258.816C165.266 259.152 165.365 259.48 165.552 259.759C165.738 260.038 166.004 260.256 166.314 260.384C166.624 260.513 166.965 260.547 167.294 260.481C167.624 260.416 167.926 260.254 168.163 260.017C168.401 259.779 168.562 259.477 168.628 259.148C168.693 258.818 168.66 258.477 168.531 258.167C168.403 257.857 168.185 257.592 167.906 257.405C167.627 257.219 167.299 257.119 166.963 257.119C166.513 257.119 166.081 257.298 165.763 257.616C165.445 257.935 165.266 258.366 165.266 258.816Z" fill="#E6E6E6"/>
<path d="M202.575 270.214V286.464H131.328V270.214H202.552M202.852 269.914H131.052V286.756H202.875V269.914H202.852Z" fill="#E0E0E0"/>
<path d="M165.266 278.339C165.267 278.674 165.368 279.001 165.556 279.28C165.743 279.558 166.009 279.774 166.319 279.901C166.629 280.029 166.97 280.061 167.299 279.995C167.628 279.928 167.929 279.766 168.166 279.529C168.403 279.291 168.564 278.988 168.628 278.659C168.693 278.33 168.659 277.989 168.531 277.68C168.402 277.37 168.184 277.105 167.905 276.919C167.626 276.733 167.299 276.634 166.963 276.634C166.74 276.634 166.518 276.678 166.312 276.764C166.105 276.849 165.918 276.975 165.76 277.134C165.603 277.292 165.478 277.48 165.393 277.687C165.308 277.894 165.265 278.115 165.266 278.339Z" fill="#E6E6E6"/>
<path d="M121.044 189.174H104.156V295.081H121.044V189.174Z" fill="#E0E0E0"/>
<path d="M117.834 295.074H121.044V285.95H114.478L117.834 295.074Z" fill="#FAFAFA"/>
<path d="M57.9303 189.174H41.0419V295.081H57.9303V189.174Z" fill="#E0E0E0"/>
<path d="M121.044 189.174H55.127V289.482H121.044V189.174Z" fill="#FAFAFA"/>
<path d="M118.203 192V214.71H57.9686V192H118.203ZM118.556 191.655H57.6V215.04H118.541V191.662L118.556 191.655Z" fill="#E0E0E0"/>
<path d="M118.203 217.483V277.717H89.5104V217.483H118.203ZM118.556 217.129H89.1648V278.07H118.556V217.129Z" fill="#E0E0E0"/>
<path d="M86.6611 217.483V277.717H57.9686V217.483H86.6611ZM87.0067 217.129H57.6V278.07H86.9914V217.129H87.0067Z" fill="#E0E0E0"/>
<path d="M58.3373 295.074H55.127V285.95H61.7011L58.3373 295.074Z" fill="#FAFAFA"/>
<path d="M86.3846 203.367C86.3831 203.704 86.4818 204.035 86.6682 204.316C86.8546 204.597 87.1204 204.817 87.4318 204.947C87.7432 205.078 88.0862 205.112 88.4175 205.048C88.7487 204.983 89.0532 204.821 89.2924 204.583C89.5316 204.345 89.6948 204.041 89.7612 203.71C89.8276 203.379 89.7943 203.036 89.6655 202.724C89.5367 202.412 89.3182 202.145 89.0376 201.957C88.7571 201.77 88.4271 201.669 88.0896 201.669C87.6387 201.669 87.2062 201.848 86.8867 202.166C86.5672 202.484 86.3867 202.916 86.3846 203.367Z" fill="#E6E6E6"/>
<path d="M92.4672 246.167C92.4672 246.505 92.5674 246.835 92.7551 247.115C92.9427 247.396 93.2095 247.614 93.5215 247.743C93.8335 247.872 94.1767 247.905 94.5076 247.839C94.8385 247.773 95.1423 247.609 95.3804 247.37C95.6186 247.131 95.7804 246.827 95.8453 246.495C95.9102 246.164 95.8753 245.821 95.7451 245.51C95.6149 245.198 95.3952 244.932 95.1138 244.746C94.8324 244.56 94.502 244.461 94.1645 244.462C93.9409 244.462 93.7196 244.507 93.5132 244.592C93.3067 244.678 93.1193 244.804 92.9616 244.962C92.8039 245.121 92.679 245.309 92.5942 245.516C92.5093 245.722 92.4662 245.944 92.4672 246.167Z" fill="#E6E6E6"/>
<path d="M80.3098 246.167C80.3113 246.503 80.4121 246.83 80.5995 247.108C80.787 247.386 81.0526 247.603 81.3628 247.73C81.6731 247.857 82.0141 247.89 82.3429 247.823C82.6716 247.757 82.9733 247.595 83.2099 247.357C83.4465 247.119 83.6074 246.817 83.6723 246.488C83.7371 246.159 83.7031 245.818 83.5744 245.508C83.4457 245.199 83.2282 244.934 82.9492 244.748C82.6703 244.562 82.3424 244.462 82.0071 244.462C81.7835 244.462 81.5622 244.507 81.3558 244.592C81.1493 244.678 80.9619 244.804 80.8042 244.962C80.6465 245.121 80.5216 245.309 80.4368 245.515C80.3519 245.722 80.3088 245.944 80.3098 246.167Z" fill="#E6E6E6"/>
<path d="M78.3898 159.645H71.2704C71.9265 163.098 72.3397 166.593 72.5069 170.105C72.5069 173.945 67.0848 189.174 74.8109 189.174C82.537 189.174 77.1149 173.983 77.1149 170.105C77.2948 166.592 77.7208 163.097 78.3898 159.645Z" fill="#E0E0E0"/>
<path d="M51.3024 175.219V179.827C51.3105 182.297 52.2954 184.664 54.0421 186.411C55.7889 188.158 58.1557 189.143 60.6259 189.151H65.2339C67.7042 189.143 70.0709 188.158 71.8177 186.411C73.5644 184.664 74.5493 182.297 74.5574 179.827V175.219H51.3024Z" fill="#F5F5F5"/>
<path d="M150.275 218.312C150.275 223.688 156.288 228.081 163.638 228.081H170.273C177.623 228.081 183.636 223.688 183.636 218.312H150.275Z" fill="#E0E0E0"/>
<path d="M326.1 210.432C322.076 213.719 316.516 219.733 311.432 228.196C308.037 233.833 305.994 239.716 305.096 247.534C305.096 238.702 305.149 229.217 305.18 220.263C306.202 217.959 308.536 212.644 310.211 208.451C315.794 194.45 317.891 191.002 322.906 178.929C329.61 162.801 336.476 143.708 334.51 145.237C330.501 148.347 315.141 177.109 313.482 181.225C308.961 192.211 306.165 203.83 305.196 215.67C305.196 207.222 305.257 199.542 305.288 193.582C305.395 174.144 305.725 167.87 305.887 165.934C306.509 164.951 307.238 163.807 307.668 163.192C311.278 157.97 312.668 153.531 316.063 145.743C320.886 134.723 325.033 115.146 323.82 116.129C318.766 120.246 314.788 129.078 309.55 140.344C304.312 151.611 305.81 158.085 304.773 167.701C304.558 169.59 304.389 176.717 304.266 186.586C302.915 176.064 300.365 169.137 295.718 162.839C290.004 155.09 284.475 149.86 280.42 147.126C276.365 144.392 287.424 163.423 292.708 171.702C297.416 179.105 301.755 185.626 304.228 192.054C304.097 205.44 304.036 222.382 304.036 238.134C302.822 230.961 300.841 223.227 298.199 217.244C295.02 210.056 290.135 199.027 286.241 195.287C285.312 194.389 290.312 215.839 293.522 221.537C296.732 227.236 299.09 232.62 301.11 235.853C301.578 236.621 303.145 239.516 304.036 241.191C304.036 260.444 304.143 277.432 304.312 283.215H305.142C305.088 281.726 305.073 271.926 305.096 258.962C307.1 251.927 311.677 243.894 315.456 236.567C319.573 228.634 330.125 207.168 326.1 210.432Z" fill="#E0E0E0"/>
<path d="M316.754 295.073H292.685L290.865 271.48H318.574L316.754 295.073Z" fill="#F0F0F0"/>
<path d="M320.364 274.23H289.068L288.177 266.266H321.262L320.364 274.23Z" fill="#F5F5F5"/>
<path d="M95.4317 57.9844H52.3853V105.255H95.4317V57.9844Z" fill="#E0E0E0"/>
<path d="M100.093 57.9844H55.6263V105.255H100.093V57.9844Z" fill="#F5F5F5"/>
<path d="M96.3687 101.53V61.709H59.3511V101.53H96.3687Z" fill="white"/>
<path d="M87.3907 91.8683V71.355H68.3213V91.8683H87.3907Z" fill="#F5F5F5"/>
<path d="M314.918 63.4907H274.929V107.405H314.918V63.4907Z" fill="#E0E0E0"/>
<path d="M319.25 63.4907H277.947V107.405H319.25V63.4907Z" fill="#F5F5F5"/>
<path d="M315.794 103.941V66.9546H281.411V103.941H315.794Z" fill="white"/>
<path d="M298.598 96.1767C304.524 96.1767 309.327 91.3732 309.327 85.4477C309.327 79.5223 304.524 74.7188 298.598 74.7188C292.673 74.7188 287.869 79.5223 287.869 85.4477C287.869 91.3732 292.673 96.1767 298.598 96.1767Z" fill="#F5F5F5"/>
<path d="M140.152 86.1699H108.219V121.237H140.152V86.1699Z" fill="#E0E0E0"/>
<path d="M143.608 86.1699H110.623V121.237H143.608V86.1699Z" fill="#F5F5F5"/>
<path d="M140.844 118.472V88.9346H113.388V118.472H140.844Z" fill="white"/>
<path d="M127.119 96.2305L119.608 109.24H134.63L127.119 96.2305Z" fill="#F5F5F5"/>
<path d="M192 328.366C274.239 328.366 340.908 324.474 340.908 319.672C340.908 314.871 274.239 310.979 192 310.979C109.761 310.979 43.0925 314.871 43.0925 319.672C43.0925 324.474 109.761 328.366 192 328.366Z" fill="#F5F5F5"/>
<path d="M268.224 125.514L260.605 122.442C260.605 122.442 250.552 140.774 247.672 141.703C243.756 142.963 235.645 146.465 230.838 147.079C230.185 147.847 229.117 150.236 229.217 151.104C235.676 153.262 249.869 150.397 252.91 148.139C259.83 143.017 268.224 125.514 268.224 125.514Z" fill="#E58A7B"/>
<path d="M270.566 121.344C271.987 126.589 264.292 137.142 264.292 137.142L254.208 131.489C254.208 131.489 256.097 127.15 258.401 122.734C262.095 115.599 268.946 115.361 270.566 121.344Z" fill="#455A64"/>
<path opacity="0.2" d="M270.566 121.344C271.987 126.589 264.292 137.142 264.292 137.142L254.208 131.489C254.208 131.489 256.097 127.15 258.401 122.734C262.095 115.599 268.946 115.361 270.566 121.344Z" fill="black"/>
<path opacity="0.2" d="M258.209 133.747L262.18 135.974L262.879 123.786C260.567 125.56 258.939 130.905 258.209 133.747Z" fill="black"/>
<path d="M263.931 117.396C263.931 117.396 256.082 134.861 260.659 167.378H291.587C292.078 162.632 290.45 139.469 296.34 117.105C292.948 116.442 289.515 116.003 286.065 115.791C281.688 115.538 277.301 115.538 272.924 115.791C269.89 116.099 266.884 116.636 263.931 117.396Z" fill="#455A64"/>
<path opacity="0.2" d="M263.931 117.396C263.931 117.396 256.082 134.861 260.659 167.378H291.587C292.078 162.632 290.45 139.469 296.34 117.105C292.948 116.442 289.515 116.003 286.065 115.791C281.688 115.538 277.301 115.538 272.924 115.791C269.89 116.099 266.884 116.636 263.931 117.396Z" fill="black"/>
<g style="mix-blend-mode:multiply">
<path d="M256.758 320.363C256.712 321.193 268.439 321.861 282.947 321.861C297.454 321.861 309.266 321.193 309.312 320.363C309.358 319.534 297.638 318.874 283.123 318.874C268.608 318.874 256.812 319.542 256.758 320.363Z" fill="#E8ECF1"/>
</g>
<path d="M277.402 298.57L271.917 300.693L276.642 312.899L282.127 310.776L277.402 298.57Z" fill="#E58A7B"/>
<path d="M301.862 314.458H296.079L293.96 301.071H299.743L301.862 314.458Z" fill="#E58A7B"/>
<path d="M295.68 313.789H302.177C302.29 313.789 302.399 313.83 302.485 313.903C302.571 313.976 302.628 314.077 302.646 314.188L303.483 319.326C303.501 319.455 303.49 319.586 303.453 319.711C303.415 319.836 303.351 319.951 303.265 320.048C303.179 320.146 303.073 320.224 302.954 320.277C302.836 320.33 302.707 320.357 302.577 320.355C300.311 320.317 299.22 320.179 296.364 320.179C294.605 320.179 290.988 320.363 288.545 320.363C286.103 320.363 285.942 317.967 286.948 317.744C291.464 316.769 293.215 315.44 294.72 314.15C294.985 313.917 295.327 313.789 295.68 313.789Z" fill="#263238"/>
<path d="M276.48 311.808L282.624 310.011C282.734 309.98 282.851 309.988 282.955 310.032C283.06 310.077 283.146 310.156 283.2 310.257L285.504 314.865C285.558 314.982 285.585 315.109 285.584 315.237C285.583 315.366 285.555 315.493 285.5 315.609C285.445 315.725 285.365 315.828 285.267 315.911C285.168 315.993 285.052 316.053 284.928 316.086C282.693 316.7 281.196 317.077 278.4 317.891C276.472 318.451 274.506 319.365 272.602 319.972C271.281 320.394 268.178 320.41 266.573 320.41C264.2 320.41 263.67 317.906 264.691 317.791C267.264 317.507 267.61 317.637 269.03 316.923C271.355 315.907 273.462 314.452 275.236 312.637C275.57 312.256 276 311.97 276.48 311.808Z" fill="#263238"/>
<path d="M231.805 147.049L225.446 144.384L222.828 151.434C225.434 151.831 228.085 151.831 230.692 151.434L231.805 147.049Z" fill="#E58A7B"/>
<path d="M220.716 144.2L220.547 148.885L222.828 151.419L225.446 144.369L220.716 144.2Z" fill="#E58A7B"/>
<path d="M278.155 299.606L272.652 301.73L275.089 308.042L280.591 305.918L278.155 299.606Z" fill="#CF6F64"/>
<path d="M299.743 301.071H293.96L295.058 307.976H300.841L299.743 301.071Z" fill="#CF6F64"/>
<path opacity="0.2" d="M259.676 158.584C259.791 159.974 259.922 161.395 260.091 162.854L283.085 155.389C286.676 154.325 289.796 152.068 291.932 148.992C292.024 146.941 292.14 144.783 292.316 142.533C292.393 141.442 292.485 140.321 292.585 139.184C292.685 138.048 292.823 136.788 292.969 135.575L259.676 158.584Z" fill="black"/>
<path d="M267.187 133.394L266.419 133.302C266.872 129.462 269.737 126.436 272.755 126.513V127.281C270.113 127.227 267.594 129.953 267.187 133.394Z" fill="white"/>
<path d="M271.281 140.482H271.15V139.714C273.792 139.814 276.273 137.057 276.68 133.624L277.448 133.716C277.041 137.472 274.268 140.482 271.281 140.482Z" fill="white"/>
<path d="M285.635 100.992C284.552 105.223 283.277 112.973 286.065 115.791C286.065 115.791 284.114 120.084 276.257 120.084C269.076 120.084 272.924 115.791 272.924 115.791C277.701 114.67 277.786 111.183 277.156 107.881L285.635 100.992Z" fill="#E58A7B"/>
<path d="M282.179 103.803L277.164 107.881C277.319 108.64 277.409 109.411 277.432 110.185C278.899 111.644 281.841 107.95 282.14 106.061C282.292 105.317 282.305 104.551 282.179 103.803Z" fill="#CF6F64"/>
<path d="M268.539 100.938C268.888 101.543 269.358 102.069 269.919 102.484C270.481 102.899 271.122 103.194 271.803 103.35C273.646 103.757 274.568 102.059 274.061 100.354C273.608 98.8185 272.095 96.7526 270.221 97.1058C269.819 97.1885 269.444 97.3662 269.125 97.624C268.806 97.8817 268.554 98.2121 268.389 98.5874C268.225 98.9626 268.152 99.3719 268.178 99.7809C268.204 100.19 268.328 100.587 268.539 100.938Z" fill="#CF6F64"/>
<path d="M271.588 87.3984C268.716 88.7117 267.702 100.124 271.311 101.814C274.921 103.503 277.025 84.9024 271.588 87.3984Z" fill="#263238"/>
<path d="M286.51 94.6251C285.819 100.354 285.742 103.726 282.67 106.66C281.718 107.633 280.516 108.325 279.195 108.658C277.875 108.991 276.489 108.953 275.189 108.548C273.889 108.143 272.726 107.386 271.829 106.362C270.932 105.337 270.336 104.085 270.106 102.743C269.176 97.5973 270.459 89.0955 276.204 86.8146C277.411 86.2822 278.738 86.0823 280.048 86.2357C281.358 86.3891 282.604 86.8901 283.655 87.6869C284.707 88.4837 285.526 89.5472 286.028 90.7672C286.53 91.9871 286.696 93.3191 286.51 94.6251Z" fill="#E58A7B"/>
<path d="M277.071 90.3628C281.326 89.2799 284.452 88.5426 283.331 92.0831C281.848 96.814 280.067 101.391 282.455 101.599C283.914 101.729 290.365 98.9951 289.544 96.2226C288.829 93.8111 291.848 93.1506 292.385 91.9295C294.374 87.5058 288.684 88.0895 289.697 85.4015C290.711 82.7135 285.089 78.382 282.017 80.54C277.018 84.0268 268.439 83.973 272.947 78.236C276.181 74.1426 270.413 74.9797 270.413 74.9797C270.413 74.9797 273.9 77.0456 268.032 80.2405C261.827 83.6504 267.517 92.8127 277.071 90.3628Z" fill="#263238"/>
<path d="M288.768 100.938C287.928 102.154 286.666 103.013 285.228 103.35C283.331 103.757 282.601 102.059 283.315 100.354C283.953 98.8185 285.704 96.7526 287.516 97.1058C289.329 97.4591 289.743 99.4329 288.768 100.938Z" fill="#E58A7B"/>
<path d="M260.659 167.378C260.659 167.378 255.467 213.842 255.06 231.475C254.646 249.815 272.655 307.039 272.655 307.039L281.871 303.199C281.871 303.199 271.119 250.913 272.655 232.904C274.284 213.266 281.011 167.409 281.011 167.409L260.659 167.378Z" fill="#455A64"/>
<path opacity="0.2" d="M273.562 180.134C269.422 188.721 272.21 205.701 274.452 215.762C275.305 208.658 276.319 200.947 277.279 193.812C277.187 182.845 276.334 174.374 273.562 180.134Z" fill="black"/>
<path d="M281.464 300.157C281.51 300.157 282.555 303.091 282.555 303.091L271.926 307.561L270.252 304.443L281.464 300.157Z" fill="#455A64"/>
<path d="M271.634 167.378C271.634 167.378 275.604 211.569 278.231 228.119C281.119 246.252 292.439 306.639 292.439 306.639H303.03C303.03 306.639 296.686 247.718 295.488 229.763C294.182 210.286 291.587 167.378 291.587 167.378H271.634Z" fill="#455A64"/>
<path d="M303.191 303.882C303.237 303.882 303.544 306.839 303.544 306.839H291.901L291.072 303.444L303.191 303.882Z" fill="#455A64"/>
<path opacity="0.2" d="M299.136 300.38C299.112 300.38 299.089 300.372 299.07 300.356C299.052 300.341 299.04 300.319 299.036 300.295C298.975 299.758 293.253 246.535 292.178 230.407C291.011 212.912 288.66 174.105 288.637 173.714C288.636 173.701 288.638 173.688 288.642 173.676C288.646 173.664 288.653 173.653 288.662 173.643C288.67 173.634 288.681 173.627 288.692 173.621C288.704 173.616 288.717 173.614 288.73 173.614C288.755 173.614 288.779 173.623 288.798 173.64C288.816 173.657 288.827 173.681 288.829 173.706C288.829 174.098 291.203 212.874 292.37 230.4C293.445 246.528 299.167 299.712 299.22 300.288C299.223 300.3 299.222 300.313 299.219 300.326C299.216 300.338 299.21 300.35 299.202 300.36C299.194 300.37 299.184 300.379 299.173 300.385C299.161 300.391 299.149 300.394 299.136 300.395V300.38Z" fill="black"/>
<path d="M277.724 96.2227C277.724 96.6912 277.432 97.0675 277.125 97.0675C276.818 97.0675 276.595 96.6912 276.626 96.2227C276.657 95.7542 276.918 95.3779 277.225 95.3779C277.532 95.3779 277.755 95.7619 277.724 96.2227Z" fill="#263238"/>
<path d="M272.456 96.2227C272.456 96.6912 272.156 97.0675 271.857 97.0675C271.557 97.0675 271.327 96.6912 271.35 96.2227C271.373 95.7542 271.649 95.3779 271.956 95.3779C272.264 95.3779 272.486 95.7619 272.456 96.2227Z" fill="#263238"/>
<path d="M274.115 96.4604C273.474 97.891 272.647 99.2311 271.657 100.446C272.425 101.214 273.861 100.861 273.861 100.861L274.115 96.4604Z" fill="#DF5753"/>
<path d="M274.253 102.82C274.235 102.82 274.217 102.816 274.201 102.809C274.185 102.802 274.17 102.792 274.158 102.779C274.145 102.766 274.136 102.751 274.13 102.734C274.124 102.717 274.121 102.699 274.122 102.682C274.124 102.644 274.14 102.609 274.168 102.583C274.195 102.558 274.231 102.543 274.268 102.543C274.856 102.547 275.436 102.42 275.968 102.17C276.5 101.92 276.968 101.554 277.34 101.1C277.367 101.076 277.401 101.063 277.436 101.063C277.471 101.063 277.506 101.076 277.532 101.1C277.557 101.125 277.571 101.16 277.571 101.196C277.571 101.231 277.557 101.266 277.532 101.292C277.134 101.775 276.633 102.163 276.066 102.428C275.498 102.692 274.879 102.826 274.253 102.82Z" fill="#263238"/>
<path d="M278.661 94.8096C278.624 94.8285 278.583 94.8384 278.542 94.8384C278.501 94.8384 278.46 94.8285 278.423 94.8096C278.136 94.6239 277.809 94.5084 277.469 94.4723C277.128 94.4363 276.784 94.4808 276.465 94.6023C276.433 94.6179 276.399 94.6271 276.365 94.6293C276.33 94.6315 276.295 94.6268 276.262 94.6154C276.229 94.6039 276.199 94.586 276.173 94.5626C276.147 94.5393 276.126 94.511 276.111 94.4794C276.083 94.411 276.082 94.3343 276.109 94.2654C276.137 94.1966 276.19 94.1411 276.257 94.1108C276.659 93.9468 277.094 93.8821 277.526 93.9222C277.958 93.9623 278.373 94.106 278.738 94.3412C278.767 94.3612 278.793 94.3868 278.812 94.4167C278.831 94.4465 278.845 94.4799 278.851 94.5149C278.858 94.5499 278.857 94.5858 278.849 94.6206C278.842 94.6554 278.827 94.6883 278.807 94.7175C278.768 94.7615 278.718 94.7935 278.661 94.8096Z" fill="#263238"/>
<path d="M270.42 93.2735C270.38 93.2636 270.342 93.2423 270.313 93.2121C270.287 93.187 270.267 93.1572 270.253 93.1242C270.239 93.0912 270.232 93.0558 270.232 93.0201C270.232 92.9843 270.239 92.9489 270.253 92.9159C270.267 92.883 270.287 92.8531 270.313 92.8281C270.607 92.4979 270.974 92.2402 271.384 92.075C271.795 91.9098 272.237 91.8416 272.678 91.8757C272.714 91.8812 272.748 91.8938 272.778 91.9129C272.808 91.932 272.834 91.957 272.854 91.9865C272.874 92.0161 272.888 92.0494 272.895 92.0845C272.902 92.1196 272.901 92.1557 272.893 92.1906C272.877 92.2617 272.835 92.3244 272.776 92.3668C272.716 92.4092 272.643 92.4285 272.571 92.421C272.222 92.399 271.873 92.4568 271.549 92.5898C271.226 92.7229 270.937 92.9278 270.705 93.189C270.67 93.2279 270.625 93.2563 270.574 93.2713C270.524 93.2862 270.471 93.2869 270.42 93.2735Z" fill="#263238"/>
<path d="M299.313 124.662L291.325 122.534C291.325 122.534 283.492 141.819 280.719 143.07C276.956 144.791 267.425 150.75 263.37 153.569C263.148 154.529 263.324 157.071 263.831 157.77C270.743 156.51 283.976 151.419 286.74 148.83C293.046 142.925 299.313 124.662 299.313 124.662Z" fill="#E58A7B"/>
<path d="M293.737 314.803C293.347 314.834 292.959 314.728 292.639 314.503C292.54 314.414 292.466 314.301 292.424 314.174C292.382 314.047 292.374 313.912 292.401 313.781C292.405 313.7 292.432 313.621 292.478 313.553C292.524 313.486 292.588 313.432 292.662 313.397C293.307 313.067 295.112 314.212 295.319 314.342C295.342 314.356 295.359 314.377 295.369 314.402C295.379 314.427 295.38 314.455 295.373 314.48C295.366 314.507 295.353 314.532 295.334 314.552C295.315 314.572 295.292 314.587 295.265 314.596C294.765 314.719 294.252 314.788 293.737 314.803ZM292.969 313.605C292.911 313.592 292.85 313.592 292.792 313.605C292.763 313.62 292.738 313.643 292.722 313.672C292.706 313.7 292.698 313.733 292.7 313.766C292.68 313.855 292.683 313.949 292.71 314.036C292.737 314.124 292.787 314.203 292.854 314.265C293.153 314.534 293.906 314.565 294.897 314.373C294.307 313.984 293.642 313.723 292.946 313.605H292.969Z" fill="#455A64"/>
<path d="M295.227 314.596C295.207 314.602 295.185 314.602 295.165 314.596C294.589 314.273 293.507 313.006 293.668 312.361C293.692 312.259 293.75 312.168 293.832 312.102C293.914 312.037 294.016 312.001 294.121 312C294.224 311.986 294.329 311.995 294.428 312.025C294.528 312.056 294.619 312.107 294.697 312.177C295.334 312.722 295.373 314.396 295.373 314.481C295.377 314.506 295.372 314.532 295.359 314.554C295.347 314.576 295.327 314.594 295.304 314.604C295.278 314.609 295.251 314.606 295.227 314.596ZM294.198 312.253H294.144C293.967 312.253 293.944 312.353 293.937 312.392C293.845 312.768 294.528 313.728 295.096 314.181C295.094 313.532 294.893 312.9 294.52 312.369C294.431 312.291 294.316 312.25 294.198 312.253Z" fill="#455A64"/>
<path d="M273.347 313.843C272.877 314.007 272.365 314.007 271.895 313.843C271.788 313.785 271.698 313.701 271.632 313.599C271.566 313.497 271.527 313.38 271.519 313.259C271.509 313.183 271.519 313.106 271.547 313.035C271.575 312.964 271.621 312.901 271.68 312.852C272.294 312.299 274.806 312.852 275.09 312.96C275.117 312.967 275.141 312.983 275.158 313.005C275.174 313.027 275.183 313.055 275.182 313.083C275.183 313.112 275.176 313.14 275.161 313.165C275.146 313.189 275.124 313.209 275.098 313.221C274.532 313.476 273.946 313.684 273.347 313.843ZM272.095 312.929C272.007 312.947 271.925 312.986 271.857 313.044C271.832 313.063 271.813 313.087 271.803 313.116C271.792 313.145 271.789 313.176 271.795 313.206C271.8 313.286 271.825 313.364 271.868 313.433C271.911 313.501 271.971 313.558 272.041 313.597C272.448 313.812 273.393 313.643 274.614 313.129C273.791 312.921 272.94 312.854 272.095 312.929Z" fill="#455A64"/>
<path d="M275.075 313.221H275.013C274.245 313.083 272.709 312.2 272.663 311.539C272.663 311.386 272.732 311.171 273.101 311.048C273.225 311.003 273.358 310.985 273.489 310.992C273.621 311 273.75 311.035 273.869 311.094C274.698 311.501 275.136 312.975 275.159 313.044C275.164 313.068 275.164 313.092 275.157 313.115C275.15 313.138 275.138 313.158 275.121 313.175C275.109 313.194 275.093 313.21 275.075 313.221ZM273.254 311.278H273.178C272.94 311.363 272.94 311.462 272.94 311.493C272.94 311.892 274.053 312.622 274.829 312.868C274.65 312.251 274.272 311.711 273.754 311.332C273.599 311.253 273.422 311.234 273.254 311.278Z" fill="#455A64"/>
<path d="M264.023 153.116L256.013 156.803L255.084 159.107L258.04 161.096C258.04 161.096 263.57 160.497 265.144 156.941L264.023 153.116Z" fill="#E58A7B"/>
<path d="M264.361 157.901C264.182 156.362 263.674 154.879 262.871 153.554L264.138 152.602C265.091 154.129 265.7 155.845 265.92 157.632L264.361 157.901Z" fill="#263238"/>
<path d="M265.728 154.206C265.897 154.473 265.981 154.785 265.966 155.1C265.952 155.415 265.841 155.719 265.648 155.969C265.455 156.219 265.19 156.403 264.889 156.497C264.588 156.591 264.265 156.59 263.964 156.494C263.663 156.398 263.4 156.211 263.209 155.96C263.018 155.709 262.909 155.405 262.897 155.089C262.885 154.774 262.97 154.462 263.142 154.197C263.313 153.932 263.562 153.726 263.854 153.607C264.182 153.44 264.563 153.409 264.914 153.521C265.265 153.634 265.558 153.88 265.728 154.206Z" fill="#263238"/>
<path d="M250.598 159.782L251.666 160.857L258.854 157.785L256.013 156.802L250.598 159.782Z" fill="#E58A7B"/>
<path opacity="0.2" d="M281.464 300.157C281.51 300.157 282.555 303.091 282.555 303.091L271.926 307.561L270.252 304.443L281.464 300.157Z" fill="black"/>
<path opacity="0.2" d="M303.191 303.882C303.237 303.882 303.544 306.839 303.544 306.839H291.901L291.072 303.444L303.191 303.882Z" fill="black"/>
<path d="M301.394 122.45C303.506 129.262 295.25 138.578 295.25 138.578L283.845 133.924C285.197 129.986 286.756 126.123 288.515 122.35C292.017 114.801 299.259 115.576 301.394 122.45Z" fill="#455A64"/>
<path opacity="0.2" d="M301.394 122.45C303.506 129.262 295.25 138.578 295.25 138.578L283.845 133.924C285.197 129.986 286.756 126.123 288.515 122.35C292.017 114.801 299.259 115.576 301.394 122.45Z" fill="black"/>
<path d="M188.068 54.1978H183.16V54.9888H188.068V54.1978Z" fill="#455A64"/>
<path d="M251.595 85.5066L251.001 98.6875L251.792 98.7231L252.386 85.5422L251.595 85.5066Z" fill="#455A64"/>
<path d="M250.068 57.7461H159.444L151.012 246.459H241.636L250.068 57.7461Z" fill="#455A64"/>
<path opacity="0.56" d="M247.365 60.3418H156.741L148.308 249.055H238.932L247.365 60.3418Z" fill="#FAFAFA"/>
<path opacity="0.07" d="M244.662 62.9297H154.038L145.597 251.643H236.221L244.662 62.9297Z" fill="#455A64"/>
<path d="M234.348 145.236H156.995L156.349 159.675H233.702L234.348 145.236Z" fill="white"/>
<path d="M199.534 134.7H157.463L157.179 141.159H199.25L199.534 134.7Z" fill="#455A64"/>
<path d="M232.604 184.205H155.251L154.606 198.643H231.959L232.604 184.205Z" fill="white"/>
<path opacity="0.47" d="M218.419 218.143H166.403L165.627 235.446H217.644L218.419 218.143Z" fill="#455A64"/>
<path d="M214.94 238.134H162.924C162.901 238.139 162.877 238.139 162.854 238.134C162.847 238.111 162.847 238.087 162.854 238.065L163.622 220.754C163.622 220.742 163.625 220.73 163.629 220.72C163.634 220.709 163.641 220.699 163.65 220.691C163.658 220.683 163.669 220.677 163.68 220.673C163.691 220.67 163.703 220.668 163.715 220.669H215.731C215.741 220.665 215.751 220.662 215.762 220.662C215.773 220.662 215.783 220.665 215.793 220.669C215.798 220.679 215.801 220.689 215.801 220.7C215.801 220.711 215.798 220.721 215.793 220.731L215.04 238.08C215.031 238.098 215.016 238.113 214.998 238.122C214.981 238.132 214.96 238.136 214.94 238.134ZM163.016 237.949H214.848L215.616 220.823H163.784L163.016 237.949Z" fill="white"/>
<path d="M190.449 173.668H155.72L155.436 180.135H190.157L190.449 173.668Z" fill="#455A64"/>
<path d="M217.428 98.5959C217.23 102.798 215.736 106.835 213.151 110.154C211.237 112.661 208.775 114.696 205.952 116.103C203.13 117.511 200.023 118.253 196.869 118.272C194.321 118.292 191.795 117.789 189.448 116.795C187.101 115.802 184.983 114.338 183.223 112.495C181.463 110.652 180.099 108.468 179.215 106.077C178.332 103.687 177.946 101.141 178.084 98.5959C178.354 93.3152 180.631 88.3371 184.45 84.6796C188.269 81.0222 193.34 78.9618 198.628 78.9198C201.178 78.896 203.706 79.3954 206.056 80.3873C208.406 81.3791 210.527 82.8422 212.289 84.6863C214.051 86.5303 215.416 88.7161 216.3 91.1085C217.184 93.501 217.568 96.0492 217.428 98.5959Z" fill="white"/>
<path d="M219.279 83.0361C219.229 84.1534 218.832 85.2272 218.143 86.1081C217.633 86.7739 216.977 87.3145 216.227 87.6885C215.476 88.0625 214.65 88.2601 213.811 88.2662C212.999 88.2711 212.197 88.077 211.477 87.7008C210.757 87.3246 210.14 86.7778 209.679 86.1081C209.07 85.2031 208.768 84.1259 208.819 83.0361C208.893 81.634 209.5 80.3131 210.514 79.3427C211.529 78.3722 212.876 77.8254 214.28 77.8137C214.957 77.8075 215.628 77.9401 216.253 78.2032C216.877 78.4664 217.44 78.8546 217.909 79.3439C218.377 79.8331 218.74 80.4131 218.976 81.0481C219.212 81.6831 219.315 82.3597 219.279 83.0361Z" fill="#455A64"/>
<path d="M165.327 152.455C165.29 153.074 165.02 153.656 164.571 154.084C164.122 154.511 163.528 154.753 162.908 154.759C162.609 154.763 162.312 154.705 162.036 154.589C161.76 154.474 161.51 154.303 161.303 154.087C161.096 153.871 160.935 153.614 160.831 153.334C160.726 153.053 160.681 152.754 160.696 152.455C160.73 151.835 160.999 151.251 161.448 150.823C161.898 150.395 162.494 150.154 163.116 150.151C163.415 150.149 163.711 150.208 163.986 150.324C164.262 150.44 164.511 150.611 164.718 150.827C164.925 151.042 165.086 151.298 165.191 151.578C165.296 151.858 165.342 152.157 165.327 152.455Z" fill="#263238"/>
<path d="M175.68 152.456C175.645 153.075 175.375 153.658 174.926 154.086C174.477 154.514 173.881 154.755 173.261 154.76C172.962 154.762 172.666 154.703 172.391 154.587C172.116 154.471 171.867 154.3 171.661 154.084C171.454 153.868 171.294 153.612 171.19 153.332C171.086 153.052 171.041 152.754 171.057 152.456C171.09 151.837 171.358 151.254 171.806 150.826C172.254 150.398 172.848 150.156 173.468 150.152C173.767 150.148 174.064 150.206 174.34 150.322C174.616 150.437 174.866 150.608 175.073 150.824C175.281 151.04 175.441 151.296 175.546 151.577C175.65 151.858 175.696 152.157 175.68 152.456Z" fill="#263238"/>
<path d="M186.04 152.456C186.005 153.075 185.736 153.658 185.286 154.086C184.837 154.514 184.242 154.755 183.621 154.76C183.322 154.762 183.026 154.703 182.75 154.587C182.475 154.471 182.226 154.3 182.019 154.084C181.812 153.869 181.651 153.613 181.546 153.333C181.441 153.053 181.395 152.754 181.409 152.456C181.444 151.836 181.714 151.253 182.163 150.825C182.613 150.397 183.208 150.156 183.828 150.152C184.128 150.148 184.425 150.206 184.701 150.322C184.977 150.437 185.226 150.608 185.434 150.824C185.641 151.04 185.802 151.296 185.906 151.577C186.01 151.858 186.056 152.157 186.04 152.456Z" fill="#263238"/>
<path d="M163.584 191.424C163.547 192.043 163.277 192.625 162.828 193.052C162.379 193.48 161.785 193.722 161.165 193.728C160.866 193.731 160.569 193.672 160.294 193.556C160.018 193.44 159.769 193.269 159.562 193.053C159.355 192.837 159.194 192.581 159.09 192.301C158.985 192.021 158.938 191.723 158.953 191.424C158.988 190.805 159.258 190.222 159.707 189.794C160.156 189.366 160.752 189.125 161.372 189.12C161.671 189.118 161.968 189.176 162.243 189.292C162.519 189.409 162.768 189.58 162.975 189.795C163.182 190.011 163.343 190.267 163.447 190.547C163.552 190.827 163.599 191.126 163.584 191.424Z" fill="#263238"/>
<path d="M173.937 191.424C173.902 192.042 173.633 192.624 173.185 193.052C172.738 193.48 172.144 193.721 171.525 193.728C171.226 193.732 170.929 193.674 170.653 193.558C170.377 193.442 170.127 193.271 169.92 193.055C169.713 192.839 169.552 192.583 169.448 192.303C169.343 192.022 169.298 191.723 169.313 191.424C169.348 190.805 169.618 190.222 170.067 189.794C170.517 189.366 171.112 189.125 171.732 189.12C172.031 189.118 172.327 189.176 172.602 189.293C172.878 189.409 173.126 189.58 173.332 189.796C173.539 190.012 173.699 190.267 173.803 190.548C173.907 190.828 173.952 191.126 173.937 191.424Z" fill="#263238"/>
<path d="M184.32 191.424C184.285 192.043 184.015 192.626 183.566 193.054C183.117 193.482 182.521 193.723 181.901 193.728C181.602 193.729 181.306 193.67 181.031 193.553C180.756 193.437 180.508 193.266 180.301 193.05C180.094 192.835 179.933 192.579 179.828 192.3C179.723 192.02 179.675 191.722 179.689 191.424C179.726 190.805 179.996 190.223 180.445 189.795C180.894 189.368 181.488 189.126 182.108 189.12C182.407 189.116 182.704 189.174 182.98 189.29C183.257 189.406 183.506 189.577 183.713 189.793C183.921 190.009 184.081 190.265 184.186 190.545C184.29 190.826 184.336 191.125 184.32 191.424Z" fill="#263238"/>
<path d="M194.657 191.424C194.62 192.043 194.35 192.625 193.901 193.052C193.452 193.48 192.858 193.722 192.238 193.728C191.939 193.73 191.644 193.67 191.369 193.554C191.093 193.437 190.845 193.266 190.638 193.051C190.431 192.835 190.27 192.58 190.165 192.3C190.06 192.021 190.013 191.723 190.026 191.424C190.063 190.805 190.333 190.223 190.782 189.796C191.231 189.368 191.826 189.127 192.445 189.12C192.744 189.118 193.041 189.176 193.316 189.292C193.592 189.409 193.841 189.58 194.048 189.795C194.255 190.011 194.416 190.267 194.521 190.547C194.625 190.827 194.672 191.126 194.657 191.424Z" fill="#263238"/>
<path d="M205.056 191.424C205.019 192.043 204.749 192.625 204.3 193.052C203.851 193.48 203.257 193.722 202.637 193.728C202.337 193.732 202.041 193.674 201.765 193.558C201.488 193.442 201.239 193.271 201.032 193.055C200.824 192.839 200.664 192.583 200.559 192.303C200.455 192.022 200.409 191.723 200.425 191.424C200.46 190.805 200.73 190.222 201.179 189.794C201.628 189.366 202.224 189.125 202.844 189.12C203.143 189.118 203.44 189.176 203.715 189.292C203.991 189.409 204.24 189.58 204.447 189.795C204.654 190.011 204.815 190.267 204.919 190.547C205.024 190.827 205.071 191.126 205.056 191.424Z" fill="#263238"/>
<path d="M203.484 97.571C206.699 94.4275 206.869 89.3889 203.865 86.317C200.861 83.245 195.82 83.303 192.605 86.4464C189.391 89.5899 189.22 94.6285 192.224 97.7005C195.229 100.772 200.27 100.714 203.484 97.571Z" fill="#455A64"/>
<path d="M213.151 110.154C211.237 112.661 208.775 114.696 205.952 116.103C203.13 117.511 200.023 118.252 196.869 118.272C193.811 118.298 190.793 117.571 188.083 116.155C185.372 114.74 183.051 112.679 181.325 110.154C185.057 106.437 190.963 104.01 197.507 104.01C204.05 104.01 209.748 106.437 213.151 110.154Z" fill="#455A64"/>
<path opacity="0.1" d="M203.484 97.571C206.699 94.4275 206.869 89.3889 203.865 86.317C200.861 83.245 195.82 83.303 192.605 86.4464C189.391 89.5899 189.22 94.6285 192.224 97.7005C195.229 100.772 200.27 100.714 203.484 97.571Z" fill="white"/>
<path opacity="0.1" d="M213.151 110.154C211.237 112.661 208.775 114.696 205.952 116.103C203.13 117.511 200.023 118.252 196.869 118.272C193.811 118.298 190.793 117.571 188.083 116.155C185.372 114.74 183.051 112.679 181.325 110.154C185.057 106.437 190.963 104.01 197.507 104.01C204.05 104.01 209.748 106.437 213.151 110.154Z" fill="white"/>
<path d="M100.155 163.154C99.4253 164.751 98.6573 166.51 97.9891 168.215C97.3209 169.92 96.6374 171.678 96.0461 173.429C94.8386 176.88 93.919 180.425 93.2966 184.028L93.1277 185.157C93.1116 185.35 93.1298 185.545 93.1814 185.733C93.3627 186.369 93.6481 186.971 94.0262 187.515C95.0125 188.921 96.1566 190.209 97.4361 191.355C98.7852 192.609 100.2 193.791 101.676 194.895C103.15 196.032 104.701 197.138 106.23 198.182L104.794 200.878C101.144 199.288 97.6803 197.302 94.464 194.956C92.7481 193.705 91.1995 192.239 89.856 190.594C89.0596 189.615 88.4386 188.506 88.0205 187.315C87.7773 186.571 87.6529 185.793 87.6518 185.011C87.6518 184.827 87.6518 184.558 87.6518 184.427V184.051L87.7286 183.283C88.1689 179.282 89.0103 175.335 90.24 171.502C90.839 169.612 91.4765 167.731 92.2061 165.895C92.9357 164.06 93.6883 162.263 94.6176 160.396L100.155 163.154Z" fill="#E58A7B"/>
<path d="M105.147 197.706L110.577 194.957L109.171 200.916C109.171 200.916 105.446 201.961 103.718 200.148L105.147 197.706Z" fill="#E58A7B"/>
<path d="M115.546 195.932L114.102 200.862L109.171 200.916L110.577 194.957L115.546 195.932Z" fill="#E58A7B"/>
<path d="M123.21 134.4C123.501 135.464 123.905 136.494 124.416 137.472C124.267 137.641 124.074 137.767 123.859 137.836C123.644 137.905 123.415 137.914 123.195 137.864L123.21 134.4Z" fill="#DF5753"/>
<path d="M123.049 134.446C123.367 134.446 123.625 134.051 123.625 133.563C123.625 133.075 123.367 132.68 123.049 132.68C122.731 132.68 122.473 133.075 122.473 133.563C122.473 134.051 122.731 134.446 123.049 134.446Z" fill="#263238"/>
<path d="M122.88 132.71L124.047 132.38C124.047 132.38 123.479 133.286 122.88 132.71Z" fill="#263238"/>
<path d="M108.211 140.037C108.91 143.608 109.609 150.159 107.105 152.548C107.105 152.548 108.088 156.173 114.732 156.173C122.035 156.173 118.218 152.548 118.218 152.548C114.232 151.596 114.332 148.639 115.031 145.859L108.211 140.037Z" fill="#E58A7B"/>
<path d="M106.268 131.896C106.637 137.863 106.668 140.398 109.678 143.462C114.217 148.07 121.467 146.319 122.888 140.39C124.17 135.014 123.356 126.167 117.512 123.794C116.229 123.265 114.832 123.073 113.454 123.234C112.076 123.396 110.762 123.907 109.637 124.718C108.511 125.529 107.611 126.614 107.021 127.87C106.432 129.126 106.173 130.512 106.268 131.896Z" fill="#E58A7B"/>
<path d="M106.86 125.184C103.864 126.275 99.8707 125.46 101.437 134.7C103.096 144.484 100.547 147.702 100.547 147.702C100.547 147.702 111.905 150.121 123.502 147.556C123.502 147.556 119.962 141.366 120.952 136.804C122.22 131.044 121.221 128.916 121.221 128.916C121.221 128.916 111.068 123.648 106.86 125.184Z" fill="#263238"/>
<path d="M119.532 135.007C119.535 136.141 119.86 137.252 120.468 138.209C121.283 139.453 122.243 138.977 122.481 137.656C122.696 136.497 122.534 134.446 121.498 133.647C120.461 132.849 119.547 133.632 119.532 135.007Z" fill="#E58A7B"/>
<path d="M104.256 126.19C103.396 123.771 107.497 120.046 116.175 121.582C124.854 123.118 125.23 130.345 125.23 130.345L123.479 128.256L123.556 130.452L114.639 132.165L104.256 126.19Z" fill="#263238"/>
<path d="M104.993 152.955C104.942 152.604 105.03 152.247 105.238 151.96C105.446 151.673 105.758 151.479 106.107 151.419C108.81 150.973 114.954 150.067 118.042 150.497C120.346 150.82 120.945 152.156 121.044 153.254C121.06 153.447 121.034 153.64 120.969 153.822C120.904 154.003 120.8 154.169 120.666 154.307C120.531 154.445 120.368 154.553 120.189 154.623C120.009 154.693 119.816 154.724 119.624 154.713L106.276 154.114C105.961 154.099 105.662 153.974 105.428 153.763C105.194 153.552 105.041 153.266 104.993 152.955Z" fill="#455A64"/>
<path opacity="0.6" d="M104.993 152.955C104.942 152.604 105.03 152.247 105.238 151.96C105.446 151.673 105.758 151.479 106.107 151.419C108.81 150.973 114.954 150.067 118.042 150.497C120.346 150.82 120.945 152.156 121.044 153.254C121.06 153.447 121.034 153.64 120.969 153.822C120.904 154.003 120.8 154.169 120.666 154.307C120.531 154.445 120.368 154.553 120.189 154.623C120.009 154.693 119.816 154.724 119.624 154.713L106.276 154.114C105.961 154.099 105.662 153.974 105.428 153.763C105.194 153.552 105.041 153.266 104.993 152.955Z" fill="black"/>
<path d="M112.712 287.124L117.665 290.565L125.952 279.329L120.998 275.896L112.712 287.124Z" fill="#E58A7B"/>
<path d="M101.161 286.901L106.391 289.881L113.725 278L108.495 275.021L101.161 286.901Z" fill="#E58A7B"/>
<path d="M125.944 279.329L121.674 285.12L116.721 281.687L120.991 275.896L125.944 279.329Z" fill="#CF6F64"/>
<path d="M108.488 275.021L113.725 278.008L109.947 284.129L104.709 281.141L108.488 275.021Z" fill="#CF6F64"/>
<path d="M116.89 190.464C116.89 190.464 136.228 214.832 132.595 238.141C129.669 256.965 112.696 282.455 112.696 282.455L104.717 278.492C110.341 267.222 115.141 255.559 119.078 243.594C120.293 239.88 120.647 235.938 120.115 232.066C119.583 228.195 118.178 224.494 116.006 221.245C106.207 206.937 90.5088 215.455 101.069 190.464H116.89Z" fill="#455A64"/>
<path opacity="0.6" d="M116.89 190.464C116.89 190.464 136.228 214.832 132.595 238.141C129.669 256.965 112.696 282.455 112.696 282.455L104.717 278.492C110.341 267.222 115.141 255.559 119.078 243.594C120.293 239.88 120.647 235.938 120.115 232.066C119.583 228.195 118.178 224.494 116.006 221.245C106.207 206.937 90.5088 215.455 101.069 190.464H116.89Z" fill="black"/>
<path opacity="0.4" d="M126.374 206.116L123.564 203.32C123.564 203.543 129.009 237.158 130.537 246.605C131.439 243.845 132.129 241.021 132.603 238.157C134.4 226.721 130.644 215.04 126.374 206.116Z" fill="black"/>
<path d="M125.522 190.464C125.522 190.464 148.808 221.092 149.468 239.455C150.013 254.815 124.124 284.575 124.124 284.575L116.598 279.705C116.598 279.705 131.75 258.57 135.567 241.305C134.093 224.194 102.912 190.464 102.912 190.464H125.522Z" fill="#455A64"/>
<path opacity="0.6" d="M125.522 190.464C125.522 190.464 148.808 221.092 149.468 239.455C150.013 254.815 124.124 284.575 124.124 284.575L116.598 279.705C116.598 279.705 131.75 258.57 135.567 241.305C134.093 224.194 102.912 190.464 102.912 190.464H125.522Z" fill="black"/>
<path d="M96.7142 153.915C94.2259 154.506 91.8374 163.553 91.8374 163.553L101.568 170.05C101.568 170.05 104.809 162.893 103.672 159.759C102.497 156.495 99.84 153.17 96.7142 153.915Z" fill="#455A64"/>
<path opacity="0.2" d="M98.6189 159.744L97.9431 167.631L101.56 170.058C102.559 167.809 103.299 165.454 103.764 163.038L98.6189 159.744Z" fill="black"/>
<path d="M128.402 154.091C128.402 154.091 131.274 155.097 125.522 190.456H101.053C101.468 180.472 101.476 174.328 96.7142 153.915C100.14 153.209 103.613 152.752 107.105 152.548C110.805 152.282 114.519 152.282 118.218 152.548C122.995 152.985 128.402 154.091 128.402 154.091Z" fill="#455A64"/>
<path d="M130.89 159.744C131.443 161.28 132.027 162.931 132.641 164.521C133.256 166.111 133.839 167.746 134.461 169.359L136.343 174.182L136.819 175.388L137.065 175.987L137.18 176.287C137.18 176.34 137.18 176.34 137.18 176.333C137.04 176.135 136.856 175.972 136.643 175.856C136.339 175.678 135.996 175.575 135.644 175.557C135.352 175.548 135.061 175.603 134.792 175.718C134.438 175.88 134.438 175.949 134.446 175.941C134.51 175.89 134.567 175.83 134.615 175.764C135.04 175.206 135.408 174.607 135.713 173.975C136.074 173.268 136.42 172.516 136.765 171.755C137.441 170.219 138.063 168.63 138.685 167.024C139.308 165.419 139.899 163.799 140.475 162.163L142.226 157.263L145.183 158.031C144.599 161.533 143.846 164.943 142.94 168.415C142.502 170.143 141.988 171.855 141.404 173.583C141.112 174.451 140.79 175.311 140.421 176.194C140.037 177.153 139.564 178.073 139.008 178.944C138.804 179.237 138.578 179.514 138.332 179.773C137.94 180.197 137.464 180.534 136.934 180.764C136.464 180.966 135.956 181.06 135.444 181.04C134.872 181.019 134.314 180.853 133.824 180.557C133.245 180.196 132.765 179.697 132.426 179.105C132.311 178.905 132.211 178.706 132.142 178.56L131.996 178.268L131.704 177.669L131.121 176.479C130.353 174.881 129.585 173.268 128.916 171.648C128.248 170.027 127.542 168.384 126.881 166.733C126.221 165.081 125.629 163.43 125.069 161.648L130.89 159.744Z" fill="#E58A7B"/>
<path d="M128.402 154.091C131.343 154.79 134.653 163.484 134.653 163.484L125.906 170.926C125.906 170.926 120.246 161.449 121.39 158.323C122.58 155.067 124.562 153.178 128.402 154.091Z" fill="#455A64"/>
<path d="M143.616 154.514L146.688 151.949L148.823 155.274L147.249 158.047C147.249 158.047 144.745 160.351 142.533 159.176C142.182 158.387 142.098 157.504 142.293 156.663C142.489 155.822 142.953 155.067 143.616 154.514Z" fill="#E58A7B"/>
<path d="M152.233 151.956L152.003 152.794L147.141 153.608L146.665 151.949L152.233 151.956Z" fill="#E58A7B"/>
<path d="M124.723 284.966L115.953 279.299L117.527 276.564L127.38 282.624L124.723 284.966Z" fill="#455A64"/>
<path d="M109.824 289.482C109.054 289.388 108.315 289.126 107.658 288.714C107.631 288.705 107.608 288.687 107.591 288.664C107.574 288.64 107.565 288.612 107.565 288.584C107.565 288.555 107.574 288.527 107.591 288.504C107.608 288.48 107.631 288.463 107.658 288.453C107.896 288.376 109.962 287.739 110.561 288.23C110.629 288.286 110.68 288.359 110.709 288.442C110.739 288.524 110.746 288.613 110.73 288.699C110.72 288.837 110.674 288.97 110.597 289.086C110.521 289.202 110.416 289.296 110.292 289.359C110.149 289.438 109.988 289.48 109.824 289.482ZM108.096 288.637C109.056 289.129 109.824 289.306 110.193 289.121C110.273 289.077 110.34 289.013 110.389 288.935C110.437 288.857 110.465 288.768 110.469 288.676C110.469 288.553 110.469 288.499 110.4 288.468C110.077 288.207 108.925 288.407 108.081 288.637H108.096Z" fill="#263238"/>
<path d="M107.712 288.768C107.671 288.767 107.633 288.751 107.604 288.722C107.593 288.701 107.587 288.677 107.587 288.653C107.587 288.629 107.593 288.605 107.604 288.584C107.604 288.514 108.104 286.848 108.887 286.472C108.987 286.426 109.096 286.402 109.206 286.402C109.316 286.402 109.424 286.426 109.524 286.472C109.632 286.506 109.726 286.575 109.79 286.668C109.854 286.761 109.885 286.873 109.878 286.986C109.824 287.677 108.419 288.63 107.773 288.791L107.712 288.768ZM109.202 286.671C109.127 286.674 109.054 286.692 108.987 286.725C108.511 286.955 108.119 287.854 107.927 288.399C108.603 288.115 109.532 287.362 109.563 286.94C109.563 286.871 109.563 286.786 109.386 286.71C109.329 286.679 109.266 286.658 109.202 286.648V286.671Z" fill="#263238"/>
<path d="M120.783 292.8C119.916 292.8 118.71 291.686 118.049 291.003C118.032 290.979 118.023 290.951 118.023 290.922C118.023 290.893 118.032 290.865 118.049 290.842C118.064 290.817 118.086 290.797 118.112 290.783C118.137 290.77 118.166 290.763 118.195 290.765C118.502 290.765 121.167 291.164 121.544 291.917C121.584 291.984 121.605 292.061 121.605 292.14C121.605 292.218 121.584 292.295 121.544 292.362C121.487 292.479 121.402 292.58 121.296 292.656C121.19 292.731 121.066 292.778 120.937 292.792L120.783 292.8ZM118.556 291.11C119.524 292.047 120.376 292.57 120.86 292.508C120.945 292.497 121.026 292.465 121.095 292.416C121.165 292.366 121.221 292.3 121.26 292.224C121.277 292.198 121.286 292.167 121.286 292.136C121.286 292.104 121.277 292.074 121.26 292.047C121.06 291.633 119.639 291.279 118.556 291.11Z" fill="#263238"/>
<path d="M118.641 291.072C118.468 291.077 118.296 291.064 118.126 291.033C118.102 291.03 118.08 291.02 118.061 291.005C118.042 290.991 118.028 290.971 118.019 290.949C118.007 290.926 118.001 290.901 118.001 290.876C118.001 290.851 118.007 290.826 118.019 290.803C118.065 290.749 119.101 289.497 120.084 289.413C120.363 289.391 120.638 289.479 120.852 289.659C121.152 289.92 121.137 290.15 121.06 290.296C120.868 290.818 119.539 291.072 118.641 291.072ZM118.441 290.788C119.301 290.834 120.676 290.55 120.852 290.173C120.852 290.173 120.914 290.05 120.714 289.881C120.635 289.812 120.542 289.76 120.442 289.729C120.341 289.697 120.235 289.686 120.131 289.697C119.468 289.882 118.879 290.265 118.441 290.795V290.788Z" fill="#263238"/>
<path d="M107.919 287.938L101.407 286.095C101.294 286.061 101.174 286.07 101.067 286.119C100.961 286.169 100.877 286.256 100.831 286.364L98.6342 291.302C98.5827 291.429 98.5584 291.565 98.5632 291.701C98.5679 291.838 98.6015 291.972 98.6617 292.094C98.7219 292.217 98.8074 292.325 98.9125 292.412C99.0177 292.5 99.1401 292.564 99.2717 292.6C101.576 293.199 102.682 293.368 105.546 294.19C107.313 294.681 109.832 295.595 112.266 296.287C114.701 296.978 115.515 294.605 114.57 294.098C110.3 291.84 109.962 290.258 108.795 288.568C108.586 288.262 108.276 288.039 107.919 287.938Z" fill="#455A64"/>
<path d="M118.226 290.104L112.666 286.264C112.571 286.195 112.455 286.164 112.339 286.175C112.223 286.186 112.115 286.24 112.036 286.326L108.349 290.288C108.26 290.391 108.193 290.511 108.153 290.642C108.113 290.772 108.102 290.909 108.119 291.044C108.137 291.179 108.182 291.309 108.254 291.425C108.325 291.541 108.421 291.641 108.534 291.717C110.492 293.03 111.506 293.56 113.956 295.257C115.492 296.302 118.464 298.621 120.538 300.065C122.611 301.509 124.155 299.527 123.418 298.744C120.115 295.219 119.393 293.007 118.848 291.003C118.753 290.639 118.533 290.321 118.226 290.104Z" fill="#455A64"/>
<path d="M113.718 282.962L103.695 277.978L104.732 275.259L115.438 280.512L113.718 282.962Z" fill="#455A64"/>
<path d="M100.685 189.02L99.84 191.232C99.7555 191.401 99.9552 191.577 100.239 191.577H125.645C125.868 191.577 126.052 191.47 126.067 191.331L126.282 189.135C126.282 188.989 126.106 188.859 125.868 188.859H101.084C101.01 188.851 100.934 188.862 100.865 188.891C100.795 188.919 100.734 188.963 100.685 189.02Z" fill="#455A64"/>
<path opacity="0.4" d="M100.685 189.02L99.84 191.232C99.7555 191.401 99.9552 191.577 100.239 191.577H125.645C125.868 191.577 126.052 191.47 126.067 191.331L126.282 189.135C126.282 188.989 126.106 188.859 125.868 188.859H101.084C101.01 188.851 100.934 188.862 100.865 188.891C100.795 188.919 100.734 188.963 100.685 189.02Z" fill="white"/>
<path d="M104.686 191.792H104.018C103.887 191.792 103.788 191.723 103.795 191.639L104.11 188.789C104.11 188.713 104.233 188.644 104.364 188.644H105.032C105.162 188.644 105.262 188.713 105.254 188.789L104.94 191.639C104.932 191.723 104.817 191.792 104.686 191.792Z" fill="#455A64"/>
<path d="M120.353 191.792H119.693C119.562 191.792 119.462 191.723 119.47 191.639L119.777 188.789C119.777 188.713 119.908 188.644 120.038 188.644H120.699C120.829 188.644 120.937 188.713 120.922 188.789L120.614 191.639C120.576 191.723 120.492 191.792 120.353 191.792Z" fill="#455A64"/>
<g style="mix-blend-mode:multiply">
<path d="M104.102 321.853C115.466 321.853 124.677 321.186 124.677 320.363C124.677 319.541 115.466 318.874 104.102 318.874C92.7393 318.874 83.5277 319.541 83.5277 320.363C83.5277 321.186 92.7393 321.853 104.102 321.853Z" fill="#F5F5F5"/>
</g>
<path d="M116.636 318.259C112.996 317.199 108.956 315.84 106.514 314.419C106.445 314.373 106.368 314.35 106.299 314.312V297.83H113.664C114.223 297.797 114.748 297.552 115.133 297.144C115.517 296.737 115.731 296.198 115.731 295.638C115.731 295.078 115.517 294.539 115.133 294.131C114.748 293.724 114.223 293.478 113.664 293.445H106.337V218.319H101.914V293.445H94.5946C94.2957 293.427 93.9964 293.471 93.715 293.573C93.4336 293.675 93.1761 293.834 92.9582 294.039C92.7403 294.245 92.5668 294.492 92.4481 294.767C92.3295 295.042 92.2683 295.338 92.2683 295.638C92.2683 295.937 92.3295 296.233 92.4481 296.508C92.5668 296.783 92.7403 297.031 92.9582 297.236C93.1761 297.441 93.4336 297.6 93.715 297.702C93.9964 297.805 94.2957 297.848 94.5946 297.83H101.914V314.289C101.844 314.289 101.775 314.35 101.706 314.396C99.2256 315.84 95.2166 317.199 91.5763 318.236C91.3304 318.31 91.1193 318.47 90.9811 318.687C90.8429 318.904 90.7868 319.163 90.823 319.417C90.8592 319.671 90.9853 319.904 91.1784 320.074C91.3716 320.243 91.619 320.338 91.8758 320.34H116.337C116.582 320.324 116.814 320.223 116.995 320.056C117.175 319.889 117.293 319.664 117.328 319.421C117.363 319.177 117.313 318.929 117.187 318.718C117.062 318.506 116.867 318.344 116.636 318.259Z" fill="#E0E0E0"/>
<path d="M117.765 210.67H90.455C88.2579 210.67 86.4768 212.451 86.4768 214.648V222.766C86.4768 224.963 88.2579 226.744 90.455 226.744H117.765C119.962 226.744 121.743 224.963 121.743 222.766V214.648C121.743 212.451 119.962 210.67 117.765 210.67Z" fill="#455A64"/>
<path d="M90.2016 226.752V228.15C90.2016 229.302 91.4534 230.239 92.9894 230.239H115.261C116.797 230.239 118.049 229.302 118.049 228.15V226.752H90.2016Z" fill="#455A64"/>
<path opacity="0.3" d="M90.2016 226.752V228.15C90.2016 229.302 91.4534 230.239 92.9894 230.239H115.261C116.797 230.239 118.049 229.302 118.049 228.15V226.752H90.2016Z" fill="white"/>
</svg>
