<svg width="801" height="542" viewBox="0 0 801 542" fill="none" xmlns="http://www.w3.org/2000/svg">
<g clip-path="url(#clip0_1301_254)">
<path d="M731.892 189.445C731.052 190.135 730.212 190.795 729.352 191.445H517.212C515.632 190.795 514.059 190.129 512.492 189.445C490.097 179.699 469.252 166.721 450.622 150.925C438.252 140.445 426.872 129.625 418.622 119.485C407.113 105.335 396.512 89.9152 391.582 72.3453C386.662 54.7753 388.132 34.6353 399.122 20.0653C402.526 15.5834 406.709 11.752 411.472 8.7553C412.262 8.2553 413.062 7.77531 413.882 7.32531C427.062 -0.0746975 443.692 -1.8747 458.533 1.9553C479.783 7.4453 497.442 22.7753 510.042 40.7553C522.642 58.7253 530.823 79.3653 538.882 99.7753C547.062 63.3453 571.832 30.7153 605.292 14.1253C638.742 -2.46471 680.303 -2.2647 713.042 15.7053C723.344 21.3937 732.649 28.7231 740.593 37.4053C741.382 38.2553 742.153 39.1253 742.912 40.0053C758.882 58.4953 768.872 82.1753 769.692 106.595C770.742 138.055 756.162 169.655 731.892 189.445Z" fill="#F2F2F2"/>
<path d="M525.691 191.446H522.691C522.652 190.776 522.602 190.116 522.542 189.446C521.493 176.365 519.298 163.402 515.981 150.706C508.373 121.719 495.377 94.4248 477.671 70.246C460.017 45.9899 437.76 25.4461 412.171 9.78601C411.984 9.67876 411.824 9.53026 411.703 9.35179C411.581 9.17331 411.502 8.96957 411.472 8.75601C411.423 8.47676 411.454 8.18934 411.562 7.92726C411.67 7.66517 411.851 7.43922 412.082 7.27572C412.314 7.11223 412.587 7.01792 412.87 7.00381C413.154 6.9897 413.435 7.05636 413.682 7.19601C413.75 7.23579 413.817 7.27918 413.881 7.326C428.379 16.1626 441.837 26.6015 454.002 38.446C475.761 59.6722 493.306 84.8248 505.712 112.576C516.656 136.88 523.359 162.879 525.532 189.446C525.592 190.116 525.642 190.786 525.691 191.446Z" fill="white"/>
<path d="M742.914 40.0048C742.892 40.0161 742.868 40.0228 742.844 40.0248C740.654 40.4248 738.454 40.8448 736.273 41.2948C718.378 44.9699 700.861 50.2891 683.943 57.1848C667.071 64.0708 650.841 72.4367 635.443 82.1848C620.026 91.9278 605.488 102.997 591.994 115.265C578.499 127.516 566.12 140.942 555.003 155.385C546.695 166.207 539.14 177.587 532.394 189.445C532.014 190.105 531.644 190.775 531.273 191.445H527.844C528.204 190.775 528.574 190.105 528.954 189.445C537.116 174.915 546.475 161.091 556.934 148.115C568.499 133.755 581.32 120.453 595.244 108.365C609.079 96.3454 623.927 85.5452 639.624 76.0848C655.385 66.5862 671.956 58.5013 689.144 51.9248C705.822 45.5486 723.042 40.6889 740.594 37.4048C741.083 37.3148 741.563 37.2248 742.054 37.1348C743.923 36.7948 744.724 39.6148 742.914 40.0048Z" fill="white"/>
<path d="M197.68 197.39C203.015 187.319 203.896 174.203 197.262 164.936C193.314 159.42 187.148 155.799 180.679 153.756C174.21 151.714 167.386 151.113 160.62 150.617C153.923 150.126 147.106 149.733 140.564 151.247C134.022 152.762 127.685 156.463 124.497 162.373C119.113 172.359 124.018 185.163 120.064 195.796C116.435 205.554 106.106 211.258 95.9532 213.56C85.8002 215.863 75.203 215.618 65.045 217.897C54.8869 220.177 44.5414 225.829 40.8481 235.563C38.1773 242.601 39.5043 250.709 43.0235 257.364C46.5427 264.019 52.0543 269.407 57.9047 274.145C66.6325 281.214 76.8435 287.267 88.0578 287.88C99.8741 288.526 111.428 282.901 119.933 274.672C128.437 266.443 134.227 255.81 138.853 244.917C141.788 238.007 144.561 230.571 150.442 225.905C154.763 222.476 160.259 220.974 165.59 219.553L171.626 217.944C177.095 216.513 182.214 213.978 186.667 210.495C191.12 207.012 194.813 202.655 197.52 197.691C197.574 197.591 197.627 197.491 197.68 197.39Z" fill="#2F2E41"/>
<path d="M150.08 528.665H137.821L131.988 481.377H150.083L150.08 528.665Z" fill="#FFB8B8"/>
<path d="M129.063 525.162H152.707V540.049H114.176C114.176 538.094 114.561 536.158 115.309 534.352C116.057 532.545 117.154 530.904 118.536 529.522C119.918 528.14 121.56 527.043 123.366 526.295C125.172 525.547 127.108 525.162 129.063 525.162Z" fill="#2F2E41"/>
<path d="M252.08 528.665H239.821L233.988 481.377H252.083L252.08 528.665Z" fill="#FFB8B8"/>
<path d="M231.063 525.162H254.707V540.049H216.176C216.176 538.094 216.561 536.158 217.309 534.352C218.057 532.545 219.154 530.904 220.536 529.522C221.918 528.14 223.56 527.043 225.366 526.295C227.172 525.547 229.108 525.162 231.063 525.162Z" fill="#2F2E41"/>
<path d="M173.647 491.08C173.476 491.08 173.305 491.071 173.135 491.053L123.257 485.709C122.595 485.638 121.955 485.426 121.381 485.089C120.806 484.751 120.311 484.295 119.926 483.751C119.542 483.207 119.278 482.587 119.151 481.933C119.025 481.279 119.04 480.606 119.194 479.957L163.357 311.987C163.563 311.133 164.005 310.353 164.631 309.736C165.258 309.119 166.044 308.689 166.902 308.495L207.87 297.075C208.691 296.894 209.546 296.937 210.346 297.197C211.146 297.458 211.861 297.927 212.419 298.557C238.759 328.267 258.609 394.128 273.646 477.142C273.759 477.768 273.744 478.411 273.601 479.032C273.458 479.652 273.19 480.237 272.814 480.75C272.437 481.264 271.961 481.696 271.412 482.019C270.864 482.342 270.255 482.551 269.624 482.632L228.756 487.849C227.597 488 226.423 487.711 225.466 487.04C224.509 486.369 223.838 485.364 223.585 484.223L203.702 395.574C203.519 394.758 203.061 394.03 202.405 393.511C201.75 392.992 200.936 392.715 200.099 392.724C199.263 392.734 198.456 393.03 197.812 393.564C197.169 394.098 196.728 394.837 196.564 395.657L178.234 487.308C178.026 488.371 177.455 489.33 176.618 490.018C175.781 490.706 174.73 491.082 173.647 491.08Z" fill="#2F2E41"/>
<path d="M166.057 220.455C179.622 220.455 190.618 209.459 190.618 195.894C190.618 182.329 179.622 171.333 166.057 171.333C152.492 171.333 141.496 182.329 141.496 195.894C141.496 209.459 152.492 220.455 166.057 220.455Z" fill="#FFB8B8"/>
<path d="M165.374 312.459C164.342 312.458 163.339 312.116 162.521 311.486C161.703 310.855 161.117 309.972 160.853 308.974L146.077 253.464C145.011 249.476 145.452 245.234 147.318 241.55C149.183 237.867 152.341 235 156.187 233.5C168.081 228.857 179.413 227.135 189.868 228.378C199.16 229.486 210.622 284.497 209.864 285.67L213.531 296.67C213.739 297.294 213.813 297.955 213.749 298.609C213.685 299.263 213.485 299.897 213.16 300.469C212.836 301.041 212.394 301.538 211.865 301.929C211.336 302.319 210.731 302.594 210.089 302.735L166.394 312.347C166.059 312.421 165.717 312.459 165.374 312.459Z" fill="#CCCCCC"/>
<path d="M178.617 369.226C178.827 368.134 178.796 367.008 178.524 365.929C178.253 364.85 177.748 363.844 177.045 362.981C176.343 362.119 175.46 361.42 174.458 360.936C173.457 360.451 172.361 360.192 171.249 360.177L162.736 334.507L154.035 345.544L163.453 368.228C163.551 370.099 164.332 371.868 165.648 373.202C166.963 374.535 168.723 375.339 170.592 375.462C172.461 375.585 174.31 375.019 175.789 373.869C177.268 372.72 178.274 371.068 178.617 369.226Z" fill="#FFB8B8"/>
<path d="M288.063 307.534C287.553 306.545 286.833 305.68 285.953 304.999C285.073 304.318 284.054 303.839 282.968 303.595C281.883 303.351 280.757 303.347 279.67 303.585C278.583 303.823 277.562 304.297 276.678 304.972L254.122 290.05L254.102 304.104L275.524 316.12C276.757 317.53 278.465 318.438 280.323 318.674C282.181 318.909 284.061 318.454 285.607 317.396C287.153 316.338 288.256 314.749 288.709 312.932C289.161 311.114 288.932 309.193 288.063 307.534Z" fill="#FFB8B8"/>
<path d="M160.767 357.366C159.78 357.366 158.819 357.055 158.019 356.478C157.219 355.9 156.622 355.085 156.313 354.148L136.356 311.932C135.537 309.458 135.12 306.869 135.121 304.263L141.121 249.392C141.121 246.319 142.293 243.363 144.399 241.126C146.504 238.889 149.384 237.539 152.451 237.354C155.517 237.168 158.539 238.16 160.9 240.126C163.26 242.093 164.78 244.886 165.151 247.936L155.971 310.567L170.62 349.007C170.852 350.03 170.734 351.1 170.284 352.048C169.835 352.995 169.08 353.764 168.142 354.232L162.864 356.871C162.213 357.197 161.495 357.366 160.767 357.366Z" fill="#CCCCCC"/>
<path d="M267.351 313.077C266.616 313.077 265.891 312.904 265.236 312.573L225.548 292.526C223.221 291.352 221.098 289.812 219.259 287.965L180.522 249.103C178.353 246.927 177.097 244.006 177.009 240.935C176.921 237.864 178.009 234.876 180.049 232.579C182.09 230.283 184.93 228.852 187.99 228.579C191.05 228.306 194.099 229.211 196.514 231.109L238.477 277.712L271.74 298.832C272.626 299.392 273.298 300.234 273.649 301.223C273.999 302.211 274.008 303.288 273.673 304.282L271.798 309.877C271.485 310.809 270.888 311.619 270.09 312.194C269.292 312.768 268.334 313.077 267.351 313.077Z" fill="#CCCCCC"/>
<path d="M138.121 183.196C142.293 188.654 148.29 192.427 155.016 193.827C161.834 195.236 168.929 194.219 175.076 190.953C180.023 188.28 183.981 184.269 187.858 180.319C189.476 178.671 191.2 176.77 191.118 174.522C190.992 171.038 186.804 169.134 183.21 168.374C171.411 165.913 159.134 167.293 148.177 172.314C143.297 174.581 138.213 178.682 138.945 183.78" fill="#2F2E41"/>
<path d="M783.121 189.445H301.121C296.614 189.452 292.294 191.245 289.107 194.432C285.921 197.618 284.127 201.939 284.121 206.445V392.445C284.127 396.952 285.921 401.272 289.107 404.459C292.294 407.646 296.614 409.439 301.121 409.445H783.121C787.628 409.439 791.948 407.646 795.135 404.459C798.322 401.272 800.115 396.952 800.121 392.445V206.445C800.115 201.939 798.322 197.618 795.135 194.432C791.948 191.245 787.628 189.452 783.121 189.445ZM798.121 392.445C798.116 396.422 796.534 400.235 793.722 403.047C790.91 405.859 787.098 407.44 783.121 407.445H301.121C297.144 407.44 293.332 405.859 290.52 403.047C287.708 400.235 286.126 396.422 286.121 392.445V206.445C286.126 202.469 287.708 198.656 290.52 195.844C293.332 193.032 297.144 191.45 301.121 191.445H783.121C787.098 191.45 790.91 193.032 793.722 195.844C796.534 198.656 798.116 202.469 798.121 206.445V392.445Z" fill="#3F3D56"/>
<path d="M388.637 357.445C377.165 357.445 365.952 354.044 356.414 347.671C346.876 341.297 339.442 332.239 335.052 321.641C330.662 311.043 329.513 299.381 331.751 288.13C333.989 276.879 339.513 266.545 347.625 258.433C355.736 250.322 366.071 244.798 377.322 242.56C388.572 240.322 400.234 241.47 410.832 245.86C421.43 250.25 430.489 257.684 436.862 267.222C443.235 276.76 446.637 287.974 446.637 299.445C446.619 314.823 440.503 329.565 429.63 340.438C418.756 351.312 404.014 357.428 388.637 357.445ZM388.637 243.445C377.561 243.445 366.734 246.73 357.525 252.883C348.316 259.036 341.138 267.782 336.9 278.015C332.661 288.248 331.552 299.507 333.713 310.37C335.874 321.233 341.207 331.212 349.039 339.043C356.871 346.875 366.849 352.209 377.712 354.369C388.575 356.53 399.834 355.421 410.067 351.183C420.3 346.944 429.046 339.766 435.199 330.557C441.352 321.348 444.637 310.521 444.637 299.445C444.62 284.598 438.715 270.364 428.216 259.866C417.718 249.368 403.484 243.462 388.637 243.445Z" fill="#0091EA"/>
<path d="M740.501 311.445H509.501C506.272 311.447 503.17 312.699 500.843 314.938C498.517 317.176 497.147 320.229 497.021 323.455C497.005 323.618 496.998 323.782 497.001 323.945C497.006 327.259 498.324 330.436 500.668 332.779C503.011 335.122 506.187 336.441 509.501 336.445H740.501C743.816 336.445 746.996 335.128 749.34 332.784C751.684 330.44 753.001 327.261 753.001 323.945C753.001 320.63 751.684 317.451 749.34 315.106C746.996 312.762 743.816 311.445 740.501 311.445Z" fill="#0091EA"/>
<path d="M382 541.445H1C0.734784 541.445 0.480429 541.34 0.292892 541.152C0.105356 540.965 0 540.711 0 540.445C0 540.18 0.105356 539.926 0.292892 539.738C0.480429 539.551 0.734784 539.445 1 539.445H382C382.265 539.445 382.52 539.551 382.707 539.738C382.895 539.926 383 540.18 383 540.445C383 540.711 382.895 540.965 382.707 541.152C382.52 541.34 382.265 541.445 382 541.445Z" fill="#3F3D56"/>
<path d="M683.258 144.395C662.367 141.521 641.152 142 620.413 145.812C599.733 149.592 579.77 156.572 561.24 166.5C550.826 172.096 540.943 178.626 531.711 186.009C530.203 187.214 532.338 189.325 533.832 188.131C550.032 175.245 568.191 165.037 587.619 157.895C606.894 150.766 627.154 146.656 647.684 145.71C659.3 145.177 670.94 145.705 682.46 147.288C682.843 147.379 683.247 147.322 683.59 147.128C683.932 146.933 684.188 146.616 684.306 146.24C684.409 145.856 684.357 145.448 684.161 145.102C683.965 144.757 683.64 144.503 683.258 144.395Z" fill="white"/>
<path d="M395.665 265.667H368.999C367.231 265.667 365.535 266.369 364.285 267.619C363.034 268.869 362.332 270.565 362.332 272.333V325.666C362.332 327.435 363.034 329.13 364.285 330.381C365.535 331.631 367.231 332.333 368.999 332.333H408.999C410.767 332.333 412.462 331.631 413.713 330.381C414.963 329.13 415.665 327.435 415.665 325.666V285.667L395.665 265.667Z" stroke="#0091EA" stroke-width="2" stroke-linecap="round" stroke-linejoin="round"/>
<path d="M395.668 265.667V285.667H415.668" stroke="#0091EA" stroke-width="2" stroke-linecap="round" stroke-linejoin="round"/>
<path d="M402.335 302.333H375.668" stroke="#0091EA" stroke-width="2" stroke-linecap="round" stroke-linejoin="round"/>
<path d="M402.335 315.667H375.668" stroke="#0091EA" stroke-width="2" stroke-linecap="round" stroke-linejoin="round"/>
<path d="M382.335 289H379.001H375.668" stroke="#0091EA" stroke-width="2" stroke-linecap="round" stroke-linejoin="round"/>
<path d="M587.437 296.82H583.506L576.931 287.062V296.82H573V281H576.931L583.506 290.803V281H587.437V296.82Z" fill="#0091EA"/>
<path d="M596.125 297C594.868 297 593.734 296.737 592.723 296.211C591.727 295.685 590.937 294.934 590.355 293.958C589.788 292.981 589.504 291.839 589.504 290.532C589.504 289.24 589.796 288.106 590.378 287.13C590.96 286.138 591.757 285.379 592.769 284.854C593.78 284.328 594.914 284.065 596.171 284.065C597.428 284.065 598.562 284.328 599.573 284.854C600.585 285.379 601.382 286.138 601.964 287.13C602.547 288.106 602.838 289.24 602.838 290.532C602.838 291.824 602.539 292.966 601.941 293.958C601.359 294.934 600.554 295.685 599.527 296.211C598.516 296.737 597.382 297 596.125 297ZM596.125 293.665C596.876 293.665 597.512 293.394 598.033 292.854C598.57 292.313 598.838 291.539 598.838 290.532C598.838 289.526 598.577 288.752 598.056 288.211C597.55 287.67 596.922 287.4 596.171 287.4C595.405 287.4 594.769 287.67 594.263 288.211C593.757 288.737 593.504 289.511 593.504 290.532C593.504 291.539 593.75 292.313 594.24 292.854C594.746 293.394 595.374 293.665 596.125 293.665Z" fill="#0091EA"/>
<path d="M613.726 293.845H618.875V296.82H609.795V281H613.726V293.845Z" fill="#0091EA"/>
<path d="M632.842 290.33C632.842 290.69 632.819 291.066 632.773 291.456H623.876C623.938 292.238 624.191 292.838 624.635 293.259C625.095 293.665 625.654 293.868 626.313 293.868C627.294 293.868 627.976 293.462 628.359 292.651H632.543C632.328 293.477 631.938 294.221 631.371 294.882C630.819 295.543 630.122 296.061 629.279 296.437C628.436 296.812 627.493 297 626.451 297C625.194 297 624.076 296.737 623.095 296.211C622.114 295.685 621.348 294.934 620.796 293.958C620.244 292.981 619.968 291.839 619.968 290.532C619.968 289.225 620.237 288.084 620.773 287.107C621.325 286.131 622.091 285.379 623.072 284.854C624.053 284.328 625.179 284.065 626.451 284.065C627.693 284.065 628.796 284.32 629.761 284.831C630.727 285.342 631.478 286.07 632.014 287.017C632.566 287.963 632.842 289.068 632.842 290.33ZM628.819 289.315C628.819 288.654 628.589 288.129 628.129 287.738C627.67 287.347 627.095 287.152 626.405 287.152C625.746 287.152 625.187 287.34 624.727 287.715C624.283 288.091 624.007 288.624 623.899 289.315H628.819Z" fill="#0091EA"/>
<path d="M634.134 290.51C634.134 289.218 634.379 288.084 634.87 287.107C635.375 286.131 636.057 285.379 636.916 284.854C637.774 284.328 638.732 284.065 639.789 284.065C640.693 284.065 641.483 284.245 642.157 284.606C642.847 284.966 643.375 285.439 643.743 286.025V284.245H647.674V296.82H643.743V295.039C643.36 295.625 642.824 296.099 642.134 296.459C641.46 296.82 640.67 297 639.766 297C638.724 297 637.774 296.737 636.916 296.211C636.057 295.67 635.375 294.912 634.87 293.935C634.379 292.944 634.134 291.802 634.134 290.51ZM643.743 290.532C643.743 289.571 643.467 288.812 642.916 288.256C642.379 287.7 641.72 287.423 640.939 287.423C640.157 287.423 639.49 287.7 638.939 288.256C638.402 288.797 638.134 289.548 638.134 290.51C638.134 291.471 638.402 292.238 638.939 292.808C639.49 293.364 640.157 293.642 640.939 293.642C641.72 293.642 642.379 293.364 642.916 292.808C643.467 292.253 643.743 291.494 643.743 290.532Z" fill="#0091EA"/>
<path d="M656.288 293.214L659.07 284.245H663.254L658.702 296.82H653.851L649.3 284.245H653.507L656.288 293.214Z" fill="#0091EA"/>
<path d="M677 290.33C677 290.69 676.977 291.066 676.931 291.456H668.035C668.096 292.238 668.349 292.838 668.793 293.259C669.253 293.665 669.812 293.868 670.471 293.868C671.452 293.868 672.134 293.462 672.517 292.651H676.701C676.487 293.477 676.096 294.221 675.529 294.882C674.977 295.543 674.28 296.061 673.437 296.437C672.594 296.812 671.651 297 670.609 297C669.353 297 668.234 296.737 667.253 296.211C666.272 295.685 665.506 294.934 664.954 293.958C664.402 292.981 664.127 291.839 664.127 290.532C664.127 289.225 664.395 288.084 664.931 287.107C665.483 286.131 666.249 285.379 667.23 284.854C668.211 284.328 669.337 284.065 670.609 284.065C671.851 284.065 672.954 284.32 673.92 284.831C674.885 285.342 675.636 286.07 676.172 287.017C676.724 287.963 677 289.068 677 290.33ZM672.977 289.315C672.977 288.654 672.747 288.129 672.287 287.738C671.828 287.347 671.253 287.152 670.563 287.152C669.904 287.152 669.345 287.34 668.885 287.715C668.441 288.091 668.165 288.624 668.058 289.315H672.977Z" fill="#0091EA"/>
</g>
<defs>
<clipPath id="clip0_1301_254">
<rect width="801" height="542" fill="white"/>
</clipPath>
</defs>
</svg>
