<svg width="26" height="26" viewBox="0 0 26 26" fill="none" xmlns="http://www.w3.org/2000/svg">
<path d="M23.2917 4.3335H20.9445V5.77794H23.1112V21.6668H2.88897V5.77794H5.05563V4.3335H2.70841C2.53958 4.33632 2.37296 4.37237 2.21807 4.4396C2.06318 4.50682 1.92304 4.6039 1.80568 4.72529C1.68831 4.84669 1.59601 4.99001 1.53404 5.14708C1.47207 5.30415 1.44165 5.47189 1.44452 5.64072V21.8041C1.44165 21.9729 1.47207 22.1406 1.53404 22.2977C1.59601 22.4548 1.68831 22.5981 1.80568 22.7195C1.92304 22.8409 2.06318 22.9379 2.21807 23.0052C2.37296 23.0724 2.53958 23.1085 2.70841 23.1113H23.2917C23.4606 23.1085 23.6272 23.0724 23.7821 23.0052C23.937 22.9379 24.0771 22.8409 24.1945 22.7195C24.3118 22.5981 24.4042 22.4548 24.4661 22.2977C24.5281 22.1406 24.5585 21.9729 24.5556 21.8041V5.64072C24.5585 5.47189 24.5281 5.30415 24.4661 5.14708C24.4042 4.99001 24.3118 4.84669 24.1945 4.72529C24.0771 4.6039 23.937 4.50682 23.7821 4.4396C23.6272 4.37237 23.4606 4.33632 23.2917 4.3335Z" fill="#455A64"/>
<path d="M5.77771 10.1108H7.22215V11.5553H5.77771V10.1108Z" fill="#455A64"/>
<path d="M10.1112 10.1108H11.5557V11.5553H10.1112V10.1108Z" fill="#455A64"/>
<path d="M14.4445 10.1108H15.8889V11.5553H14.4445V10.1108Z" fill="#455A64"/>
<path d="M18.7777 10.1108H20.2222V11.5553H18.7777V10.1108Z" fill="#455A64"/>
<path d="M5.77771 13.7222H7.22215V15.1666H5.77771V13.7222Z" fill="#455A64"/>
<path d="M10.1112 13.7222H11.5557V15.1666H10.1112V13.7222Z" fill="#455A64"/>
<path d="M14.4445 13.7222H15.8889V15.1666H14.4445V13.7222Z" fill="#455A64"/>
<path d="M18.7777 13.7222H20.2222V15.1666H18.7777V13.7222Z" fill="#455A64"/>
<path d="M5.77771 17.3335H7.22215V18.7779H5.77771V17.3335Z" fill="#455A64"/>
<path d="M10.1112 17.3335H11.5557V18.7779H10.1112V17.3335Z" fill="#455A64"/>
<path d="M14.4445 17.3335H15.8889V18.7779H14.4445V17.3335Z" fill="#455A64"/>
<path d="M18.7777 17.3335H20.2222V18.7779H18.7777V17.3335Z" fill="#455A64"/>
<path d="M7.22222 7.2226C7.41377 7.2226 7.59747 7.14651 7.73291 7.01107C7.86835 6.87563 7.94444 6.69193 7.94444 6.50038V2.16705C7.94444 1.9755 7.86835 1.7918 7.73291 1.65636C7.59747 1.52092 7.41377 1.44482 7.22222 1.44482C7.03068 1.44482 6.84698 1.52092 6.71153 1.65636C6.57609 1.7918 6.5 1.9755 6.5 2.16705V6.50038C6.5 6.69193 6.57609 6.87563 6.71153 7.01107C6.84698 7.14651 7.03068 7.2226 7.22222 7.2226Z" fill="#455A64"/>
<path d="M18.7778 7.2226C18.9693 7.2226 19.153 7.14651 19.2885 7.01107C19.4239 6.87563 19.5 6.69193 19.5 6.50038V2.16705C19.5 1.9755 19.4239 1.7918 19.2885 1.65636C19.153 1.52092 18.9693 1.44482 18.7778 1.44482C18.5862 1.44482 18.4025 1.52092 18.2671 1.65636C18.1316 1.7918 18.0555 1.9755 18.0555 2.16705V6.50038C18.0555 6.69193 18.1316 6.87563 18.2671 7.01107C18.4025 7.14651 18.5862 7.2226 18.7778 7.2226Z" fill="#455A64"/>
<path d="M9.38879 4.3335H16.611V5.77794H9.38879V4.3335Z" fill="#455A64"/>
</svg>
