<svg width="26" height="18" viewBox="0 0 26 18" fill="none" xmlns="http://www.w3.org/2000/svg">
<path d="M17.875 12.2143C17.6164 12.2143 17.3684 12.3159 17.1856 12.4967C17.0027 12.6776 16.9 12.9228 16.9 13.1786C16.9 13.4343 17.0027 13.6796 17.1856 13.8604C17.3684 14.0413 17.6164 14.1429 17.875 14.1429H21.125C21.3836 14.1429 21.6316 14.0413 21.8144 13.8604C21.9973 13.6796 22.1 13.4343 22.1 13.1786C22.1 12.9228 21.9973 12.6776 21.8144 12.4967C21.6316 12.3159 21.3836 12.2143 21.125 12.2143H17.875ZM0 4.17857C0 3.07035 0.445132 2.00751 1.23747 1.22388C2.02981 0.440241 3.10446 0 4.225 0H21.775C22.3298 0 22.8792 0.108082 23.3918 0.318075C23.9044 0.528068 24.3702 0.835859 24.7625 1.22388C25.1549 1.61189 25.4661 2.07253 25.6784 2.5795C25.8907 3.08647 26 3.62983 26 4.17857V13.8214C26 14.3702 25.8907 14.9135 25.6784 15.4205C25.4661 15.9275 25.1549 16.3881 24.7625 16.7761C24.3702 17.1641 23.9044 17.4719 23.3918 17.6819C22.8792 17.8919 22.3298 18 21.775 18H4.225C3.10446 18 2.02981 17.5598 1.23747 16.7761C0.445132 15.9925 0 14.9297 0 13.8214V4.17857ZM24.05 5.78571V4.17857C24.05 3.58183 23.8103 3.00954 23.3837 2.58758C22.957 2.16562 22.3784 1.92857 21.775 1.92857H4.225C3.62163 1.92857 3.04298 2.16562 2.61633 2.58758C2.18969 3.00954 1.95 3.58183 1.95 4.17857V5.78571H24.05ZM1.95 7.71429V13.8214C1.95 15.0634 2.9692 16.0714 4.225 16.0714H21.775C22.3784 16.0714 22.957 15.8344 23.3837 15.4124C23.8103 14.9905 24.05 14.4182 24.05 13.8214V7.71429H1.95Z" fill="#455A64"/>
</svg>
